SplineFontDB: 3.0
FontName: Shabnam-Bold
FullName: Shabnam Bold
FamilyName: Shabnam
Weight: Bold
Copyright: Copyright (c) 2003 by Bitstream, Inc. All Rights Reserved.\nDejaVu changes are in public domain\nCopyright (c) 2015 by Saber Rastikerdar. All Rights Reserved.\nNon-Arabic(Latin) glyphs and data are imported from Roboto font under the Apache License, Version 2.0.
Version: 4.0.0
ItalicAngle: 0
UnderlinePosition: -500
UnderlineWidth: 100
Ascent: 1638
Descent: 410
InvalidEm: 0
LayerCount: 2
Layer: 0 1 "Back" 1
Layer: 1 1 "Fore" 0
XUID: [1021 502 1027637223 208439]
UniqueID: 4000635
UseUniqueID: 1
FSType: 0
OS2Version: 1
OS2_WeightWidthSlopeOnly: 0
OS2_UseTypoMetrics: 1
CreationTime: 1431850356
ModificationTime: 1530388353
PfmFamily: 33
TTFWeight: 700
TTFWidth: 5
LineGap: 0
VLineGap: 0
Panose: 2 11 6 3 3 8 4 2 2 4
OS2TypoAscent: 1900
OS2TypoAOffset: 0
OS2TypoDescent: -900
OS2TypoDOffset: 0
OS2TypoLinegap: 0
OS2WinAscent: 1900
OS2WinAOffset: 0
OS2WinDescent: 900
OS2WinDOffset: 0
HheadAscent: 1900
HheadAOffset: 0
HheadDescent: -900
HheadDOffset: 0
OS2SubXSize: 1331
OS2SubYSize: 1433
OS2SubXOff: 0
OS2SubYOff: 286
OS2SupXSize: 1331
OS2SupYSize: 1433
OS2SupXOff: 0
OS2SupYOff: 983
OS2StrikeYSize: 102
OS2StrikeYPos: 530
OS2Vendor: '    '
OS2CodePages: 00000041.20080000
OS2UnicodeRanges: 80002003.80000000.00000008.00000000
Lookup: 1 9 0 "'fina' Terminal Forms in Arabic lookup 9" { "'fina' Terminal Forms in Arabic lookup 9 subtable"  } ['fina' ('arab' <'KUR ' 'SND ' 'URD ' 'dflt' > ) ]
Lookup: 1 9 0 "'medi' Medial Forms in Arabic lookup 11" { "'medi' Medial Forms in Arabic lookup 11 subtable"  } ['medi' ('arab' <'KUR ' 'SND ' 'URD ' 'dflt' > ) ]
Lookup: 1 9 0 "'init' Initial Forms in Arabic lookup 13" { "'init' Initial Forms in Arabic lookup 13 subtable"  } ['init' ('arab' <'KUR ' 'SND ' 'URD ' 'dflt' > ) ]
Lookup: 4 1 1 "'rlig' Required Ligatures in Arabic lookup 14" { "'rlig' Required Ligatures in Arabic lookup 14 subtable"  } ['rlig' ('arab' <'KUR ' 'dflt' > ) ]

StartChar: exclam
Encoding: 33 33 1
Width: 568
VWidth: 2424
GlyphClass: 2
Flags: W
LayerCount: 2
Fore
SplineSet
117.919921875 165.381835938 m 0,0,1
 117.919921875 173.629882812 117.919921875 173.629882812 118.692382812 181.71484375 c 128,-1,2
 119.465820312 189.799804688 119.465820312 189.799804688 120.991210938 197.62109375 c 128,-1,3
 122.517578125 205.442382812 122.517578125 205.442382812 124.798828125 213.0390625 c 128,-1,4
 127.081054688 220.635742188 127.081054688 220.635742188 130.084960938 227.91015625 c 128,-1,5
 133.088867188 235.184570312 133.088867188 235.184570312 136.83203125 242.171875 c 128,-1,6
 140.576171875 249.16015625 140.576171875 249.16015625 145.01171875 255.768554688 c 128,-1,7
 149.447265625 262.375976562 149.447265625 262.375976562 154.60546875 268.635742188 c 128,-1,8
 159.763671875 274.895507812 159.763671875 274.895507812 165.584960938 280.716796875 c 0,9,10
 213.125976562 328.256835938 213.125976562 328.256835938 281.416992188 328.8828125 c 0,11,12
 292.73828125 328.78125 292.73828125 328.78125 303.639648438 327.346679688 c 128,-1,13
 314.541015625 325.912109375 314.541015625 325.912109375 324.899414062 323.174804688 c 128,-1,14
 335.2578125 320.4375 335.2578125 320.4375 345.095703125 316.387695312 c 128,-1,15
 354.932617188 312.337890625 354.932617188 312.337890625 364.12109375 307.032226562 c 128,-1,16
 373.30859375 301.7265625 373.30859375 301.7265625 381.875976562 295.126953125 c 128,-1,17
 390.443359375 288.52734375 390.443359375 288.52734375 398.254882812 280.716796875 c 0,18,19
 445.919921875 233.05078125 445.919921875 233.05078125 445.919921875 165.381835938 c 0,20,21
 445.919921875 132.309570312 445.919921875 132.309570312 433.748046875 102.838867188 c 128,-1,22
 421.576171875 73.3681640625 421.576171875 73.3681640625 398.254882812 50.046875 c 0,23,24
 349.984375 2.9228515625 349.984375 2.9228515625 282.422851562 1.880859375 c 0,25,26
 248.36328125 2.1875 248.36328125 2.1875 218.697265625 14.3935546875 c 128,-1,27
 189.032226562 26.6005859375 189.032226562 26.6005859375 165.584960938 50.046875 c 0,28,29
 117.919921875 97.712890625 117.919921875 97.712890625 117.919921875 165.381835938 c 0,0,1
178.567382812 1351.35449219 m 1,30,-1
 377.237304688 1351.35449219 l 1,31,-1
 413.059570312 1351.35449219 l 1,32,-1
 412.227539062 1315.54199219 l 1,33,-1
 390.666992188 496.796875 l 5,34,-1
 389.874023438 462.609375 l 5,35,-1
 355.676757812 462.609375 l 5,36,-1
 201.205078125 462.609375 l 5,37,-1
 167.047851562 462.609375 l 5,38,-1
 166.215820312 496.756835938 l 5,39,-1
 143.578125 1315.50195312 l 1,40,-1
 142.704101562 1351.35449219 l 1,41,-1
 178.567382812 1351.35449219 l 1,30,-1
EndSplineSet
EndChar

StartChar: period
Encoding: 46 46 2
Width: 572
VWidth: 2424
GlyphClass: 2
Flags: W
LayerCount: 2
Fore
SplineSet
123.255859375 162.43359375 m 0,0,1
 123.255859375 175.624023438 123.255859375 175.624023438 125.221679688 188.35546875 c 128,-1,2
 127.188476562 201.087890625 127.188476562 201.087890625 131.078125 213.120117188 c 128,-1,3
 134.967773438 225.153320312 134.967773438 225.153320312 140.698242188 236.413085938 c 128,-1,4
 146.428710938 247.673828125 146.428710938 247.673828125 154.021484375 258.067382812 c 128,-1,5
 161.61328125 268.4609375 161.61328125 268.4609375 170.920898438 277.768554688 c 0,6,7
 218.461914062 325.30859375 218.461914062 325.30859375 286.752929688 325.934570312 c 0,8,9
 320.8125 325.627929688 320.8125 325.627929688 350.478515625 313.421875 c 128,-1,10
 380.143554688 301.21484375 380.143554688 301.21484375 403.590820312 277.768554688 c 128,-1,11
 426.912109375 254.447265625 426.912109375 254.447265625 439.083984375 224.9765625 c 128,-1,12
 451.255859375 195.505859375 451.255859375 195.505859375 451.255859375 162.43359375 c 0,13,14
 451.255859375 94.7646484375 451.255859375 94.7646484375 403.588867188 47.09765625 c 128,-1,15
 356.043945312 -0.4423828125 356.043945312 -0.4423828125 287.758789062 -1.0673828125 c 0,16,17
 218.463867188 -0.4443359375 218.463867188 -0.4443359375 170.920898438 47.0986328125 c 128,-1,18
 123.255859375 94.7646484375 123.255859375 94.7646484375 123.255859375 162.43359375 c 0,0,1
EndSplineSet
EndChar

StartChar: colon
Encoding: 58 58 3
Width: 579
VWidth: 2424
GlyphClass: 2
Flags: W
LayerCount: 2
Fore
SplineSet
125.203125 867.43359375 m 0,0,1
 125.203125 880.624023438 125.203125 880.624023438 127.168945312 893.35546875 c 128,-1,2
 129.135742188 906.087890625 129.135742188 906.087890625 133.025390625 918.120117188 c 128,-1,3
 136.915039062 930.153320312 136.915039062 930.153320312 142.645507812 941.413085938 c 128,-1,4
 148.375976562 952.673828125 148.375976562 952.673828125 155.96875 963.067382812 c 128,-1,5
 163.560546875 973.4609375 163.560546875 973.4609375 172.868164062 982.768554688 c 0,6,7
 220.409179688 1030.30859375 220.409179688 1030.30859375 288.700195312 1030.93457031 c 0,8,9
 311.356445312 1030.73046875 311.356445312 1030.73046875 332.15234375 1025.24023438 c 128,-1,10
 352.948242188 1019.75 352.948242188 1019.75 371.436523438 1009.06542969 c 128,-1,11
 389.924804688 998.381835938 389.924804688 998.381835938 405.538085938 982.768554688 c 0,12,13
 453.203125 935.102539062 453.203125 935.102539062 453.203125 867.43359375 c 0,14,15
 453.203125 834.361328125 453.203125 834.361328125 441.03125 804.890625 c 128,-1,16
 428.859375 775.419921875 428.859375 775.419921875 405.538085938 752.098632812 c 0,17,18
 357.997070312 704.55859375 357.997070312 704.55859375 289.706054688 703.932617188 c 0,19,20
 220.409179688 704.557617188 220.409179688 704.557617188 172.868164062 752.098632812 c 128,-1,21
 125.203125 799.764648438 125.203125 799.764648438 125.203125 867.43359375 c 0,0,1
125.203125 162.43359375 m 0,22,23
 125.203125 175.624023438 125.203125 175.624023438 127.168945312 188.35546875 c 128,-1,24
 129.135742188 201.087890625 129.135742188 201.087890625 133.025390625 213.120117188 c 128,-1,25
 136.915039062 225.153320312 136.915039062 225.153320312 142.645507812 236.413085938 c 128,-1,26
 148.375976562 247.673828125 148.375976562 247.673828125 155.96875 258.067382812 c 128,-1,27
 163.560546875 268.4609375 163.560546875 268.4609375 172.868164062 277.768554688 c 0,28,29
 220.409179688 325.30859375 220.409179688 325.30859375 288.700195312 325.934570312 c 0,30,31
 322.759765625 325.627929688 322.759765625 325.627929688 352.42578125 313.421875 c 128,-1,32
 382.090820312 301.21484375 382.090820312 301.21484375 405.538085938 277.768554688 c 128,-1,33
 428.859375 254.447265625 428.859375 254.447265625 441.03125 224.9765625 c 128,-1,34
 453.203125 195.505859375 453.203125 195.505859375 453.203125 162.43359375 c 0,35,36
 453.203125 149.243164062 453.203125 149.243164062 451.237304688 136.51171875 c 128,-1,37
 449.270507812 123.779296875 449.270507812 123.779296875 445.380859375 111.747070312 c 128,-1,38
 441.491210938 99.7138671875 441.491210938 99.7138671875 435.760742188 88.4541015625 c 128,-1,39
 430.030273438 77.193359375 430.030273438 77.193359375 422.4375 66.7998046875 c 128,-1,40
 414.845703125 56.40625 414.845703125 56.40625 405.538085938 47.0986328125 c 0,41,42
 357.997070312 -0.4423828125 357.997070312 -0.4423828125 289.706054688 -1.0673828125 c 0,43,44
 220.411132812 -0.4443359375 220.411132812 -0.4443359375 172.868164062 47.0986328125 c 128,-1,45
 125.203125 94.7646484375 125.203125 94.7646484375 125.203125 162.43359375 c 0,22,23
EndSplineSet
EndChar

StartChar: afii57388
Encoding: 1548 1548 5
Width: 627
VWidth: 2431
GlyphClass: 2
Flags: W
LayerCount: 2
Fore
SplineSet
322.720703125 -1.06640625 m 2,0,1
 273.3515625 -1.041015625 273.3515625 -1.041015625 234.642578125 15.8857421875 c 128,-1,2
 195.934570312 32.8125 195.934570312 32.8125 170.282226562 65.82421875 c 128,-1,3
 144.629882812 98.8359375 144.629882812 98.8359375 134.387695312 145.751953125 c 0,4,5
 120.166015625 210.1796875 120.166015625 210.1796875 144.82421875 316.525390625 c 0,6,7
 187.82421875 505.100585938 187.82421875 505.100585938 386.548828125 697.248046875 c 2,8,-1
 407.74609375 717.743164062 l 1,9,-1
 431.54296875 700.333984375 l 1,10,-1
 493.140625 655.270507812 l 1,11,-1
 525.259765625 631.7734375 l 1,12,-1
 497.852539062 602.918945312 l 2,13,14
 459.1640625 562.186523438 459.1640625 562.186523438 429.69921875 522.879882812 c 128,-1,15
 400.233398438 483.573242188 400.233398438 483.573242188 380.01171875 445.982421875 c 0,16,17
 350.381835938 390.90234375 350.381835938 390.90234375 339.919921875 338.158203125 c 1,18,19
 388.974609375 332.8671875 388.974609375 332.8671875 423.811523438 310.200195312 c 128,-1,20
 458.6484375 287.533203125 458.6484375 287.533203125 476.686523438 250.026367188 c 128,-1,21
 494.724609375 212.520507812 494.724609375 212.520507812 495.096679688 162.772460938 c 0,22,23
 495.858398438 52.529296875 495.858398438 52.529296875 406.872070312 14.48828125 c 0,24,25
 370.596679688 -0.544921875 370.596679688 -0.544921875 324.873046875 -1.0576171875 c 2,26,-1
 322.720703125 -1.06640625 l 2,0,1
EndSplineSet
EndChar

StartChar: uni0615
Encoding: 1557 1557 6
Width: 11
VWidth: 2551
GlyphClass: 4
Flags: W
AnchorPoint: "Anchor-10" 648 1488.29 mark 0
AnchorPoint: "Anchor-9" 648 1488.29 mark 0
AnchorPoint: "Anchor-1" 648 2304.6 basemark 0
AnchorPoint: "Anchor-1" 648 1488.29 mark 0
LayerCount: 2
Fore
SplineSet
790.362304688 1859.40234375 m 0,0,1
 773.21875 1860.70507812 773.21875 1860.70507812 751.10546875 1852.60546875 c 128,-1,2
 728.9921875 1844.50488281 728.9921875 1844.50488281 701.7109375 1827.07714844 c 0,3,4
 647.442382812 1792.40917969 647.442382812 1792.40917969 575.66796875 1720.35449219 c 2,5,-1
 553.008789062 1697.60644531 l 1,6,-1
 549.611328125 1694.1953125 l 1,7,-1
 554.42578125 1694.1953125 l 1,8,-1
 653.03125 1694.1953125 l 2,9,10
 835.516601562 1694.0078125 835.516601562 1694.0078125 841.01953125 1776.55664062 c 0,11,12
 841.983398438 1790.22753906 841.983398438 1790.22753906 841.197265625 1801.58789062 c 128,-1,13
 840.411132812 1812.94824219 840.411132812 1812.94824219 837.856445312 1821.90136719 c 128,-1,14
 835.287109375 1830.90625 835.287109375 1830.90625 831.055664062 1837.68652344 c 128,-1,15
 826.82421875 1844.46679688 826.82421875 1844.46679688 820.916015625 1848.94726562 c 128,-1,16
 815.040039062 1853.40136719 815.040039062 1853.40136719 807.390625 1856.0078125 c 128,-1,17
 799.741210938 1858.61425781 799.741210938 1858.61425781 790.362304688 1859.40234375 c 0,0,1
938.100585938 1835.5625 m 0,18,19
 939.411132812 1821.49707031 939.411132812 1821.49707031 939.418945312 1808.28027344 c 0,20,21
 939.549804688 1602.640625 939.549804688 1602.640625 631.908203125 1602.640625 c 2,22,-1
 347.12109375 1602.640625 l 1,23,-1
 339.12109375 1602.640625 l 1,24,-1
 339.12109375 1610.640625 l 1,25,-1
 339.12109375 1686.1953125 l 1,26,-1
 339.12109375 1694.1953125 l 1,27,-1
 347.12109375 1694.1953125 l 1,28,-1
 438.844726562 1694.1953125 l 1,29,-1
 440.844726562 1694.1953125 l 1,30,-1
 440.844726562 1696.1953125 l 1,31,-1
 440.844726562 2187.28320312 l 1,32,-1
 440.844726562 2195.28320312 l 1,33,-1
 448.844726562 2195.28320312 l 1,34,-1
 525.655273438 2195.28320312 l 1,35,-1
 533.6484375 2195.28320312 l 1,36,-1
 533.655273438 2187.29003906 l 1,37,-1
 533.978515625 1806.6953125 l 1,38,-1
 533.983398438 1801.7578125 l 1,39,-1
 537.416015625 1805.30664062 l 1,40,-1
 554.538085938 1823.00488281 l 2,41,42
 598.619140625 1868.73339844 598.619140625 1868.73339844 638.903320312 1899.29394531 c 128,-1,43
 679.1875 1929.85449219 679.1875 1929.85449219 715.399414062 1945.15625 c 128,-1,44
 751.611328125 1960.45800781 751.611328125 1960.45800781 783.922851562 1960.69824219 c 0,45,46
 818.8984375 1961.03515625 818.8984375 1961.03515625 846.161132812 1953.26074219 c 128,-1,47
 873.424804688 1945.48632812 873.424804688 1945.48632812 893.046875 1929.66015625 c 0,48,49
 906.106445312 1919.12597656 906.106445312 1919.12597656 915.45703125 1905.20703125 c 128,-1,50
 924.806640625 1891.28710938 924.806640625 1891.28710938 930.477539062 1873.87109375 c 128,-1,51
 936.1484375 1856.45507812 936.1484375 1856.45507812 938.100585938 1835.5625 c 0,18,19
EndSplineSet
EndChar

StartChar: uni061B
Encoding: 1563 1563 7
Width: 627
VWidth: 2431
GlyphClass: 2
Flags: W
LayerCount: 2
Fore
SplineSet
322.743164062 442.862304688 m 0,0,1
 248.305664062 442.900390625 248.305664062 442.900390625 199.090820312 481.005859375 c 128,-1,2
 149.875976562 519.112304688 149.875976562 519.112304688 134.469726562 589.680664062 c 0,3,4
 129.462890625 612.364257812 129.462890625 612.364257812 129.185546875 639.366210938 c 128,-1,5
 128.908203125 666.368164062 128.908203125 666.368164062 132.862304688 695.966796875 c 128,-1,6
 136.817382812 725.56640625 136.817382812 725.56640625 144.90625 760.454101562 c 0,7,8
 187.90625 949.029296875 187.90625 949.029296875 386.630859375 1141.17675781 c 2,9,-1
 407.828125 1161.671875 l 1,10,-1
 431.625 1144.26269531 l 1,11,-1
 493.22265625 1099.19921875 l 1,12,-1
 525.341796875 1075.70214844 l 1,13,-1
 497.934570312 1046.84765625 l 2,14,15
 459.197265625 1006.0625 459.197265625 1006.0625 429.62109375 966.6171875 c 0,16,17
 400.396484375 927.643554688 400.396484375 927.643554688 380.12109375 889.959960938 c 0,18,19
 370.107421875 871.349609375 370.107421875 871.349609375 362.327148438 853.146484375 c 128,-1,20
 354.545898438 834.943359375 354.545898438 834.943359375 348.967773438 817.162109375 c 0,21,22
 346.315429688 808.708007812 346.315429688 808.708007812 343.926757812 799.297851562 c 128,-1,23
 341.538085938 789.887695312 341.538085938 789.887695312 340.005859375 782.109375 c 1,24,25
 348.936523438 781.173828125 348.936523438 781.173828125 357.263671875 779.7421875 c 128,-1,26
 365.590820312 778.310546875 365.590820312 778.310546875 373.592773438 776.317382812 c 128,-1,27
 381.59375 774.32421875 381.59375 774.32421875 389.215820312 771.720703125 c 128,-1,28
 396.837890625 769.118164062 396.837890625 769.118164062 404.063476562 765.90625 c 0,29,30
 449.71875 745.612304688 449.71875 745.612304688 472.934570312 703.490234375 c 0,31,32
 494.75 663.909179688 494.75 663.909179688 495.178710938 606.700195312 c 0,33,34
 495.443359375 568.379882812 495.443359375 568.379882812 485.043945312 538.569335938 c 0,35,36
 473.8046875 506.3515625 473.8046875 506.3515625 450.390625 484.405273438 c 0,37,38
 438.750976562 473.49609375 438.750976562 473.49609375 424.454101562 465.501953125 c 128,-1,39
 410.158203125 457.5078125 410.158203125 457.5078125 393.754882812 452.439453125 c 0,40,41
 387.348632812 450.4609375 387.348632812 450.4609375 380.598632812 448.895507812 c 128,-1,42
 373.84765625 447.331054688 373.84765625 447.331054688 366.92578125 446.200195312 c 128,-1,43
 360.002929688 445.068359375 360.002929688 445.068359375 352.716796875 444.323242188 c 128,-1,44
 345.4296875 443.577148438 345.4296875 443.577148438 337.99609375 443.219726562 c 128,-1,45
 330.561523438 442.862304688 330.561523438 442.862304688 322.743164062 442.862304688 c 0,0,1
151.907226562 162.43359375 m 0,46,47
 151.907226562 171.858398438 151.907226562 171.858398438 152.913085938 181.063476562 c 128,-1,48
 153.919921875 190.267578125 153.919921875 190.267578125 155.916015625 199.133789062 c 128,-1,49
 157.913085938 207.999023438 157.913085938 207.999023438 160.870117188 216.53125 c 128,-1,50
 163.827148438 225.0625 163.827148438 225.0625 167.751953125 233.193359375 c 128,-1,51
 171.676757812 241.32421875 171.676757812 241.32421875 176.515625 249.002929688 c 128,-1,52
 181.353515625 256.682617188 181.353515625 256.682617188 187.137695312 263.899414062 c 128,-1,53
 192.920898438 271.1171875 192.920898438 271.1171875 199.572265625 277.768554688 c 0,54,55
 247.11328125 325.30859375 247.11328125 325.30859375 315.404296875 325.934570312 c 0,56,57
 349.463867188 325.627929688 349.463867188 325.627929688 379.129882812 313.421875 c 128,-1,58
 408.794921875 301.21484375 408.794921875 301.21484375 432.2421875 277.768554688 c 128,-1,59
 455.563476562 254.447265625 455.563476562 254.447265625 467.735351562 224.9765625 c 128,-1,60
 479.907226562 195.505859375 479.907226562 195.505859375 479.907226562 162.43359375 c 0,61,62
 479.907226562 94.7646484375 479.907226562 94.7646484375 432.2421875 47.0986328125 c 128,-1,63
 384.701171875 -0.44140625 384.701171875 -0.44140625 316.41015625 -1.0673828125 c 0,64,65
 247.115234375 -0.4443359375 247.115234375 -0.4443359375 199.572265625 47.0986328125 c 128,-1,66
 151.907226562 94.7646484375 151.907226562 94.7646484375 151.907226562 162.43359375 c 0,46,47
EndSplineSet
EndChar

StartChar: uni061F
Encoding: 1567 1567 8
Width: 911
VWidth: 2431
GlyphClass: 2
Flags: W
LayerCount: 2
Fore
SplineSet
352.284179688 162.43359375 m 128,-1,1
 352.284179688 230.102539062 352.284179688 230.102539062 399.94921875 277.768554688 c 128,-1,2
 447.490234375 325.30859375 447.490234375 325.30859375 515.78125 325.934570312 c 0,3,4
 538.436523438 325.731445312 538.436523438 325.731445312 559.232421875 320.240234375 c 128,-1,5
 580.028320312 314.75 580.028320312 314.75 598.516601562 304.06640625 c 128,-1,6
 617.004882812 293.381835938 617.004882812 293.381835938 632.619140625 277.768554688 c 128,-1,7
 648.131835938 262.254882812 648.131835938 262.254882812 658.784179688 243.87890625 c 128,-1,8
 669.435546875 225.502929688 669.435546875 225.502929688 674.860351562 204.963867188 c 128,-1,9
 680.284179688 184.424804688 680.284179688 184.424804688 680.284179688 162.43359375 c 0,10,11
 680.284179688 94.7646484375 680.284179688 94.7646484375 632.619140625 47.0986328125 c 0,12,13
 609.231445312 23.7119140625 609.231445312 23.7119140625 579.81640625 11.4755859375 c 128,-1,14
 550.40234375 -0.759765625 550.40234375 -0.759765625 516.787109375 -1.0673828125 c 0,15,16
 447.4921875 -0.4443359375 447.4921875 -0.4443359375 399.94921875 47.0986328125 c 128,-1,0
 352.284179688 94.7646484375 352.284179688 94.7646484375 352.284179688 162.43359375 c 128,-1,1
390.490234375 480.920898438 m 2,17,18
 390.490234375 520.484482796 390.490234375 520.484482796 316.487304688 582.948242188 c 2,19,-1
 259.23828125 631.270507812 l 2,20,21
 65 795 65 795 66.0009765625 963.221679688 c 0,22,23
 67 1103 67 1103 137.986328125 1197.98242188 c 0,24,25
 174 1246 174 1246 221.467773438 1278.04589844 c 128,-1,26
 269 1310 269 1310 325.830078125 1326.27929688 c 0,27,28
 383 1342 383 1342 448.930664062 1342.4453125 c 0,29,30
 594 1343 594 1343 689.569335938 1257.4765625 c 0,31,32
 785.833372662 1171.14942715 785.833372662 1171.14942715 827.869140625 1009.82617188 c 2,33,-1
 836.17578125 977.947265625 l 1,34,-1
 804.858398438 967.7265625 l 1,35,-1
 653.994140625 918.494140625 l 1,36,-1
 622.05859375 908.073242188 l 1,37,-1
 610.3359375 939.553710938 l 2,38,39
 596 979 596 979 577.90625 1008.53808594 c 0,40,41
 560 1037 560 1037 540.784179688 1054.48632812 c 0,42,43
 521 1072 521 1072 499.98828125 1079.41210938 c 128,-1,44
 479 1087 479 1087 454.627929688 1086.70410156 c 0,45,46
 415 1086 415 1086 387.313476562 1074.33984375 c 0,47,48
 360 1063 360 1063 342.469726562 1040.67773438 c 0,49,50
 328 1022 328 1022 320.106445312 1000.32519531 c 0,51,52
 313 979 313 979 312.499023438 954.79296875 c 0,53,54
 312.001529643 894.186346978 312.001529643 894.186346978 444.01953125 795.032226562 c 2,55,-1
 488.02734375 761.979492188 l 2,56,57
 647.459960938 641.652859297 647.459960938 641.652859297 647.459960938 482 c 2,58,-1
 647.459960938 461.689453125 l 5,59,-1
 612.458984375 461.690429688 l 5,60,-1
 425.489257812 461.693359375 l 5,61,-1
 390.490234375 461.694335938 l 5,62,-1
 390.490234375 480.920898438 l 2,17,18
EndSplineSet
EndChar

StartChar: uni0621
Encoding: 1569 1569 9
Width: 807
VWidth: 2586
GlyphClass: 2
Flags: W
AnchorPoint: "Anchor-7" 470.143 -33.166 basechar 0
AnchorPoint: "Anchor-10" 322.188 1124.55 basechar 0
LayerCount: 2
Fore
SplineSet
444.809570312 670.45703125 m 0,0,1
 405.620117188 670.2578125 405.620117188 670.2578125 374.84375 659.459960938 c 0,2,3
 360.076171875 654.279296875 360.076171875 654.279296875 347.323242188 646.639648438 c 128,-1,4
 334.5703125 639 334.5703125 639 323.608398438 628.9609375 c 0,5,6
 306.534179688 612.44921875 306.534179688 612.44921875 298.353515625 590.952148438 c 128,-1,7
 290.173828125 569.455078125 290.173828125 569.455078125 290.30078125 539.0390625 c 0,8,9
 290.158203125 475.373046875 290.158203125 475.373046875 338.068359375 438.076171875 c 0,10,11
 402.578125 387.857421875 402.578125 387.857421875 497.697265625 388.09765625 c 0,12,13
 529.412109375 388.055664062 529.412109375 388.055664062 567.880859375 399.270507812 c 128,-1,14
 606.349609375 410.485351562 606.349609375 410.485351562 650.993164062 433.578125 c 2,15,-1
 688.5859375 453.024414062 l 1,16,-1
 700.626953125 412.448242188 l 1,17,-1
 746.41015625 258.163085938 l 1,18,-1
 755.625976562 227.107421875 l 1,19,-1
 725.375 215.521484375 l 1,20,-1
 180.604492188 6.873046875 l 1,21,-1
 149.083984375 -5.19921875 l 1,22,-1
 135.876953125 25.8623046875 l 1,23,-1
 76.4384765625 165.65234375 l 1,24,-1
 61.8505859375 199.959960938 l 1,25,-1
 97.0087890625 212.356445312 l 1,26,-1
 222.697265625 256.671875 l 1,27,28
 58.0791015625 341.344726562 58.0791015625 341.344726562 58.69921875 548.780273438 c 0,29,30
 59.03125 741.428710938 59.03125 741.428710938 213.884765625 837.03125 c 0,31,32
 306.450195312 894.952148438 306.450195312 894.952148438 436.159179688 895.607421875 c 0,33,34
 484.095703125 895.81640625 484.095703125 895.81640625 527.416992188 886.749023438 c 0,35,36
 549.240234375 882.181640625 549.240234375 882.181640625 569.984375 875.25390625 c 128,-1,37
 590.728515625 868.325195312 590.728515625 868.325195312 610.293945312 859.049804688 c 2,38,-1
 630.30078125 849.565429688 l 1,39,-1
 630.30078125 827.423828125 l 1,40,-1
 630.30078125 679.798828125 l 1,41,-1
 630.30078125 631.030273438 l 1,42,-1
 584.098632812 646.639648438 l 2,43,44
 514.83203125 670.041015625 514.83203125 670.041015625 444.809570312 670.45703125 c 0,0,1
EndSplineSet
EndChar

StartChar: uni0627
Encoding: 1575 1575 15
Width: 469
VWidth: 2586
GlyphClass: 2
Flags: W
AnchorPoint: "Anchor-10" 235.338 1428.41 basechar 0
AnchorPoint: "Anchor-7" 239.805 -221.859 basechar 0
LayerCount: 2
Fore
SplineSet
160.299804688 1333.72753906 m 5,0,-1
 326.393554688 1333.72753906 l 5,1,-1
 361.393554688 1333.72753906 l 5,2,-1
 361.393554688 1298.72753906 l 5,3,-1
 361.393554688 35.6943359375 l 1,4,-1
 361.393554688 0.6865234375 l 1,5,-1
 326.393554688 0.6943359375 l 1,6,-1
 160.299804688 0.6943359375 l 1,7,-1
 125.299804688 0.6943359375 l 1,8,-1
 125.299804688 35.6943359375 l 1,9,-1
 125.299804688 1298.72753906 l 5,10,-1
 125.299804688 1333.73535156 l 5,11,-1
 160.299804688 1333.72753906 l 5,0,-1
EndSplineSet
Substitution2: "'fina' Terminal Forms in Arabic lookup 9 subtable" uniFE8E
EndChar

StartChar: uni062D
Encoding: 1581 1581 21
Width: 1319
VWidth: 2586
GlyphClass: 2
Flags: W
AnchorPoint: "Anchor-7" 471.334 -800.653 basechar 0
AnchorPoint: "Anchor-10" 552.649 1224.29 basechar 0
LayerCount: 2
Fore
SplineSet
1080.62304688 322.326171875 m 0,0,1
 951.458007812 304.022460938 951.458007812 304.022460938 842.205078125 277.458007812 c 128,-1,2
 732.953125 250.893554688 732.953125 250.893554688 643.876953125 216.274414062 c 0,3,4
 558.033203125 183.083984375 558.033203125 183.083984375 494.458007812 143.357421875 c 128,-1,5
 430.883789062 103.630859375 430.883789062 103.630859375 389.6015625 58.212890625 c 0,6,7
 308.966796875 -30.5595703125 308.966796875 -30.5595703125 308.6875 -144.895507812 c 0,8,9
 307.932617188 -296.630859375 307.932617188 -296.630859375 427.249023438 -372.981445312 c 128,-1,10
 546.56640625 -449.331054688 546.56640625 -449.331054688 804.455078125 -449.172851562 c 2,11,-1
 1216.30859375 -448.919921875 l 1,12,-1
 1251.33007812 -448.8984375 l 1,13,-1
 1251.33007812 -483.919921875 l 1,14,-1
 1251.33007812 -660.470703125 l 1,15,-1
 1251.33007812 -695.543945312 l 1,16,-1
 1216.25683594 -695.470703125 l 1,17,-1
 792.3984375 -694.58203125 l 2,18,19
 388.931640625 -693.979492188 388.931640625 -693.979492188 218.194335938 -530.6328125 c 0,20,21
 63.7861328125 -381.659179688 63.7861328125 -381.659179688 67.1123046875 -150.228515625 c 0,22,23
 70.060546875 112.893554688 70.060546875 112.893554688 263.65625 280.059570312 c 128,-1,24
 457.251953125 447.225585938 457.251953125 447.225585938 828.014648438 517.2421875 c 1,25,-1
 789.20703125 539.61328125 l 2,26,27
 738.40625 568.932617188 738.40625 568.932617188 690.380859375 585.627929688 c 128,-1,28
 642.356445312 602.32421875 642.356445312 602.32421875 596.681640625 606.635742188 c 128,-1,29
 551.006835938 610.946289062 551.006835938 610.946289062 507.16796875 602.7578125 c 128,-1,30
 463.329101562 594.5703125 463.329101562 594.5703125 421.33203125 574.290039062 c 128,-1,31
 379.3359375 554.010742188 379.3359375 554.010742188 338.234375 521.35546875 c 2,32,-1
 266.71484375 464.532226562 l 1,33,-1
 240.803710938 443.9453125 l 1,34,-1
 218.799804688 468.6640625 l 1,35,-1
 103.782226562 597.875976562 l 1,36,-1
 79.8837890625 624.724609375 l 1,37,-1
 107.357421875 647.900390625 l 1,38,-1
 168.418945312 699.409179688 l 2,39,40
 332.677734375 838.208984375 332.677734375 838.208984375 508.116210938 856.643554688 c 128,-1,41
 683.5546875 875.078125 683.5546875 875.078125 863.185546875 771.784179688 c 2,42,-1
 1052.12792969 662.817382812 l 2,43,44
 1071.8203125 651.563476562 1071.8203125 651.563476562 1090.65136719 641.8984375 c 128,-1,45
 1109.48339844 632.233398438 1109.48339844 632.233398438 1126.99121094 624.359375 c 128,-1,46
 1144.49804688 616.484375 1144.49804688 616.484375 1161.0078125 610.20703125 c 128,-1,47
 1177.51660156 603.928710938 1177.51660156 603.928710938 1192.68164062 599.356445312 c 128,-1,48
 1207.84667969 594.783203125 1207.84667969 594.783203125 1221.87597656 591.815429688 c 2,49,-1
 1249.62988281 585.942382812 l 1,50,-1
 1249.62988281 557.573242188 l 1,51,-1
 1249.62988281 375.947265625 l 1,52,-1
 1249.62988281 345.239257812 l 1,53,-1
 1219.18261719 341.244140625 l 2,54,55
 1151.16503906 332.321289062 1151.16503906 332.321289062 1080.62304688 322.326171875 c 0,0,1
EndSplineSet
Substitution2: "'fina' Terminal Forms in Arabic lookup 9 subtable" uniFEA2
Substitution2: "'medi' Medial Forms in Arabic lookup 11 subtable" uniFEA4
Substitution2: "'init' Initial Forms in Arabic lookup 13 subtable" uniFEA3
EndChar

StartChar: uni062F
Encoding: 1583 1583 23
Width: 1011
VWidth: 2586
GlyphClass: 2
Flags: W
AnchorPoint: "Anchor-10" 403.659 1333.16 basechar 0
AnchorPoint: "Anchor-7" 428.382 -209.53 basechar 0
LayerCount: 2
Fore
SplineSet
467.978515625 0 m 2,0,-1
 103.899414062 0 l 1,1,-1
 68.8994140625 0 l 1,2,-1
 68.8994140625 35 l 1,3,-1
 68.8994140625 215 l 1,4,-1
 68.8994140625 250 l 1,5,-1
 103.899414062 250 l 1,6,-1
 468.911132812 250 l 2,7,8
 695.684570312 250 695.684570312 250 696.720703125 342.13671875 c 0,9,10
 696.567382812 357.831054688 696.567382812 357.831054688 687.346679688 380.485351562 c 128,-1,11
 678.125976562 403.140625 678.125976562 403.140625 656.518554688 435.866210938 c 128,-1,12
 634.911132812 468.591796875 634.911132812 468.591796875 603.047851562 505.40234375 c 2,13,-1
 329.380859375 821.576171875 l 1,14,-1
 309.23046875 844.856445312 l 1,15,-1
 329.751953125 867.810546875 l 1,16,-1
 450.573242188 1002.95214844 l 1,17,-1
 477.194335938 1032.72753906 l 1,18,-1
 503.217773438 1002.42773438 l 1,19,-1
 802.032226562 654.502929688 l 2,20,21
 944.05859375 489.158203125 944.05859375 489.158203125 943.288085938 329.857421875 c 0,22,23
 942.573242188 164.999023438 942.573242188 164.999023438 819.3671875 82.4990234375 c 128,-1,24
 696.161132812 0 696.161132812 0 467.978515625 0 c 2,0,-1
EndSplineSet
Substitution2: "'fina' Terminal Forms in Arabic lookup 9 subtable" uniFEAA
EndChar

StartChar: uni0631
Encoding: 1585 1585 25
Width: 755
VWidth: 2586
GlyphClass: 2
Flags: W
AnchorPoint: "Anchor-7" 297.433 -634.366 basechar 0
AnchorPoint: "Anchor-10" 450.527 988.269 basechar 0
LayerCount: 2
Fore
SplineSet
94.232421875 -214.440429688 m 2,0,1
 186.143554688 -214.530273438 186.143554688 -214.530273438 252.676757812 -195.290039062 c 128,-1,2
 319.208984375 -176.05078125 319.208984375 -176.05078125 362.553710938 -136.2109375 c 128,-1,3
 405.897460938 -96.3720703125 405.897460938 -96.3720703125 426.639648438 -36.55859375 c 128,-1,4
 447.3828125 23.255859375 447.3828125 23.255859375 447.3828125 105.53125 c 2,5,-1
 447.383789062 639.638671875 l 1,6,-1
 447.383789062 674.430664062 l 1,7,-1
 482.17578125 674.637695312 l 1,8,-1
 655.97265625 675.671875 l 1,9,-1
 691.180664062 675.881835938 l 1,10,-1
 691.180664062 640.672851562 l 1,11,-1
 691.180664062 103.015625 l 2,12,13
 691.0859375 -172.530273438 691.0859375 -172.530273438 539.579101562 -315.8203125 c 128,-1,14
 388.072265625 -459.110351562 388.072265625 -459.110351562 96.6962890625 -461.411132812 c 2,15,-1
 24.2255859375 -461.983398438 l 1,16,-1
 -11.0517578125 -462.26171875 l 1,17,-1
 -11.05078125 -426.983398438 l 1,18,-1
 -11.0478515625 -249.37109375 l 1,19,-1
 -11.046875 -214.337890625 l 1,20,-1
 23.986328125 -214.372070312 l 1,21,-1
 94.232421875 -214.440429688 l 2,0,1
EndSplineSet
PairPos2: "'kern' Horizontal Kerning lookup 15-2" uniFBFE dx=60 dy=0 dh=60 dv=0 dx=0 dy=0 dh=0 dv=0
PairPos2: "'kern' Horizontal Kerning lookup 15-1" uniFEFB dx=-100 dy=0 dh=-100 dv=0 dx=0 dy=0 dh=0 dv=0
PairPos2: "'kern' Horizontal Kerning lookup 15-1" uniFEDF dx=-100 dy=0 dh=-100 dv=0 dx=0 dy=0 dh=0 dv=0
PairPos2: "'kern' Horizontal Kerning lookup 15-1" uni062F dx=-100 dy=0 dh=-100 dv=0 dx=0 dy=0 dh=0 dv=0
PairPos2: "'kern' Horizontal Kerning lookup 15-2" uniFB90 dx=-142 dy=0 dh=-142 dv=0 dx=0 dy=0 dh=0 dv=0
PairPos2: "'kern' Horizontal Kerning lookup 15-2" uniFB8E dx=-142 dy=0 dh=-142 dv=0 dx=0 dy=0 dh=0 dv=0
PairPos2: "'kern' Horizontal Kerning lookup 15-2" uni06A9 dx=-142 dy=0 dh=-142 dv=0 dx=0 dy=0 dh=0 dv=0
PairPos2: "'kern' Horizontal Kerning lookup 15-2" uniFEEB dx=-100 dy=0 dh=-100 dv=0 dx=0 dy=0 dh=0 dv=0
PairPos2: "'kern' Horizontal Kerning lookup 15-2" uni0647 dx=-100 dy=0 dh=-100 dv=0 dx=0 dy=0 dh=0 dv=0
PairPos2: "'kern' Horizontal Kerning lookup 15-2" uniFEE7 dx=-100 dy=0 dh=-100 dv=0 dx=0 dy=0 dh=0 dv=0
PairPos2: "'kern' Horizontal Kerning lookup 15-2" uniFEE3 dx=-100 dy=0 dh=-100 dv=0 dx=0 dy=0 dh=0 dv=0
PairPos2: "'kern' Horizontal Kerning lookup 15-2" uni0645 dx=-100 dy=0 dh=-100 dv=0 dx=0 dy=0 dh=0 dv=0
PairPos2: "'kern' Horizontal Kerning lookup 15-2" uniFEDB dx=-100 dy=0 dh=-100 dv=0 dx=0 dy=0 dh=0 dv=0
PairPos2: "'kern' Horizontal Kerning lookup 15-2" uni0643 dx=-100 dy=0 dh=-100 dv=0 dx=0 dy=0 dh=0 dv=0
PairPos2: "'kern' Horizontal Kerning lookup 15-2" uniFED7 dx=-100 dy=0 dh=-100 dv=0 dx=0 dy=0 dh=0 dv=0
PairPos2: "'kern' Horizontal Kerning lookup 15-2" uniFED3 dx=-100 dy=0 dh=-100 dv=0 dx=0 dy=0 dh=0 dv=0
PairPos2: "'kern' Horizontal Kerning lookup 15-2" uni0641 dx=-100 dy=0 dh=-100 dv=0 dx=0 dy=0 dh=0 dv=0
PairPos2: "'kern' Horizontal Kerning lookup 15-2" uniFECF dx=-100 dy=0 dh=-100 dv=0 dx=0 dy=0 dh=0 dv=0
PairPos2: "'kern' Horizontal Kerning lookup 15-2" uniFECB dx=-100 dy=0 dh=-100 dv=0 dx=0 dy=0 dh=0 dv=0
PairPos2: "'kern' Horizontal Kerning lookup 15-2" uniFEC7 dx=-100 dy=0 dh=-100 dv=0 dx=0 dy=0 dh=0 dv=0
PairPos2: "'kern' Horizontal Kerning lookup 15-2" uni0638 dx=-100 dy=0 dh=-100 dv=0 dx=0 dy=0 dh=0 dv=0
PairPos2: "'kern' Horizontal Kerning lookup 15-2" uniFEC3 dx=-100 dy=0 dh=-100 dv=0 dx=0 dy=0 dh=0 dv=0
PairPos2: "'kern' Horizontal Kerning lookup 15-2" uni0637 dx=-100 dy=0 dh=-100 dv=0 dx=0 dy=0 dh=0 dv=0
PairPos2: "'kern' Horizontal Kerning lookup 15-2" uniFEBF dx=-100 dy=0 dh=-100 dv=0 dx=0 dy=0 dh=0 dv=0
PairPos2: "'kern' Horizontal Kerning lookup 15-2" uni0636 dx=-100 dy=0 dh=-100 dv=0 dx=0 dy=0 dh=0 dv=0
PairPos2: "'kern' Horizontal Kerning lookup 15-2" uniFEBB dx=-100 dy=0 dh=-100 dv=0 dx=0 dy=0 dh=0 dv=0
PairPos2: "'kern' Horizontal Kerning lookup 15-2" uni0635 dx=-100 dy=0 dh=-100 dv=0 dx=0 dy=0 dh=0 dv=0
PairPos2: "'kern' Horizontal Kerning lookup 15-2" uniFEB7 dx=-100 dy=0 dh=-100 dv=0 dx=0 dy=0 dh=0 dv=0
PairPos2: "'kern' Horizontal Kerning lookup 15-2" uni0634 dx=-100 dy=0 dh=-100 dv=0 dx=0 dy=0 dh=0 dv=0
PairPos2: "'kern' Horizontal Kerning lookup 15-2" uniFEB3 dx=-100 dy=0 dh=-100 dv=0 dx=0 dy=0 dh=0 dv=0
PairPos2: "'kern' Horizontal Kerning lookup 15-2" uni0633 dx=-100 dy=0 dh=-100 dv=0 dx=0 dy=0 dh=0 dv=0
PairPos2: "'kern' Horizontal Kerning lookup 15-2" uniFEA7 dx=-100 dy=0 dh=-100 dv=0 dx=0 dy=0 dh=0 dv=0
PairPos2: "'kern' Horizontal Kerning lookup 15-2" uniFEA3 dx=-100 dy=0 dh=-100 dv=0 dx=0 dy=0 dh=0 dv=0
PairPos2: "'kern' Horizontal Kerning lookup 15-2" uniFE9F dx=-100 dy=0 dh=-100 dv=0 dx=0 dy=0 dh=0 dv=0
PairPos2: "'kern' Horizontal Kerning lookup 15-2" uniFE9B dx=-100 dy=0 dh=-100 dv=0 dx=0 dy=0 dh=0 dv=0
PairPos2: "'kern' Horizontal Kerning lookup 15-2" uni062B dx=-100 dy=0 dh=-100 dv=0 dx=0 dy=0 dh=0 dv=0
PairPos2: "'kern' Horizontal Kerning lookup 15-2" uniFE97 dx=-100 dy=0 dh=-100 dv=0 dx=0 dy=0 dh=0 dv=0
PairPos2: "'kern' Horizontal Kerning lookup 15-2" uni062A dx=-100 dy=0 dh=-100 dv=0 dx=0 dy=0 dh=0 dv=0
PairPos2: "'kern' Horizontal Kerning lookup 15-2" uni0629 dx=-100 dy=0 dh=-100 dv=0 dx=0 dy=0 dh=0 dv=0
PairPos2: "'kern' Horizontal Kerning lookup 15-2" uniFE91 dx=-47 dy=0 dh=-47 dv=0 dx=0 dy=0 dh=0 dv=0
PairPos2: "'kern' Horizontal Kerning lookup 15-2" uni0628 dx=-100 dy=0 dh=-100 dv=0 dx=0 dy=0 dh=0 dv=0
PairPos2: "'kern' Horizontal Kerning lookup 15-2" uni0627 dx=-160 dy=0 dh=-160 dv=0 dx=0 dy=0 dh=0 dv=0
PairPos2: "'kern' Horizontal Kerning lookup 15-2" uni0622 dx=-160 dy=0 dh=-160 dv=0 dx=0 dy=0 dh=0 dv=0
PairPos2: "'kern' Horizontal Kerning lookup 15-2" uni0621 dx=-100 dy=0 dh=-100 dv=0 dx=0 dy=0 dh=0 dv=0
PairPos2: "'kern' Horizontal Kerning lookup 15-2" uniFB94 dx=-142 dy=0 dh=-142 dv=0 dx=0 dy=0 dh=0 dv=0
PairPos2: "'kern' Horizontal Kerning lookup 15-2" uniFB92 dx=-142 dy=0 dh=-142 dv=0 dx=0 dy=0 dh=0 dv=0
PairPos2: "'kern' Horizontal Kerning lookup 15-2" afii57509 dx=-142 dy=0 dh=-142 dv=0 dx=0 dy=0 dh=0 dv=0
PairPos2: "'kern' Horizontal Kerning lookup 15-2" uniFB7C dx=-100 dy=0 dh=-100 dv=0 dx=0 dy=0 dh=0 dv=0
PairPos2: "'kern' Horizontal Kerning lookup 15-2" afii57506 dx=-100 dy=0 dh=-100 dv=0 dx=0 dy=0 dh=0 dv=0
PairPos2: "'kern' Horizontal Kerning lookup 15-2" afii57440 dx=-94 dy=0 dh=-94 dv=0 dx=0 dy=0 dh=0 dv=0
Substitution2: "'fina' Terminal Forms in Arabic lookup 9 subtable" uniFEAE
EndChar

StartChar: uni0633
Encoding: 1587 1587 27
Width: 2484
VWidth: 2586
GlyphClass: 2
Flags: W
AnchorPoint: "Anchor-7" 691 -632.5 basechar 0
AnchorPoint: "Anchor-10" 1778.4 1098.57 basechar 0
LayerCount: 2
Fore
SplineSet
1533.20996094 -1.06640625 m 0,0,1
 1435.17285156 -0.07421875 1435.17285156 -0.07421875 1361.66015625 46.2421875 c 1,2,3
 1350.00878906 -200.134765625 1350.00878906 -200.134765625 1193.58398438 -325.538085938 c 128,-1,4
 1037.15917969 -450.940429688 1037.15917969 -450.940429688 748.819335938 -450.940429688 c 2,5,-1
 694.10546875 -450.940429688 l 2,6,7
 257.08203125 -450.984375 257.08203125 -450.984375 123.282226562 -154.694335938 c 0,8,9
 68.37109375 -31.935546875 68.37109375 -31.935546875 68.12109375 136.264648438 c 2,10,-1
 68.0009765625 476.987304688 l 1,11,-1
 67.98828125 511.993164062 l 1,12,-1
 102.994140625 512 l 1,13,-1
 279.87109375 512.033203125 l 1,14,-1
 314.877929688 512.040039062 l 1,15,-1
 314.877929688 477.033203125 l 1,16,-1
 314.877929688 137.459960938 l 2,17,18
 314.934570312 -34.8984375 314.934570312 -34.8984375 407.095703125 -117.26953125 c 128,-1,19
 499.255859375 -199.639648438 499.255859375 -199.639648438 696.272460938 -199.639648438 c 2,20,-1
 747.4140625 -199.639648438 l 2,21,22
 946.309570312 -199.8125 946.309570312 -199.8125 1037.77832031 -130.380859375 c 128,-1,23
 1129.24609375 -60.9482421875 1129.24609375 -60.9482421875 1129.16210938 81.5380859375 c 2,24,-1
 1128.81542969 665.798828125 l 1,25,-1
 1128.79492188 700.801757812 l 1,26,-1
 1163.79785156 700.819335938 l 1,27,-1
 1340.25 700.91015625 l 1,28,-1
 1375.26757812 700.927734375 l 1,29,-1
 1375.26757812 665.91015625 l 1,30,-1
 1375.26757812 432.276367188 l 2,31,32
 1375.14648438 334.64453125 1375.14648438 334.64453125 1412.78320312 292.01953125 c 128,-1,33
 1450.41992188 249.39453125 1450.41992188 249.39453125 1533.16601562 248.932617188 c 0,34,35
 1580.37011719 248.668945312 1580.37011719 248.668945312 1609.36328125 263.881835938 c 128,-1,36
 1638.35546875 279.09375 1638.35546875 279.09375 1652.90429688 313.924804688 c 128,-1,37
 1667.453125 348.755859375 1667.453125 348.755859375 1667.61328125 406.765625 c 2,38,-1
 1668.33398438 667.717773438 l 1,39,-1
 1668.43066406 702.62109375 l 1,40,-1
 1703.33398438 702.62109375 l 1,41,-1
 1878.46777344 702.62109375 l 1,42,-1
 1913.28710938 702.62109375 l 1,43,-1
 1913.46777344 667.802734375 l 1,44,-1
 1914.80859375 408.805664062 l 2,45,46
 1915.34179688 323.173828125 1915.34179688 323.173828125 1948.64648438 286.28125 c 128,-1,47
 1981.95117188 249.388671875 1981.95117188 249.388671875 2055.65625 248.932617188 c 0,48,49
 2085.74707031 248.752929688 2085.74707031 248.752929688 2106.89160156 256.579101562 c 128,-1,50
 2128.03515625 264.404296875 2128.03515625 264.404296875 2142.93359375 282.513671875 c 128,-1,51
 2157.83203125 300.623046875 2157.83203125 300.623046875 2164.890625 330.806640625 c 128,-1,52
 2171.94824219 360.990234375 2171.94824219 360.990234375 2171.94824219 404.92578125 c 2,53,-1
 2171.94824219 701.295898438 l 1,54,-1
 2171.94824219 736.295898438 l 1,55,-1
 2206.94824219 736.295898438 l 1,56,-1
 2381.70605469 736.295898438 l 1,57,-1
 2416.70605469 736.295898438 l 1,58,-1
 2416.70605469 701.295898438 l 1,59,-1
 2416.70605469 396.989257812 l 2,60,61
 2416.86132812 204.34375 2416.86132812 204.34375 2324.8671875 101.65625 c 128,-1,62
 2232.87304688 -1.0302734375 2232.87304688 -1.0302734375 2056.41113281 -1.06640625 c 0,63,64
 1886.86230469 -1.0048828125 1886.86230469 -1.0048828125 1799.48828125 110.583007812 c 1,65,66
 1782.07324219 87.8173828125 1782.07324219 87.8173828125 1760.45800781 69.64453125 c 128,-1,67
 1738.84375 51.470703125 1738.84375 51.470703125 1713.86328125 38.2529296875 c 128,-1,68
 1688.8828125 25.03515625 1688.8828125 25.03515625 1660.12402344 16.2431640625 c 128,-1,69
 1631.36621094 7.4501953125 1631.36621094 7.4501953125 1599.765625 3.1923828125 c 128,-1,70
 1568.16601562 -1.06640625 1568.16601562 -1.06640625 1533.20996094 -1.06640625 c 0,0,1
EndSplineSet
Substitution2: "'fina' Terminal Forms in Arabic lookup 9 subtable" uniFEB2
Substitution2: "'medi' Medial Forms in Arabic lookup 11 subtable" uniFEB4
Substitution2: "'init' Initial Forms in Arabic lookup 13 subtable" uniFEB3
EndChar

StartChar: uni0635
Encoding: 1589 1589 29
Width: 2515
VWidth: 2586
GlyphClass: 2
Flags: W
AnchorPoint: "Anchor-10" 2006.4 1302.57 basechar 0
AnchorPoint: "Anchor-7" 691 -632.5 basechar 0
LayerCount: 2
Fore
SplineSet
1375.26757812 452.294921875 m 2,0,1
 1375.26757812 325.58203125 1375.26757812 325.58203125 1420.796875 288.645507812 c 1,2,3
 1656.88769531 845 1656.88769531 845 2017.5 845 c 0,4,5
 2240.45703125 845 2240.45703125 845 2357.30859375 689.829101562 c 0,6,7
 2448.03320312 570.772460938 2448.03320312 570.772460938 2447.5625 402.340820312 c 0,8,9
 2446.9453125 207.83203125 2446.9453125 207.83203125 2300.234375 93.8037109375 c 0,10,11
 2238.71191406 46.21875 2238.71191406 46.21875 2153.83105469 23.109375 c 128,-1,12
 2068.95019531 0 2068.95019531 0 1961.26464844 0 c 2,13,-1
 1621.32421875 0 l 2,14,15
 1448.00976562 0 1448.00976562 0 1361.68457031 46.765625 c 1,16,17
 1354.11328125 -117.494140625 1354.11328125 -117.494140625 1281.06347656 -228.83984375 c 128,-1,18
 1208.01367188 -340.185546875 1208.01367188 -340.185546875 1074.22363281 -395.5625 c 128,-1,19
 940.432617188 -450.940429688 940.432617188 -450.940429688 748.819335938 -450.940429688 c 2,20,-1
 694.10546875 -450.940429688 l 2,21,22
 257.08203125 -450.984375 257.08203125 -450.984375 123.28125 -154.694335938 c 0,23,24
 68.3701171875 -31.935546875 68.3701171875 -31.935546875 68.12109375 136.264648438 c 2,25,-1
 68.0009765625 476.987304688 l 1,26,-1
 67.98828125 511.993164062 l 1,27,-1
 102.994140625 512 l 1,28,-1
 279.87109375 512.033203125 l 1,29,-1
 314.877929688 512.040039062 l 1,30,-1
 314.877929688 477.033203125 l 1,31,-1
 314.877929688 137.459960938 l 2,32,33
 314.916015625 22.3837890625 314.916015625 22.3837890625 355.224609375 -51.767578125 c 128,-1,34
 395.533203125 -125.918945312 395.533203125 -125.918945312 479.909179688 -162.779296875 c 128,-1,35
 564.28515625 -199.639648438 564.28515625 -199.639648438 696.272460938 -199.639648438 c 2,36,-1
 747.4140625 -199.639648438 l 2,37,38
 946.309570312 -199.811523438 946.309570312 -199.811523438 1037.77832031 -130.379882812 c 128,-1,39
 1129.24707031 -60.9482421875 1129.24707031 -60.9482421875 1129.16210938 81.5380859375 c 2,40,-1
 1128.81542969 665.798828125 l 1,41,-1
 1128.79492188 700.801757812 l 1,42,-1
 1163.79785156 700.819335938 l 1,43,-1
 1340.25 700.91015625 l 1,44,-1
 1375.26757812 700.927734375 l 1,45,-1
 1375.26757812 665.91015625 l 1,46,-1
 1375.26757812 452.294921875 l 2,0,1
2192.38085938 449.499023438 m 0,47,48
 2183.46386719 486.918945312 2183.46386719 486.918945312 2168.36230469 513.624023438 c 128,-1,49
 2153.26171875 540.329101562 2153.26171875 540.329101562 2130.51367188 557.8828125 c 128,-1,50
 2107.76660156 575.435546875 2107.76660156 575.435546875 2077.37597656 583.72265625 c 128,-1,51
 2046.984375 592.010742188 2046.984375 592.010742188 2007.12304688 592.013671875 c 0,52,53
 1927.99707031 592.008789062 1927.99707031 592.008789062 1843.43652344 507.959960938 c 128,-1,54
 1758.875 423.911132812 1758.875 423.911132812 1674.89257812 250.52734375 c 1,55,-1
 1981.2109375 250.52734375 l 2,56,57
 2115.77636719 250.966796875 2115.77636719 250.966796875 2165.11035156 294.6953125 c 0,58,59
 2198 323.84765625 2198 323.84765625 2198 382 c 0,60,61
 2198 422.950195312 2198 422.950195312 2192.38085938 449.499023438 c 0,47,48
EndSplineSet
Substitution2: "'fina' Terminal Forms in Arabic lookup 9 subtable" uniFEBA
Substitution2: "'medi' Medial Forms in Arabic lookup 11 subtable" uniFEBC
Substitution2: "'init' Initial Forms in Arabic lookup 13 subtable" uniFEBB
EndChar

StartChar: uni0637
Encoding: 1591 1591 31
Width: 1369
VWidth: 2586
GlyphClass: 2
Flags: W
AnchorPoint: "Anchor-7" 609.72 -203 basechar 0
AnchorPoint: "Anchor-10" 471.723 1459.59 basechar 0
LayerCount: 2
Fore
SplineSet
814.940429688 0 m 2,0,-1
 103.770507812 0 l 1,1,-1
 68.7705078125 0 l 1,2,-1
 68.7705078125 35 l 1,3,-1
 68.7705078125 215.198242188 l 1,4,-1
 68.7705078125 250.237304688 l 1,5,-1
 103.809570312 250.198242188 l 1,6,-1
 260.740234375 250.024414062 l 1,7,8
 269 269 269 269 282.424804688 296.342773438 c 0,9,10
 296 324 296 324 314.565429688 360.235351562 c 0,11,12
 333 396 333 396 357.905273438 443.301757812 c 1,13,-1
 357.905273438 1299.64355469 l 1,14,-1
 357.905273438 1334.61621094 l 1,15,-1
 391.932617188 1334.64257812 l 1,16,-1
 392.905273438 1334.64355469 l 1,17,-1
 559 1334.64355469 l 1,18,-1
 594 1334.64355469 l 1,19,-1
 594 1299.64355469 l 1,20,-1
 594 739.336914062 l 1,21,22
 727 845 727 845 872.17578125 845 c 0,23,24
 980 845 980 845 1065.12988281 806.103515625 c 0,25,26
 1151 767 1151 767 1210.71386719 690.1796875 c 0,27,28
 1256 632 1256 632 1278.52148438 559.66796875 c 0,29,30
 1301 487 1301 487 1301.23828125 402.549804688 c 0,31,32
 1302 208 1302 208 1153.74121094 93.673828125 c 0,33,34
 1031 0 1031 0 814.940429688 0 c 2,0,-1
860.796875 592.013671875 m 0,35,36
 821.698242188 592.013671875 821.698242188 592.013671875 781.515625 571.98046875 c 128,-1,37
 741.333007812 551.947265625 741.333007812 551.947265625 699.458007812 511.041015625 c 128,-1,38
 657.583007812 470.135742188 657.583007812 470.135742188 614.198242188 404.3515625 c 128,-1,39
 570.813476562 338.56640625 570.813476562 338.56640625 528.419921875 250.52734375 c 1,40,-1
 834.88671875 250.52734375 l 2,41,42
 971.176757812 250.96875 971.176757812 250.96875 1018.31933594 294.2734375 c 0,43,44
 1050.34667969 323.693359375 1050.34667969 323.693359375 1051.67871094 382.51953125 c 0,45,46
 1051.77636719 396.095703125 1051.77636719 396.095703125 1051.11425781 408.577148438 c 128,-1,47
 1050.45214844 421.05859375 1050.45214844 421.05859375 1049.18066406 431.1953125 c 128,-1,48
 1047.91015625 441.333007812 1047.91015625 441.333007812 1046.08984375 449.354492188 c 0,49,50
 1034.52246094 498.94140625 1034.52246094 498.94140625 1011.30566406 530.244140625 c 128,-1,51
 988.08984375 561.546875 988.08984375 561.546875 951.067382812 576.780273438 c 128,-1,52
 914.043945312 592.013671875 914.043945312 592.013671875 860.796875 592.013671875 c 0,35,36
EndSplineSet
Substitution2: "'fina' Terminal Forms in Arabic lookup 9 subtable" uniFEC2
Substitution2: "'medi' Medial Forms in Arabic lookup 11 subtable" uniFEC4
Substitution2: "'init' Initial Forms in Arabic lookup 13 subtable" uniFEC3
EndChar

StartChar: uni0639
Encoding: 1593 1593 33
Width: 1249
VWidth: 2586
GlyphClass: 2
Flags: W
AnchorPoint: "Anchor-7" 471.334 -800.653 basechar 0
AnchorPoint: "Anchor-10" 711.349 1386.99 basechar 0
LayerCount: 2
Fore
SplineSet
67.1123046875 -142.198242188 m 0,0,1
 69.5361328125 33.5615234375 69.5361328125 33.5615234375 163.385742188 160.512695312 c 128,-1,2
 257.235351562 287.463867188 257.235351562 287.463867188 436.84375 361.102539062 c 1,3,4
 333.001953125 471.75390625 333.001953125 471.75390625 333.03125 607.999023438 c 0,5,6
 333.2890625 653.999023438 333.2890625 653.999023438 340.848632812 696.3828125 c 128,-1,7
 348.408203125 738.765625 348.408203125 738.765625 363.227539062 777.333984375 c 128,-1,8
 378.047851562 815.90234375 378.047851562 815.90234375 400.306640625 850.55078125 c 128,-1,9
 422.56640625 885.19921875 422.56640625 885.19921875 452.02734375 915.392578125 c 0,10,11
 572.141601562 1038.00976562 572.141601562 1038.00976562 762.987304688 1037.86621094 c 0,12,13
 863.153320312 1037.9375 863.153320312 1037.9375 947.352539062 996.874023438 c 128,-1,14
 1031.55175781 955.810546875 1031.55175781 955.810546875 1096.49804688 875.493164062 c 2,15,-1
 1111.22949219 857.275390625 l 1,16,-1
 1100.00097656 836.712890625 l 1,17,-1
 1027.58691406 704.094726562 l 1,18,-1
 1005.55273438 663.741210938 l 1,19,-1
 972.521484375 695.723632812 l 2,20,21
 881.416992188 783.9375 881.416992188 783.9375 767.422851562 783.451171875 c 0,22,23
 664.565429688 783.0625 664.565429688 783.0625 609.458984375 709.451171875 c 0,24,25
 578.884765625 667.991210938 578.884765625 667.991210938 578.263671875 609.510742188 c 0,26,27
 578.048828125 513.459960938 578.048828125 513.459960938 708.21484375 436.49609375 c 1,28,29
 761.7890625 440.305664062 761.7890625 440.305664062 819.970703125 442.201171875 c 128,-1,30
 878.151367188 444.09765625 878.151367188 444.09765625 941.16015625 444.096679688 c 2,31,-1
 1108.6796875 444.092773438 l 1,32,-1
 1143.67871094 444.091796875 l 1,33,-1
 1143.67871094 409.092773438 l 1,34,-1
 1143.67871094 227.700195312 l 1,35,-1
 1143.67871094 192.720703125 l 1,36,-1
 1108.69921875 192.700195312 l 1,37,-1
 925.030273438 192.591796875 l 2,38,39
 606.36328125 192.301757812 606.36328125 192.301757812 457.146484375 106.930664062 c 128,-1,40
 307.928710938 21.55859375 307.928710938 21.55859375 308.6875 -144.647460938 c 0,41,42
 309.276367188 -296.55078125 309.276367188 -296.55078125 428.690429688 -372.956054688 c 128,-1,43
 548.104492188 -449.362304688 548.104492188 -449.362304688 804.452148438 -449.172851562 c 2,44,-1
 1146.3046875 -448.920898438 l 1,45,-1
 1181.33007812 -448.895507812 l 1,46,-1
 1181.33007812 -483.920898438 l 1,47,-1
 1181.33007812 -660.469726562 l 1,48,-1
 1181.33007812 -695.557617188 l 1,49,-1
 1146.2421875 -695.469726562 l 1,50,-1
 792.380859375 -694.58203125 l 2,51,52
 388.724609375 -693.98046875 388.724609375 -693.98046875 218.193359375 -530.631835938 c 0,53,54
 63.8056640625 -381.83984375 63.8056640625 -381.83984375 67.1123046875 -142.198242188 c 0,0,1
EndSplineSet
Substitution2: "'fina' Terminal Forms in Arabic lookup 9 subtable" uniFECA
Substitution2: "'medi' Medial Forms in Arabic lookup 11 subtable" uniFECC
Substitution2: "'init' Initial Forms in Arabic lookup 13 subtable" uniFECB
EndChar

StartChar: afii57440
Encoding: 1600 1600 35
Width: 250
VWidth: 2586
GlyphClass: 2
Flags: W
AnchorPoint: "Anchor-10" 125.758 1536.26 basechar 0
AnchorPoint: "Anchor-7" 129.758 -137.351 basechar 0
LayerCount: 2
Fore
SplineSet
254.9765625 250 m 2,0,1
 275.626953125 250 275.626953125 250 288.581054688 239.724609375 c 128,-1,2
 301.536132812 229.44921875 301.536132812 229.44921875 306.26171875 209.116210938 c 128,-1,3
 310.987304688 188.784179688 310.987304688 188.784179688 312.052734375 175.260742188 c 128,-1,4
 313.119140625 161.737304688 313.119140625 161.737304688 313.001953125 139.061523438 c 0,5,6
 312.9765625 134.249023438 312.9765625 134.249023438 312.9765625 132 c 2,7,-1
 312.9765625 121.0078125 l 2,8,9
 312.977539062 118.409179688 312.977539062 118.409179688 313.014648438 112.823242188 c 0,10,11
 313.115234375 97.6240234375 313.115234375 97.6240234375 312.84375 88.9501953125 c 128,-1,12
 312.571289062 80.27734375 312.571289062 80.27734375 311.21484375 64.703125 c 128,-1,13
 309.857421875 49.12890625 309.857421875 49.12890625 306.094726562 39.689453125 c 128,-1,14
 302.331054688 30.2509765625 302.331054688 30.2509765625 296.270507812 20.0322265625 c 128,-1,15
 290.208984375 9.8134765625 290.208984375 9.8134765625 279.653320312 4.9072265625 c 128,-1,16
 269.09765625 0 269.09765625 0 254.9765625 0 c 2,17,-1
 -5.0234375 0 l 2,18,19
 -50.1103515625 0 -50.1103515625 0 -71.5673828125 34.908203125 c 128,-1,20
 -93.0234375 69.81640625 -93.0234375 69.81640625 -93.0234375 121 c 2,21,-1
 -93.0234375 132.008789062 l 2,22,23
 -93.009765625 181.875976562 -93.009765625 181.875976562 -71.3134765625 215.938476562 c 128,-1,24
 -49.6181640625 250 -49.6181640625 250 -5.0234375 250 c 2,25,-1
 254.9765625 250 l 2,0,1
EndSplineSet
EndChar

StartChar: uni0643
Encoding: 1603 1603 38
Width: 1889
VWidth: 2586
GlyphClass: 2
Flags: W
AnchorPoint: "Anchor-7" 849.692 -197.794 basechar 0
AnchorPoint: "Anchor-10" 927.382 1442.15 basechar 0
LayerCount: 2
Fore
SplineSet
707.640625 739.384765625 m 6,0,1
 770.272460938 731.491210938 770.272460938 731.491210938 832.82421875 731.491210938 c 4,2,3
 839.3828125 731.491210938 839.3828125 731.491210938 845.830078125 731.734375 c 132,-1,4
 852.276367188 731.978515625 852.276367188 731.978515625 858.576171875 732.461914062 c 132,-1,5
 864.876953125 732.944335938 864.876953125 732.944335938 871.069335938 733.668945312 c 4,6,7
 889.553710938 735.829101562 889.553710938 735.829101562 907.091796875 740.139648438 c 132,-1,8
 924.544921875 744.4296875 924.544921875 744.4296875 941.073242188 750.853515625 c 4,9,10
 976.984375 764.810546875 976.984375 764.810546875 990.522460938 778.614257812 c 132,-1,11
 1004.05957031 792.41796875 1004.05957031 792.41796875 1004.05957031 804.939453125 c 4,12,13
 1004.05957031 814.275390625 1004.05957031 814.275390625 995.034179688 820.884765625 c 4,14,15
 978.524414062 832.973632812 978.524414062 832.973632812 941.018554688 838.907226562 c 4,16,17
 837.095703125 855.349609375 837.095703125 855.349609375 793.008789062 913.013671875 c 4,18,19
 727.860351562 998.21875 727.860351562 998.21875 757.545898438 1091.52050781 c 4,20,21
 771.31640625 1134.80371094 771.31640625 1134.80371094 801.1953125 1168.95605469 c 132,-1,22
 831.075195312 1203.10742188 831.075195312 1203.10742188 874.94140625 1226.75585938 c 4,23,24
 917.734375 1249.82519531 917.734375 1249.82519531 973.3125 1263.50390625 c 132,-1,25
 1028.88964844 1277.18359375 1028.88964844 1277.18359375 1098.00097656 1282.3203125 c 6,26,-1
 1125.12207031 1284.33496094 l 5,27,-1
 1162.71484375 1287.12695312 l 5,28,-1
 1162.71484375 1249.43066406 l 5,29,-1
 1162.71484375 1153.00195312 l 5,30,-1
 1162.71484375 1120.73339844 l 5,31,-1
 1130.55273438 1118.1171875 l 5,32,-1
 1107.35058594 1116.22949219 l 6,33,34
 1005.93066406 1107.97949219 1005.93066406 1107.97949219 957.498046875 1082.71386719 c 4,35,36
 936.897460938 1071.96679688 936.897460938 1071.96679688 929.245117188 1061.13769531 c 132,-1,37
 921.592773438 1050.30957031 921.592773438 1050.30957031 921.592773438 1036.37695312 c 4,38,39
 921.592773438 1022.68945312 921.592773438 1022.68945312 927.590820312 1015.32714844 c 132,-1,40
 933.587890625 1007.96484375 933.587890625 1007.96484375 952.638671875 1001.83496094 c 4,41,42
 964.607421875 997.984375 964.607421875 997.984375 983.41796875 994.05859375 c 132,-1,43
 1002.22851562 990.133789062 1002.22851562 990.133789062 1026.58203125 986.551757812 c 4,44,45
 1041.73046875 984.323242188 1041.73046875 984.323242188 1055.69140625 980.21484375 c 4,46,47
 1069.90722656 976.03125 1069.90722656 976.03125 1082.86425781 969.907226562 c 4,48,49
 1087.21386719 967.850585938 1087.21386719 967.850585938 1091.42382812 965.576171875 c 132,-1,50
 1095.63378906 963.30078125 1095.63378906 963.30078125 1099.71386719 960.798828125 c 132,-1,51
 1103.79394531 958.296875 1103.79394531 958.296875 1107.71582031 955.583007812 c 4,52,53
 1113.59667969 951.513671875 1113.59667969 951.513671875 1119.13964844 946.958007812 c 132,-1,54
 1124.68261719 942.401367188 1124.68261719 942.401367188 1129.85742188 937.388671875 c 4,55,56
 1151.8359375 916.098632812 1151.8359375 916.098632812 1162.72265625 887.055664062 c 132,-1,57
 1173.609375 858.013671875 1173.609375 858.013671875 1173.609375 823.932617188 c 4,58,59
 1173.609375 757.315429688 1173.609375 757.315429688 1145.23828125 712.239257812 c 4,60,61
 1020.97363281 514.815429688 1020.97363281 514.815429688 690.798828125 566.420898438 c 6,62,-1
 669.44921875 569.759765625 l 5,63,-1
 639.857421875 574.387695312 l 5,64,-1
 639.857421875 604.33984375 l 5,65,-1
 639.857421875 708.239257812 l 5,66,-1
 639.857421875 747.926757812 l 5,67,-1
 679.233398438 742.96484375 l 5,68,-1
 707.640625 739.384765625 l 6,0,1
537.549804688 250 m 2,69,-1
 1351.84960938 250 l 2,70,71
 1451 250 1451 250 1497.84960938 304.88671875 c 0,72,73
 1544.41601562 360.496810229 1544.41601562 360.496810229 1544.41601562 483.396484375 c 2,74,-1
 1544.41601562 1298.18847656 l 5,75,-1
 1544.41601562 1333.19433594 l 5,76,-1
 1579.41601562 1333.18847656 l 5,77,-1
 1746.17382812 1333.18847656 l 5,78,-1
 1781.17382812 1333.18847656 l 5,79,-1
 1781.17382812 1298.18847656 l 5,80,-1
 1781.17382812 480.37890625 l 2,81,82
 1781 247 1781 247 1670.52246094 123.265625 c 0,83,84
 1560 0 1560 0 1346.62988281 0 c 2,85,-1
 534.767578125 0 l 2,86,87
 306 0 306 0 186.568359375 121.850585938 c 128,-1,88
 67.22861666 243.76644832 67.22861666 243.76644832 67.2275390625 476.629882812 c 2,89,-1
 67.2265625 687.66015625 l 1,90,-1
 67.2265625 722.66015625 l 1,91,-1
 102.2265625 722.66015625 l 1,92,-1
 276.984375 722.66015625 l 1,93,-1
 311.984375 722.66015625 l 1,94,-1
 311.984375 687.66015625 l 1,95,-1
 311.984375 477.54296875 l 2,96,97
 312 359 312 359 365.852539062 304.267578125 c 0,98,99
 420 250 420 250 537.549804688 250 c 2,69,-1
EndSplineSet
Substitution2: "'fina' Terminal Forms in Arabic lookup 9 subtable" uniFEDA
Substitution2: "'medi' Medial Forms in Arabic lookup 11 subtable" uniFEDC
Substitution2: "'init' Initial Forms in Arabic lookup 13 subtable" uniFEDB
EndChar

StartChar: uni0644
Encoding: 1604 1604 39
Width: 1337
VWidth: 2586
GlyphClass: 2
Flags: W
AnchorPoint: "Anchor-10" 604.754 1154.62 basechar 0
AnchorPoint: "Anchor-7" 691 -632.5 basechar 0
LayerCount: 2
Fore
SplineSet
312.877929688 137.44921875 m 2,0,1
 312.877929688 -33.8768980906 312.877929688 -33.8768980906 393.197265625 -114.875 c 0,2,3
 473.523926826 -195.522028103 473.523926826 -195.522028103 644.357421875 -195.528320312 c 2,4,-1
 697.384765625 -195.530273438 l 2,5,6
 800 -196 800 -196 864.954101562 -162.234375 c 0,7,8
 930 -129 930 -129 962.311523438 -58.7978515625 c 0,9,10
 994.364142285 11.802069137 994.364142285 11.802069137 994.365234375 121.416015625 c 2,11,-1
 994.376953125 1297.63671875 l 1,12,-1
 994.376953125 1332.63671875 l 1,13,-1
 1029.37695312 1332.63671875 l 1,14,-1
 1194.296875 1332.63671875 l 1,15,-1
 1229.32617188 1332.63671875 l 5,16,-1
 1229.296875 1297.60742188 l 1,17,-1
 1228.25488281 116.969726562 l 2,18,19
 1228 -159 1228 -159 1091.390625 -303.021484375 c 0,20,21
 955.160966729 -446.830078125 955.160966729 -446.830078125 690.430664062 -446.830078125 c 2,22,-1
 644.196289062 -446.830078125 l 2,23,24
 245 -447 245 -447 120.721679688 -156.69921875 c 0,25,26
 68.1809153674 -33.4244760361 68.1809153674 -33.4244760361 68.12109375 136.264648438 c 2,27,-1
 68.0009765625 476.987304688 l 1,28,-1
 67.98828125 511.993164062 l 1,29,-1
 102.994140625 512 l 1,30,-1
 277.87109375 512.033203125 l 1,31,-1
 312.877929688 512.040039062 l 1,32,-1
 312.877929688 477.033203125 l 1,33,-1
 312.877929688 137.44921875 l 2,0,1
EndSplineSet
Substitution2: "'fina' Terminal Forms in Arabic lookup 9 subtable" uniFEDE
Substitution2: "'medi' Medial Forms in Arabic lookup 11 subtable" uniFEE0
Substitution2: "'init' Initial Forms in Arabic lookup 13 subtable" uniFEDF
EndChar

StartChar: uni0645
Encoding: 1605 1605 40
Width: 1310
VWidth: 2586
GlyphClass: 2
Flags: W
AnchorPoint: "Anchor-10" 675.565 1183.03 basechar 0
AnchorPoint: "Anchor-7" 722.389 -290.648 basechar 0
LayerCount: 2
Fore
SplineSet
842.795898438 569.490234375 m 2,0,-1
 718.830078125 569.490234375 l 1,1,-1
 718.830078125 403.140625 l 2,2,3
 718.908203125 298.706054688 718.908203125 298.706054688 755.15234375 253.821289062 c 128,-1,4
 791.396484375 208.936523438 791.396484375 208.936523438 868.740234375 208.890625 c 0,5,6
 935.537109375 208.934570312 935.537109375 208.934570312 967.813476562 253.333984375 c 128,-1,7
 1000.08984375 297.732421875 1000.08984375 297.732421875 1000.08984375 403 c 2,8,-1
 1000.08984375 444.803710938 l 2,9,10
 1000.05273438 509.780273438 1000.05273438 509.780273438 964.286132812 539.525390625 c 128,-1,11
 928.51953125 569.26953125 928.51953125 569.26953125 842.795898438 569.490234375 c 2,0,-1
858.189453125 810.5390625 m 2,12,13
 982.013671875 810.5390625 982.013671875 810.5390625 1067.92871094 769.081054688 c 128,-1,14
 1153.84375 727.624023438 1153.84375 727.624023438 1198.30664062 645.967773438 c 128,-1,15
 1242.76953125 564.310546875 1242.76953125 564.310546875 1242.76953125 446 c 2,16,-1
 1242.76953125 402.025390625 l 2,17,18
 1242.890625 197.12109375 1242.890625 197.12109375 1147.59472656 88.181640625 c 128,-1,19
 1052.29785156 -20.7578125 1052.29785156 -20.7578125 868.697265625 -20.4755859375 c 0,20,21
 676.526367188 -20.2216796875 676.526367188 -20.2216796875 576.208007812 88.21875 c 128,-1,22
 475.888671875 196.659179688 475.888671875 196.659179688 475.889648438 401.30859375 c 2,23,-1
 475.889648438 547.788085938 l 1,24,25
 402.477539062 528.564453125 402.477539062 528.564453125 361.978515625 460.524414062 c 0,26,27
 308.010742188 369.856445312 308.010742188 369.856445312 308.010742188 194.032226562 c 2,28,-1
 308.010742188 -461.416992188 l 1,29,-1
 308.010742188 -496.416992188 l 1,30,-1
 273.010742188 -496.416992188 l 1,31,-1
 102.94921875 -496.416992188 l 1,32,-1
 67.94921875 -496.416992188 l 1,33,-1
 67.94921875 -461.416992188 l 1,34,-1
 67.94921875 186.616210938 l 1,35,-1
 67.9541015625 192.578125 l 2,36,37
 67.6279296875 392.928710938 67.6279296875 392.928710938 124.872070312 530.415039062 c 128,-1,38
 182.1171875 667.901367188 182.1171875 667.901367188 297.557617188 739.208984375 c 128,-1,39
 412.998046875 810.516601562 412.998046875 810.516601562 583.25390625 810.525390625 c 2,40,-1
 858.189453125 810.5390625 l 2,12,13
EndSplineSet
Substitution2: "'init' Initial Forms in Arabic lookup 13 subtable" uniFEE3
Substitution2: "'medi' Medial Forms in Arabic lookup 11 subtable" uniFEE4
Substitution2: "'fina' Terminal Forms in Arabic lookup 9 subtable" uniFEE2
EndChar

StartChar: uni0647
Encoding: 1607 1607 42
Width: 924
VWidth: 2363
GlyphClass: 2
Flags: W
AnchorPoint: "Anchor-10" 421.833 1174.93 basechar 0
AnchorPoint: "Anchor-7" 439.418 -163.202 basechar 0
LayerCount: 2
Fore
SplineSet
458.221679688 614.328125 m 1,0,1
 418.334960938 578.768554688 418.334960938 578.768554688 388.83984375 544.78515625 c 128,-1,2
 359.344726562 510.802734375 359.344726562 510.802734375 340.977539062 479.611328125 c 128,-1,3
 322.609375 448.419921875 322.609375 448.419921875 313.696289062 419.842773438 c 128,-1,4
 304.784179688 391.265625 304.784179688 391.265625 304.731445312 364.33203125 c 0,5,6
 304.837890625 304.065429688 304.837890625 304.065429688 342.630859375 275.514648438 c 128,-1,7
 380.423828125 246.96484375 380.423828125 246.96484375 471.705078125 246.935546875 c 0,8,9
 554.954101562 246.963867188 554.954101562 246.963867188 589.5234375 275.688476562 c 128,-1,10
 624.092773438 304.413085938 624.092773438 304.413085938 624.15625 367.548828125 c 0,11,12
 624.028320312 474.1640625 624.028320312 474.1640625 458.221679688 614.328125 c 1,0,1
67.951171875 347.150390625 m 0,13,14
 68.0009765625 562.87109375 68.0009765625 562.87109375 289.697265625 776.42578125 c 1,15,-1
 278.401367188 786.869140625 l 1,16,-1
 253.623046875 809.778320312 l 1,17,-1
 275.61328125 835.375976562 l 1,18,-1
 378.9453125 955.65625 l 1,19,-1
 399.833007812 979.96875 l 1,20,-1
 425.884765625 961.295898438 l 2,21,22
 863.033203125 647.951171875 863.033203125 647.951171875 862.499023438 362.017578125 c 0,23,24
 862.229492188 185.08984375 862.229492188 185.08984375 761.048828125 92.7734375 c 128,-1,25
 659.868164062 0.4580078125 659.868164062 0.4580078125 470.047851562 0.9775390625 c 0,26,27
 275.938476562 1.5185546875 275.938476562 1.5185546875 171.958007812 89.611328125 c 128,-1,28
 67.9775390625 177.705078125 67.9775390625 177.705078125 67.951171875 347.150390625 c 0,13,14
EndSplineSet
Substitution2: "'fina' Terminal Forms in Arabic lookup 9 subtable" uniFEEA
Substitution2: "'medi' Medial Forms in Arabic lookup 11 subtable" uniFEEC
Substitution2: "'init' Initial Forms in Arabic lookup 13 subtable" uniFEEB
EndChar

StartChar: uni0648
Encoding: 1608 1608 43
Width: 877
VWidth: 2586
GlyphClass: 2
Flags: W
AnchorPoint: "Anchor-10" 438.019 1094.88 basechar 0
AnchorPoint: "Anchor-7" 367.433 -634.366 basechar 0
LayerCount: 2
Fore
SplineSet
817.66015625 389.920898438 m 2,0,-1
 817.66015625 33.0244140625 l 2,1,2
 817.840820312 -211.362304688 817.840820312 -211.362304688 663.412109375 -335.986328125 c 128,-1,3
 508.982421875 -460.611328125 508.982421875 -460.611328125 214.731445312 -460.412109375 c 2,4,-1
 140.999023438 -460.362304688 l 1,5,-1
 106.041992188 -460.338867188 l 1,6,-1
 106.022460938 -425.381835938 l 1,7,-1
 105.921875 -246.216796875 l 1,8,-1
 105.90234375 -211.162109375 l 1,9,-1
 140.95703125 -211.197265625 l 1,10,-1
 208.943359375 -211.265625 l 2,11,12
 388.682617188 -211.592773438 388.682617188 -211.592773438 476.704101562 -158.268554688 c 128,-1,13
 564.725585938 -104.944335938 564.725585938 -104.944335938 576.135742188 0.1064453125 c 1,14,-1
 451.048828125 0.1064453125 l 2,15,16
 264.390625 0.0498046875 264.390625 0.0498046875 165.944335938 96.6962890625 c 128,-1,17
 67.498046875 193.342773438 67.498046875 193.342773438 68.076171875 376.861328125 c 0,18,19
 69.06640625 574.37890625 69.06640625 574.37890625 164.90234375 682.225585938 c 0,20,21
 215.971679688 737.063476562 215.971679688 737.063476562 287.331054688 764.892578125 c 128,-1,22
 358.690429688 792.721679688 358.690429688 792.721679688 449.166992188 794.588867188 c 0,23,24
 613.180664062 795.0390625 613.180664062 795.0390625 712.15234375 698.7109375 c 0,25,26
 818.026367188 596.872070312 818.026367188 596.872070312 817.66015625 389.920898438 c 2,0,-1
304.859375 378.229492188 m 0,27,28
 304.918945312 310.767578125 304.918945312 310.767578125 338.068359375 280.900390625 c 128,-1,29
 371.216796875 251.034179688 371.216796875 251.034179688 450.013671875 251 c 2,30,-1
 578.620117188 250.9453125 l 1,31,-1
 578.258789062 383.932617188 l 2,32,33
 578.140625 476.221679688 578.140625 476.221679688 546.350585938 514.927734375 c 128,-1,34
 514.559570312 553.634765625 514.559570312 553.634765625 445.711914062 553.374023438 c 0,35,36
 372.354492188 553.215820312 372.354492188 553.215820312 338.638671875 512.94140625 c 128,-1,37
 304.922851562 472.666992188 304.922851562 472.666992188 304.859375 378.229492188 c 0,27,28
EndSplineSet
Substitution2: "'fina' Terminal Forms in Arabic lookup 9 subtable" uniFEEE
EndChar

StartChar: uni0649
Encoding: 1609 1609 44
Width: 1446
VWidth: 2586
GlyphClass: 2
Flags: W
AnchorPoint: "Anchor-7" 641 -632.5 basechar 0
AnchorPoint: "Anchor-10" 604 1254.43 basechar 0
LayerCount: 2
Fore
SplineSet
1060.77441406 299.370117188 m 2,0,1
 1211.75585938 299.370117188 1211.75585938 299.370117188 1294.94238281 234.587890625 c 128,-1,2
 1378.12792969 169.8046875 1378.12792969 169.8046875 1378.12792969 44.36328125 c 2,3,-1
 1378.12792969 15.0126953125 l 2,4,5
 1378.05957031 -215.458984375 1378.05957031 -215.458984375 1223.41015625 -332.370117188 c 128,-1,6
 1068.75976562 -449.280273438 1068.75976562 -449.280273438 775.421875 -449.280273438 c 2,7,-1
 690.92578125 -449.280273438 l 2,8,9
 385.1171875 -449.134765625 385.1171875 -449.134765625 226.286132812 -299.854492188 c 128,-1,10
 67.455078125 -150.57421875 67.455078125 -150.57421875 67.267578125 139.01171875 c 2,11,-1
 67.0009765625 549.977539062 l 1,12,-1
 66.978515625 585 l 1,13,-1
 102.000976562 585 l 1,14,-1
 277.022460938 585 l 1,15,-1
 312.022460938 585 l 1,16,-1
 312.022460938 550 l 1,17,-1
 312.022460938 140.204101562 l 2,18,19
 312.01171875 -32.7412109375 312.01171875 -32.7412109375 404.112304688 -115.360351562 c 128,-1,20
 496.212890625 -197.98046875 496.212890625 -197.98046875 693.11328125 -197.98046875 c 2,21,-1
 784.022460938 -197.98046875 l 2,22,23
 969.348632812 -197.990234375 969.348632812 -197.990234375 1052.53320312 -148.370117188 c 128,-1,24
 1135.71875 -98.75 1135.71875 -98.75 1135.71875 -2.583984375 c 2,25,-1
 1135.71875 9.20703125 l 2,26,27
 1135.8046875 33.208984375 1135.8046875 33.208984375 1121.109375 43.974609375 c 128,-1,28
 1106.4140625 54.740234375 1106.4140625 54.740234375 1060.29003906 54.740234375 c 2,29,-1
 898.953125 54.7412109375 l 2,30,31
 801.421875 54.88671875 801.421875 54.88671875 747.09375 107.185546875 c 128,-1,32
 692.765625 159.484375 692.765625 159.484375 692.765625 254.583007812 c 2,33,-1
 692.765625 320.39453125 l 2,34,35
 692.806640625 402.013671875 692.806640625 402.013671875 704.978515625 470.5 c 128,-1,36
 717.150390625 538.987304688 717.150390625 538.987304688 742.653320312 596.193359375 c 128,-1,37
 768.155273438 653.400390625 768.155273438 653.400390625 806.881835938 696.684570312 c 0,38,39
 922.392578125 825.788085938 922.392578125 825.788085938 1148.51660156 825.901367188 c 2,40,-1
 1342.9921875 825.999023438 l 1,41,-1
 1377.84570312 826.016601562 l 1,42,-1
 1378.00976562 791.1640625 l 1,43,-1
 1378.88183594 605.76953125 l 1,44,-1
 1379.046875 570.604492188 l 1,45,-1
 1343.88183594 570.604492188 l 1,46,-1
 1107.25097656 570.604492188 l 2,47,48
 1023.92773438 570.771484375 1023.92773438 570.771484375 981.995117188 513.784179688 c 128,-1,49
 940.0625 456.796875 940.0625 456.796875 937.515625 326.359375 c 2,50,-1
 936.989257812 299.370117188 l 1,51,-1
 1060.77441406 299.370117188 l 2,0,1
EndSplineSet
Substitution2: "'fina' Terminal Forms in Arabic lookup 9 subtable" uniFEF0
Substitution2: "'medi' Medial Forms in Arabic lookup 11 subtable" uniFBE9
Substitution2: "'init' Initial Forms in Arabic lookup 13 subtable" uniFBE8
EndChar

StartChar: uni064B
Encoding: 1611 1611 46
Width: 0
VWidth: 2184
GlyphClass: 4
Flags: W
AnchorPoint: "Anchor-10" 544.872 1088.61 mark 0
AnchorPoint: "Anchor-9" 544.872 1088.61 mark 0
AnchorPoint: "Anchor-1" 544.872 1516.61 basemark 0
AnchorPoint: "Anchor-1" 544.872 1088.61 mark 0
LayerCount: 2
Fore
SplineSet
327.400390625 1049.80664062 m 1,0,-1
 327.400390625 1151.46289062 l 1,1,-1
 327.400390625 1156.83496094 l 1,2,-1
 332.372070312 1158.86816406 l 1,3,-1
 727.571289062 1320.46875 l 1,4,-1
 738.599609375 1324.97753906 l 1,5,-1
 738.599609375 1313.06347656 l 1,6,-1
 738.599609375 1211.40722656 l 1,7,-1
 738.599609375 1206.03515625 l 1,8,-1
 733.627929688 1204.00195312 l 1,9,-1
 338.428710938 1042.40136719 l 1,10,-1
 327.400390625 1037.89257812 l 1,11,-1
 327.400390625 1049.80664062 l 1,0,-1
327.400390625 1257.00683594 m 1,12,-1
 327.400390625 1358.66308594 l 1,13,-1
 327.400390625 1364.03515625 l 1,14,-1
 332.372070312 1366.06835938 l 1,15,-1
 727.571289062 1527.66894531 l 1,16,-1
 738.599609375 1532.17773438 l 1,17,-1
 738.599609375 1520.26367188 l 1,18,-1
 738.599609375 1418.60742188 l 1,19,-1
 738.599609375 1413.23535156 l 1,20,-1
 733.627929688 1411.20214844 l 1,21,-1
 338.428710938 1249.6015625 l 1,22,-1
 327.400390625 1245.09277344 l 1,23,-1
 327.400390625 1257.00683594 l 1,12,-1
EndSplineSet
EndChar

StartChar: uni064C
Encoding: 1612 1612 47
Width: 0
VWidth: 2184
GlyphClass: 4
Flags: W
AnchorPoint: "Anchor-10" 552.791 1209.53 mark 0
AnchorPoint: "Anchor-9" 552.791 1209.53 mark 0
AnchorPoint: "Anchor-1" 546.391 1733.93 basemark 0
AnchorPoint: "Anchor-1" 552.791 1209.53 mark 0
LayerCount: 2
Fore
SplineSet
557.486328125 1329.8984375 m 0,0,1
 573.50390625 1345.48339844 573.50390625 1345.48339844 586.012695312 1362.31835938 c 128,-1,2
 598.530273438 1379.16503906 598.530273438 1379.16503906 607.602539062 1397.31152344 c 2,3,-1
 608.990234375 1400.08691406 l 1,4,-1
 605.953125 1400.73046875 l 2,5,6
 603.653320312 1401.21777344 603.653320312 1401.21777344 601.404296875 1401.7421875 c 128,-1,7
 599.15625 1402.26757812 599.15625 1402.26757812 596.9609375 1402.828125 c 128,-1,8
 594.765625 1403.38964844 594.765625 1403.38964844 592.622070312 1403.98730469 c 128,-1,9
 590.478515625 1404.58496094 590.478515625 1404.58496094 588.387695312 1405.21972656 c 128,-1,10
 586.296875 1405.85351562 586.296875 1405.85351562 584.258789062 1406.52441406 c 128,-1,11
 582.220703125 1407.1953125 582.220703125 1407.1953125 580.234375 1407.90332031 c 0,12,13
 568.341796875 1412.13964844 568.341796875 1412.13964844 558.670898438 1417.60839844 c 0,14,15
 536.350585938 1429.38867188 536.350585938 1429.38867188 519.368164062 1443.26074219 c 0,16,17
 510.893554688 1450.18457031 510.893554688 1450.18457031 503.762695312 1457.61914062 c 128,-1,18
 496.630859375 1465.0546875 496.630859375 1465.0546875 490.838867188 1473.00195312 c 0,19,20
 479.28125 1488.859375 479.28125 1488.859375 473.375976562 1506.89648438 c 0,21,22
 472.194335938 1510.50195312 472.194335938 1510.50195312 471.25 1514.17773438 c 128,-1,23
 470.305664062 1517.85449219 470.305664062 1517.85449219 469.596679688 1521.60351562 c 128,-1,24
 468.888671875 1525.35351562 468.888671875 1525.35351562 468.416015625 1529.17480469 c 128,-1,25
 467.943359375 1532.99609375 467.943359375 1532.99609375 467.70703125 1536.89160156 c 128,-1,26
 467.470703125 1540.78710938 467.470703125 1540.78710938 467.470703125 1544.75683594 c 0,27,28
 467.470703125 1618.03320312 467.470703125 1618.03320312 525.57421875 1661.82128906 c 0,29,30
 548.903320312 1679.31738281 548.903320312 1679.31738281 602.03125 1679.31738281 c 0,31,32
 605.05859375 1679.31738281 605.05859375 1679.31738281 608.021484375 1679.23730469 c 128,-1,33
 610.983398438 1679.15625 610.983398438 1679.15625 613.87890625 1678.99609375 c 128,-1,34
 616.774414062 1678.8359375 616.774414062 1678.8359375 619.604492188 1678.59472656 c 128,-1,35
 622.434570312 1678.35449219 622.434570312 1678.35449219 625.197265625 1678.03417969 c 128,-1,36
 627.959960938 1677.71289062 627.959960938 1677.71289062 630.658203125 1677.3125 c 0,37,38
 644.12890625 1675.3125 644.12890625 1675.3125 656.0859375 1671.27636719 c 128,-1,39
 668.008789062 1667.25195312 668.008789062 1667.25195312 678.30859375 1661.06640625 c 128,-1,40
 688.59375 1654.88964844 688.59375 1654.88964844 697.065429688 1646.62988281 c 0,41,42
 720.278320312 1623.84179688 720.278320312 1623.84179688 731.858398438 1595.84277344 c 128,-1,43
 743.438476562 1567.84472656 743.438476562 1567.84472656 743.438476562 1534.48535156 c 0,44,45
 743.438476562 1530.81835938 743.438476562 1530.81835938 743.3125 1527.15917969 c 128,-1,46
 743.1875 1523.50097656 743.1875 1523.50097656 742.935546875 1519.8515625 c 128,-1,47
 742.684570312 1516.20117188 742.684570312 1516.20117188 742.306640625 1512.56054688 c 0,48,49
 741.17578125 1501.63671875 741.17578125 1501.63671875 738.91796875 1490.8203125 c 128,-1,50
 736.661132812 1480.00292969 736.661132812 1480.00292969 733.278320312 1469.29101562 c 2,51,-1
 732.34765625 1466.34179688 l 1,52,-1
 735.444335938 1466.17871094 l 2,53,54
 743.370117188 1465.75976562 743.370117188 1465.75976562 750.392578125 1465.54394531 c 128,-1,55
 757.416015625 1465.32910156 757.416015625 1465.32910156 763.541015625 1465.31738281 c 0,56,57
 767.477539062 1465.11621094 767.477539062 1465.11621094 771.107421875 1464.96875 c 128,-1,58
 774.737304688 1464.8203125 774.737304688 1464.8203125 778.482421875 1464.71289062 c 128,-1,59
 782.227539062 1464.60546875 782.227539062 1464.60546875 786.079101562 1464.54003906 c 2,60,-1
 793.942382812 1464.40527344 l 1,61,-1
 793.942382812 1456.54101562 l 1,62,-1
 793.942382812 1383.1328125 l 1,63,-1
 793.942382812 1375.08203125 l 1,64,-1
 785.891601562 1375.1328125 l 2,65,66
 753.841796875 1375.3359375 753.841796875 1375.3359375 739.200195312 1376.80371094 c 2,67,-1
 694.416015625 1381.109375 l 1,68,-1
 692.958007812 1381.25 l 1,69,-1
 692.383789062 1379.90332031 l 2,70,71
 687.959960938 1369.52148438 687.959960938 1369.52148438 681.865234375 1358.55273438 c 128,-1,72
 675.771484375 1347.58300781 675.771484375 1347.58300781 667.997070312 1336.01367188 c 128,-1,73
 660.221679688 1324.44433594 660.221679688 1324.44433594 650.783203125 1312.30175781 c 128,-1,74
 641.344726562 1300.16015625 641.344726562 1300.16015625 630.217773438 1287.421875 c 128,-1,75
 619.091796875 1274.68359375 619.091796875 1274.68359375 606.306640625 1261.38769531 c 0,76,77
 570.227539062 1224.88476562 570.227539062 1224.88476562 532.365234375 1206.68945312 c 128,-1,78
 494.50390625 1188.49316406 494.50390625 1188.49316406 454.807617188 1188.49316406 c 0,79,80
 341.307617188 1188.37402344 341.307617188 1188.37402344 311.262695312 1319.64355469 c 0,81,82
 305.353515625 1343.62988281 305.353515625 1343.62988281 302.265625 1373.53808594 c 128,-1,83
 299.173828125 1403.49023438 299.173828125 1403.49023438 298.876953125 1439.27441406 c 2,84,-1
 298.810546875 1447.34082031 l 1,85,-1
 306.876953125 1447.34082031 l 1,86,-1
 363.12109375 1447.34082031 l 1,87,-1
 371.05078125 1447.34082031 l 1,88,-1
 371.12109375 1439.41113281 l 2,89,90
 371.403320312 1407.36328125 371.403320312 1407.36328125 374.102539062 1383.15625 c 128,-1,91
 376.802734375 1358.94824219 376.802734375 1358.94824219 381.962890625 1342.43945312 c 0,92,93
 402.341796875 1277.24902344 402.341796875 1277.24902344 454.752929688 1277.85253906 c 0,94,95
 503.705078125 1277.85253906 503.705078125 1277.85253906 557.486328125 1329.8984375 c 0,0,1
640.905273438 1482.70898438 m 1,96,-1
 646.181640625 1495.02050781 l 2,97,98
 650.135742188 1504.24609375 650.135742188 1504.24609375 652.108398438 1514.08496094 c 0,99,100
 653.09375 1519.00195312 653.09375 1519.00195312 653.586914062 1524.10253906 c 128,-1,101
 654.079101562 1529.203125 654.079101562 1529.203125 654.079101562 1534.48535156 c 0,102,103
 654.079101562 1564.72460938 654.079101562 1564.72460938 638.651367188 1577.421875 c 0,104,105
 623.434570312 1589.95703125 623.434570312 1589.95703125 605.456054688 1589.95703125 c 0,106,107
 598.517578125 1589.95703125 598.517578125 1589.95703125 592.748046875 1588.96777344 c 0,108,109
 589.845703125 1588.46972656 589.845703125 1588.46972656 587.313476562 1587.77539062 c 128,-1,110
 584.782226562 1587.08105469 584.782226562 1587.08105469 582.608398438 1586.1796875 c 0,111,112
 578.251953125 1584.37402344 578.251953125 1584.37402344 574.83984375 1581.72753906 c 0,113,114
 570.748046875 1578.6484375 570.748046875 1578.6484375 567.733398438 1574.96484375 c 0,115,116
 566.21875 1573.11425781 566.21875 1573.11425781 564.942382812 1571.04394531 c 128,-1,117
 563.665039062 1568.97460938 563.665039062 1568.97460938 562.627929688 1566.69238281 c 0,118,119
 561.935546875 1565.16796875 561.935546875 1565.16796875 561.361328125 1563.5390625 c 128,-1,120
 560.787109375 1561.90917969 560.787109375 1561.90917969 560.333984375 1560.18945312 c 128,-1,121
 559.880859375 1558.46875 559.880859375 1558.46875 559.543945312 1556.64648438 c 0,122,123
 558.54296875 1551.21972656 558.54296875 1551.21972656 558.54296875 1544.75683594 c 0,124,125
 558.54296875 1541.06152344 558.54296875 1541.06152344 558.9921875 1537.60449219 c 128,-1,126
 559.442382812 1534.14746094 559.442382812 1534.14746094 560.348632812 1530.91308594 c 128,-1,127
 561.255859375 1527.67871094 561.255859375 1527.67871094 562.618164062 1524.69921875 c 0,128,129
 566.703125 1515.7578125 566.703125 1515.7578125 575.703125 1508.35253906 c 128,-1,130
 584.5859375 1501.04296875 584.5859375 1501.04296875 598.571289062 1495.44824219 c 0,131,132
 607.14453125 1492.01953125 607.14453125 1492.01953125 617.166015625 1488.53808594 c 128,-1,133
 627.180664062 1485.05957031 627.180664062 1485.05957031 638.478515625 1481.58496094 c 2,134,-1
 640.196289062 1481.05664062 l 1,135,-1
 640.905273438 1482.70898438 l 1,96,-1
EndSplineSet
EndChar

StartChar: uni064D
Encoding: 1613 1613 48
Width: 0
VWidth: 2184
GlyphClass: 4
Flags: W
AnchorPoint: "Anchor-7" 533.072 17.8066 mark 0
AnchorPoint: "Anchor-6" 533.072 17.8066 mark 0
AnchorPoint: "Anchor-0" 545.872 -394.193 basemark 0
AnchorPoint: "Anchor-0" 533.072 17.8066 mark 0
LayerCount: 2
Fore
SplineSet
332.400390625 -440.193359375 m 1,0,-1
 332.400390625 -338.537109375 l 1,1,-1
 332.400390625 -333.165039062 l 1,2,-1
 337.372070312 -331.131835938 l 1,3,-1
 732.571289062 -169.53125 l 1,4,-1
 743.599609375 -165.022460938 l 1,5,-1
 743.599609375 -176.936523438 l 1,6,-1
 743.599609375 -278.592773438 l 1,7,-1
 743.599609375 -283.96484375 l 1,8,-1
 738.627929688 -285.998046875 l 1,9,-1
 343.428710938 -447.598632812 l 1,10,-1
 332.400390625 -452.107421875 l 1,11,-1
 332.400390625 -440.193359375 l 1,0,-1
332.400390625 -232.993164062 m 1,12,-1
 332.400390625 -131.336914062 l 1,13,-1
 332.400390625 -125.96484375 l 1,14,-1
 337.372070312 -123.931640625 l 1,15,-1
 732.571289062 37.6689453125 l 1,16,-1
 743.599609375 42.177734375 l 1,17,-1
 743.599609375 30.263671875 l 1,18,-1
 743.599609375 -71.392578125 l 1,19,-1
 743.599609375 -76.7646484375 l 1,20,-1
 738.627929688 -78.7978515625 l 1,21,-1
 343.428710938 -240.3984375 l 1,22,-1
 332.400390625 -244.907226562 l 1,23,-1
 332.400390625 -232.993164062 l 1,12,-1
EndSplineSet
EndChar

StartChar: uni064E
Encoding: 1614 1614 49
Width: 0
VWidth: 2184
GlyphClass: 4
Flags: W
AnchorPoint: "Anchor-10" 515.072 1304.71 mark 0
AnchorPoint: "Anchor-9" 515.072 1304.71 mark 0
AnchorPoint: "Anchor-1" 515.072 1561.51 basemark 0
AnchorPoint: "Anchor-1" 515.072 1304.71 mark 0
LayerCount: 2
Fore
SplineSet
298.400390625 1281.90722656 m 1,0,-1
 298.400390625 1383.56347656 l 1,1,-1
 298.400390625 1388.93554688 l 1,2,-1
 303.372070312 1390.96875 l 1,3,-1
 698.571289062 1552.56835938 l 1,4,-1
 709.599609375 1557.07714844 l 1,5,-1
 709.599609375 1545.16308594 l 1,6,-1
 709.599609375 1443.50683594 l 1,7,-1
 709.599609375 1438.13476562 l 1,8,-1
 704.627929688 1436.1015625 l 1,9,-1
 309.428710938 1274.50195312 l 1,10,-1
 298.400390625 1269.99316406 l 1,11,-1
 298.400390625 1281.90722656 l 1,0,-1
EndSplineSet
EndChar

StartChar: uni064F
Encoding: 1615 1615 50
Width: 0
VWidth: 2184
GlyphClass: 4
Flags: W
AnchorPoint: "Anchor-10" 535.04 1252.31 mark 0
AnchorPoint: "Anchor-9" 535.04 1252.31 mark 0
AnchorPoint: "Anchor-1" 547.84 1747.91 basemark 0
AnchorPoint: "Anchor-1" 535.04 1252.31 mark 0
LayerCount: 2
Fore
SplineSet
560.61328125 1431.3515625 m 0,0,1
 545.50390625 1437.81347656 545.50390625 1437.81347656 532.84765625 1445.70507812 c 128,-1,2
 520.19140625 1453.59765625 520.19140625 1453.59765625 510.013671875 1462.88769531 c 128,-1,3
 499.834960938 1472.17773438 499.834960938 1472.17773438 492.081054688 1482.89550781 c 0,4,5
 468.83984375 1515.01660156 468.83984375 1515.01660156 468.919921875 1558.73339844 c 0,6,7
 468.919921875 1632.00976562 468.919921875 1632.00976562 527.0234375 1675.79785156 c 0,8,9
 539.159179688 1684.8984375 539.159179688 1684.8984375 558.016601562 1689.07226562 c 0,10,11
 564.354492188 1690.47558594 564.354492188 1690.47558594 571.51171875 1691.41308594 c 128,-1,12
 578.668945312 1692.35058594 578.668945312 1692.35058594 586.669921875 1692.82128906 c 128,-1,13
 594.670898438 1693.29296875 594.670898438 1693.29296875 603.48046875 1693.29296875 c 0,14,15
 623.680664062 1693.29296875 623.680664062 1693.29296875 640.940429688 1689.74902344 c 0,16,17
 649.546875 1687.98144531 649.546875 1687.98144531 657.487304688 1685.26855469 c 128,-1,18
 665.426757812 1682.55664062 665.426757812 1682.55664062 672.708984375 1678.8984375 c 128,-1,19
 679.974609375 1675.24902344 679.974609375 1675.24902344 686.426757812 1670.67480469 c 128,-1,20
 692.879882812 1666.09960938 692.879882812 1666.09960938 698.514648438 1660.60546875 c 0,21,22
 721.583984375 1637.95800781 721.583984375 1637.95800781 733.233398438 1609.76074219 c 128,-1,23
 744.887695312 1581.55175781 744.887695312 1581.55175781 744.887695312 1548.4609375 c 2,24,-1
 743.544921875 1528.96972656 l 2,25,26
 743.096679688 1525.51757812 743.096679688 1525.51757812 742.506835938 1521.95800781 c 128,-1,27
 741.916992188 1518.3984375 741.916992188 1518.3984375 741.185546875 1514.72753906 c 128,-1,28
 740.453125 1511.05761719 740.453125 1511.05761719 739.579101562 1507.28027344 c 0,29,30
 736.954101562 1495.93164062 736.954101562 1495.93164062 733.012695312 1483.25878906 c 2,31,-1
 732.1015625 1480.33105469 l 1,32,-1
 735.162109375 1480.15136719 l 2,33,34
 749.754882812 1479.29492188 749.754882812 1479.29492188 765.197265625 1478.86621094 c 0,35,36
 775.5 1478.58007812 775.5 1478.58007812 787.4609375 1478.4765625 c 2,37,-1
 795.391601562 1478.40722656 l 1,38,-1
 795.391601562 1470.4765625 l 1,39,-1
 795.391601562 1397.1328125 l 1,40,-1
 795.391601562 1389.04785156 l 1,41,-1
 787.306640625 1389.1328125 l 2,42,43
 775.08984375 1389.26269531 775.08984375 1389.26269531 763.436523438 1389.67382812 c 128,-1,44
 751.784179688 1390.08496094 751.784179688 1390.08496094 740.620117188 1390.78125 c 0,45,46
 714.952148438 1392.49707031 714.952148438 1392.49707031 691.053710938 1395.05761719 c 2,47,-1
 689.645507812 1395.20800781 l 1,48,-1
 688.831054688 1394.05175781 l 2,49,50
 652.307617188 1342.23632812 652.307617188 1342.23632812 593.642578125 1306.53027344 c 0,51,52
 512.086914062 1256.37988281 512.086914062 1256.37988281 440.802734375 1230.20703125 c 128,-1,53
 369.518554688 1204.03417969 369.518554688 1204.03417969 308.581054688 1201.80175781 c 2,54,-1
 300.288085938 1201.49804688 l 1,55,-1
 300.288085938 1209.796875 l 1,56,-1
 300.288085938 1283.1171875 l 1,57,-1
 300.288085938 1290.88867188 l 1,58,-1
 308.056640625 1291.11425781 l 2,59,60
 370.845703125 1292.93164062 370.845703125 1292.93164062 430.890625 1316.29492188 c 0,61,62
 460.896484375 1327.97070312 460.896484375 1327.97070312 490.291015625 1345.09570312 c 128,-1,63
 519.685546875 1362.22070312 519.685546875 1362.22070312 548.461914062 1384.78515625 c 0,64,65
 568.288085938 1400.30273438 568.288085938 1400.30273438 584.673828125 1417.54589844 c 2,66,-1
 585.873046875 1418.80859375 l 1,67,-1
 588.053710938 1421.10449219 l 1,68,-1
 585.04296875 1422.08691406 l 2,69,70
 578.961914062 1424.0703125 578.961914062 1424.0703125 573.127929688 1426.28710938 c 128,-1,71
 567.291992188 1428.50390625 567.291992188 1428.50390625 560.61328125 1431.3515625 c 0,0,1
642.354492188 1496.68457031 m 1,72,-1
 647.630859375 1508.99609375 l 2,73,74
 655.528320312 1527.42285156 655.528320312 1527.42285156 655.528320312 1548.4609375 c 0,75,76
 654.806640625 1578.59570312 654.806640625 1578.59570312 640.1015625 1591.3984375 c 0,77,78
 632.529296875 1597.63574219 632.529296875 1597.63574219 624.20703125 1600.78417969 c 128,-1,79
 615.883789062 1603.93261719 615.883789062 1603.93261719 606.904296875 1603.93261719 c 0,80,81
 604.853515625 1603.93261719 604.853515625 1603.93261719 602.916992188 1603.85058594 c 128,-1,82
 600.98046875 1603.76855469 600.98046875 1603.76855469 599.142578125 1603.60253906 c 128,-1,83
 597.3046875 1603.43652344 597.3046875 1603.43652344 595.579101562 1603.18652344 c 128,-1,84
 593.853515625 1602.93652344 593.853515625 1602.93652344 592.228515625 1602.59960938 c 128,-1,85
 590.602539062 1602.26367188 590.602539062 1602.26367188 589.086914062 1601.84082031 c 0,86,87
 581.46484375 1599.71777344 581.46484375 1599.71777344 576.2890625 1595.703125 c 2,88,-1
 569.182617188 1588.94042969 l 1,89,-1
 564.077148438 1580.66796875 l 2,90,91
 562.005859375 1576.109375 562.005859375 1576.109375 560.993164062 1570.62207031 c 128,-1,92
 559.9921875 1565.19628906 559.9921875 1565.19628906 559.9921875 1558.73339844 c 0,93,94
 560.389648438 1547.25390625 560.389648438 1547.25390625 564.067382812 1538.67578125 c 0,95,96
 568.15234375 1529.734375 568.15234375 1529.734375 577.15234375 1522.32910156 c 0,97,98
 580.129882812 1519.87890625 580.129882812 1519.87890625 583.673828125 1517.625 c 128,-1,99
 587.217773438 1515.37207031 587.217773438 1515.37207031 591.294921875 1513.328125 c 128,-1,100
 595.373046875 1511.28417969 595.373046875 1511.28417969 600.020507812 1509.42480469 c 0,101,102
 604.306640625 1507.7109375 604.306640625 1507.7109375 608.959960938 1505.98144531 c 128,-1,103
 613.612304688 1504.25292969 613.612304688 1504.25292969 618.607421875 1502.51757812 c 128,-1,104
 623.602539062 1500.78222656 623.602539062 1500.78222656 628.940429688 1499.04003906 c 128,-1,105
 634.279296875 1497.29882812 634.279296875 1497.29882812 639.928710938 1495.56152344 c 2,106,-1
 641.646484375 1495.03320312 l 1,107,-1
 642.354492188 1496.68457031 l 1,72,-1
EndSplineSet
EndChar

StartChar: uni0650
Encoding: 1616 1616 51
Width: 0
VWidth: 2184
GlyphClass: 4
Flags: W
AnchorPoint: "Anchor-7" 517.472 -47.6934 mark 0
AnchorPoint: "Anchor-6" 517.472 -47.6934 mark 0
AnchorPoint: "Anchor-0" 555.072 -286.893 basemark 0
AnchorPoint: "Anchor-0" 517.472 -47.6934 mark 0
LayerCount: 2
Fore
SplineSet
342.400390625 -312.092773438 m 1,0,-1
 342.400390625 -210.436523438 l 1,1,-1
 342.400390625 -205.064453125 l 1,2,-1
 347.372070312 -203.03125 l 1,3,-1
 742.572265625 -41.431640625 l 1,4,-1
 753.599609375 -36.9228515625 l 1,5,-1
 753.599609375 -48.8369140625 l 1,6,-1
 753.599609375 -150.493164062 l 1,7,-1
 753.599609375 -155.865234375 l 1,8,-1
 748.627929688 -157.8984375 l 1,9,-1
 353.428710938 -319.498046875 l 1,10,-1
 342.400390625 -324.006835938 l 1,11,-1
 342.400390625 -312.092773438 l 1,0,-1
EndSplineSet
EndChar

StartChar: uni0651
Encoding: 1617 1617 52
Width: 0
VWidth: 2184
GlyphClass: 4
Flags: W
AnchorPoint: "Anchor-10" 548.269 1353.65 mark 0
AnchorPoint: "Anchor-9" 548.269 1353.65 mark 0
AnchorPoint: "Anchor-1" 538.668 1755.25 basemark 0
AnchorPoint: "Anchor-1" 548.269 1353.65 mark 0
LayerCount: 2
Fore
SplineSet
437.064453125 1323.9609375 m 0,0,1
 401.298828125 1323.9609375 401.298828125 1323.9609375 374.392578125 1334.3125 c 128,-1,2
 347.374023438 1344.70703125 347.374023438 1344.70703125 329.342773438 1365.01757812 c 128,-1,3
 311.276367188 1385.36914062 311.276367188 1385.36914062 301.961914062 1415.484375 c 128,-1,4
 292.607421875 1445.72851562 292.607421875 1445.72851562 292.396484375 1485.24121094 c 2,5,-1
 291.752929688 1605.65429688 l 1,6,-1
 291.709960938 1613.69726562 l 1,7,-1
 299.752929688 1613.69726562 l 1,8,-1
 370.541992188 1613.69726562 l 1,9,-1
 378.465820312 1613.69726562 l 1,10,-1
 378.541992188 1605.77441406 l 1,11,-1
 379.708007812 1484.48046875 l 2,12,13
 379.78125 1477.12695312 379.78125 1477.12695312 380.676757812 1470.75195312 c 128,-1,14
 381.572265625 1464.37695312 381.572265625 1464.37695312 383.306640625 1458.92089844 c 128,-1,15
 385.041992188 1453.46484375 385.041992188 1453.46484375 387.655273438 1448.97460938 c 128,-1,16
 390.268554688 1444.484375 390.268554688 1444.484375 393.748046875 1441 c 0,17,18
 407.490234375 1427.23535156 407.490234375 1427.23535156 437.147460938 1426.92089844 c 0,19,20
 469.905273438 1426.88964844 469.905273438 1426.88964844 486.252929688 1448.20019531 c 0,21,22
 502.403320312 1469.25488281 502.403320312 1469.25488281 503.010742188 1515.43847656 c 2,23,-1
 504.76953125 1649.21875 l 1,24,-1
 504.873046875 1657.11328125 l 1,25,-1
 512.768554688 1657.11328125 l 1,26,-1
 582.78515625 1657.11328125 l 1,27,-1
 590.666992188 1657.11328125 l 1,28,-1
 590.784179688 1649.23242188 l 1,29,-1
 592.666992188 1522.68359375 l 2,30,31
 593.231445312 1493.61914062 593.231445312 1493.61914062 609.965820312 1479.79101562 c 128,-1,32
 626.548828125 1466.08886719 626.548828125 1466.08886719 662.681640625 1466.12109375 c 0,33,34
 714.924804688 1466.0625 714.924804688 1466.0625 716.029296875 1555.84472656 c 2,35,-1
 717.663085938 1688.62695312 l 1,36,-1
 717.759765625 1696.52832031 l 1,37,-1
 725.662109375 1696.52832031 l 1,38,-1
 800.211914062 1696.52832031 l 1,39,-1
 808.314453125 1696.52832031 l 1,40,-1
 808.2109375 1688.42675781 l 1,41,-1
 806.5390625 1557.00195312 l 2,42,43
 806.166015625 1525.64746094 806.166015625 1525.64746094 801.889648438 1499.27441406 c 128,-1,44
 797.614257812 1472.90136719 797.614257812 1472.90136719 789.493164062 1451.62792969 c 128,-1,45
 781.373046875 1430.35351562 781.373046875 1430.35351562 769.407226562 1414.05371094 c 0,46,47
 733.61328125 1365.296875 733.61328125 1365.296875 663.612304688 1365.35546875 c 0,48,49
 597.1328125 1365.26660156 597.1328125 1365.26660156 561.256835938 1400.10644531 c 2,50,-1
 559.078125 1402.22167969 l 1,51,-1
 557.995117188 1399.38476562 l 2,52,53
 529.360351562 1324.4140625 529.360351562 1324.4140625 437.064453125 1323.9609375 c 0,0,1
EndSplineSet
EndChar

StartChar: uni0652
Encoding: 1618 1618 53
Width: 0
VWidth: 2184
GlyphClass: 4
Flags: W
AnchorPoint: "Anchor-10" 566.159 1177.48 mark 0
AnchorPoint: "Anchor-9" 566.159 1177.48 mark 0
AnchorPoint: "Anchor-1" 554.959 1636.28 basemark 0
AnchorPoint: "Anchor-1" 566.159 1177.48 mark 0
LayerCount: 2
Fore
SplineSet
655.276367188 1382.35546875 m 0,0,1
 655.276367188 1391.5859375 655.276367188 1391.5859375 653.65625 1400.14746094 c 128,-1,2
 652.03515625 1408.70898438 652.03515625 1408.70898438 648.802734375 1416.57421875 c 128,-1,3
 645.5703125 1424.43945312 645.5703125 1424.43945312 640.724609375 1431.60839844 c 128,-1,4
 635.87890625 1438.77734375 635.87890625 1438.77734375 629.43359375 1445.22265625 c 0,5,6
 620.838867188 1453.81835938 620.838867188 1453.81835938 610.89453125 1459.56445312 c 128,-1,7
 600.950195312 1465.31054688 600.950195312 1465.31054688 589.705078125 1468.18652344 c 128,-1,8
 578.459960938 1471.0625 578.459960938 1471.0625 565.948242188 1471.0625 c 0,9,10
 563.15625 1471.0625 563.15625 1471.0625 560.439453125 1470.93066406 c 128,-1,11
 557.721679688 1470.79882812 557.721679688 1470.79882812 555.079101562 1470.53515625 c 0,12,13
 549.83203125 1470.01171875 549.83203125 1470.01171875 544.875 1468.96777344 c 0,14,15
 542.408203125 1468.44824219 542.408203125 1468.44824219 540.01171875 1467.79785156 c 128,-1,16
 537.615234375 1467.1484375 537.615234375 1467.1484375 535.291992188 1466.37109375 c 0,17,-1
 535.180664062 1466.33007812 l 1,18,-1
 526.383789062 1462.79589844 l 1,19,-1
 526.274414062 1462.74804688 l 2,20,21
 524.817382812 1462.05957031 524.817382812 1462.05957031 523.388671875 1461.3125 c 128,-1,22
 521.959960938 1460.56542969 521.959960938 1460.56542969 520.556640625 1459.75976562 c 128,-1,23
 519.154296875 1458.953125 519.154296875 1458.953125 517.778320312 1458.08789062 c 0,24,25
 515.709960938 1456.78808594 515.709960938 1456.78808594 513.701171875 1455.35644531 c 0,26,27
 512.696289062 1454.640625 512.696289062 1454.640625 511.708007812 1453.89160156 c 128,-1,28
 510.719726562 1453.14355469 510.719726562 1453.14355469 509.74609375 1452.36230469 c 0,29,30
 505.833984375 1449.22070312 505.833984375 1449.22070312 502.1484375 1445.53710938 c 0,31,32
 499.9921875 1443.38085938 499.9921875 1443.38085938 498.0234375 1441.15136719 c 128,-1,33
 496.053710938 1438.92285156 496.053710938 1438.92285156 494.271484375 1436.62109375 c 0,34,35
 490.703125 1432.01367188 490.703125 1432.01367188 487.89453125 1427.14648438 c 128,-1,36
 485.083984375 1422.27636719 485.083984375 1422.27636719 482.975585938 1417.07421875 c 0,37,38
 479.795898438 1409.22851562 479.795898438 1409.22851562 478.208007812 1400.54394531 c 128,-1,39
 476.62109375 1391.859375 476.62109375 1391.859375 476.62109375 1382.35546875 c 0,40,41
 476.62109375 1363.27539062 476.62109375 1363.27539062 483.012695312 1347.28808594 c 128,-1,42
 489.404296875 1331.30175781 489.404296875 1331.30175781 502.147460938 1318.55761719 c 0,43,44
 504.28515625 1316.41992188 504.28515625 1316.41992188 506.498046875 1314.46582031 c 128,-1,45
 508.711914062 1312.51074219 508.711914062 1312.51074219 511.000976562 1310.73925781 c 0,46,47
 515.584960938 1307.19140625 515.584960938 1307.19140625 520.528320312 1304.34570312 c 128,-1,48
 525.475585938 1301.49804688 525.475585938 1301.49804688 530.766601562 1299.37695312 c 128,-1,49
 536.053710938 1297.2578125 536.053710938 1297.2578125 541.729492188 1295.84277344 c 128,-1,50
 547.3984375 1294.4296875 547.3984375 1294.4296875 553.451171875 1293.72851562 c 128,-1,51
 559.490234375 1293.02929688 559.490234375 1293.02929688 565.948242188 1293.02929688 c 0,52,53
 569.14453125 1293.02929688 569.14453125 1293.02929688 572.244140625 1293.20996094 c 128,-1,54
 575.34375 1293.38964844 575.34375 1293.38964844 578.346679688 1293.75097656 c 0,55,56
 584.359375 1294.47363281 584.359375 1294.47363281 589.921875 1295.89648438 c 128,-1,57
 595.489257812 1297.3203125 595.489257812 1297.3203125 600.720703125 1299.45410156 c 0,58,59
 604.640625 1301.05273438 604.640625 1301.05273438 608.376953125 1303.05175781 c 128,-1,60
 612.114257812 1305.05078125 612.114257812 1305.05078125 615.702148438 1307.47167969 c 128,-1,61
 619.291015625 1309.89257812 619.291015625 1309.89257812 622.724609375 1312.74316406 c 0,62,63
 624.440429688 1314.16796875 624.440429688 1314.16796875 626.118164062 1315.70019531 c 128,-1,64
 627.795898438 1317.23242188 627.795898438 1317.23242188 629.434570312 1318.87207031 c 0,65,66
 632.680664062 1322.11816406 632.680664062 1322.11816406 635.517578125 1325.53515625 c 128,-1,67
 638.35546875 1328.95214844 638.35546875 1328.95214844 640.784179688 1332.54199219 c 128,-1,68
 643.213867188 1336.13183594 643.213867188 1336.13183594 645.232421875 1339.89453125 c 128,-1,69
 647.25 1343.65820312 647.25 1343.65820312 648.853515625 1347.58691406 c 0,70,71
 649.494140625 1349.15917969 649.494140625 1349.15917969 650.072265625 1350.76464844 c 128,-1,72
 650.649414062 1352.37011719 650.649414062 1352.37011719 651.163085938 1354.0078125 c 128,-1,73
 651.676757812 1355.64453125 651.676757812 1355.64453125 652.125976562 1357.31445312 c 128,-1,74
 652.576171875 1358.984375 652.576171875 1358.984375 652.961914062 1360.68652344 c 128,-1,75
 653.34765625 1362.38769531 653.34765625 1362.38769531 653.668945312 1364.12207031 c 0,76,77
 654.205078125 1367.01074219 654.205078125 1367.01074219 654.5625 1370.00195312 c 128,-1,78
 654.919921875 1372.99414062 654.919921875 1372.99414062 655.098632812 1376.08105469 c 128,-1,79
 655.276367188 1379.16699219 655.276367188 1379.16699219 655.276367188 1382.35546875 c 0,0,1
752.818359375 1382.45996094 m 0,80,81
 752.818359375 1343.27832031 752.818359375 1343.27832031 739.297851562 1310.12597656 c 128,-1,82
 725.776367188 1276.97363281 725.776367188 1276.97363281 698.682617188 1249.70507812 c 0,83,84
 685.233398438 1236.17285156 685.233398438 1236.17285156 670.14453125 1225.94238281 c 0,85,86
 662.604492188 1220.83007812 662.604492188 1220.83007812 654.677734375 1216.56542969 c 128,-1,87
 646.750976562 1212.30078125 646.750976562 1212.30078125 638.43359375 1208.88183594 c 0,88,89
 605.1953125 1195.21972656 605.1953125 1195.21972656 566.2421875 1195.21972656 c 0,90,91
 561.392578125 1195.21972656 561.392578125 1195.21972656 556.62890625 1195.43164062 c 0,92,93
 555.041015625 1195.50292969 555.041015625 1195.50292969 553.461914062 1195.59667969 c 128,-1,94
 551.8828125 1195.69140625 551.8828125 1195.69140625 550.3125 1195.80957031 c 128,-1,95
 548.7421875 1195.92773438 548.7421875 1195.92773438 547.180664062 1196.06933594 c 0,96,97
 537.799804688 1196.92285156 537.799804688 1196.92285156 528.780273438 1198.625 c 0,98,99
 524.264648438 1199.47851562 524.264648438 1199.47851562 519.833984375 1200.546875 c 0,100,101
 517.618164062 1201.08007812 517.618164062 1201.08007812 515.426757812 1201.66796875 c 128,-1,102
 513.234375 1202.25488281 513.234375 1202.25488281 511.064453125 1202.89550781 c 128,-1,103
 508.893554688 1203.53613281 508.893554688 1203.53613281 506.744140625 1204.23144531 c 128,-1,104
 504.595703125 1204.92578125 504.595703125 1204.92578125 502.470703125 1205.67285156 c 128,-1,105
 500.344726562 1206.42089844 500.344726562 1206.42089844 498.2421875 1207.22265625 c 128,-1,106
 496.140625 1208.0234375 496.140625 1208.0234375 494.0625 1208.87792969 c 0,107,108
 485.747070312 1212.29492188 485.747070312 1212.29492188 477.805664062 1216.56640625 c 128,-1,109
 469.874023438 1220.83496094 469.874023438 1220.83496094 462.330078125 1225.94726562 c 0,110,111
 458.563476562 1228.50097656 458.563476562 1228.50097656 454.895507812 1231.26464844 c 128,-1,112
 451.2265625 1234.02832031 451.2265625 1234.02832031 447.657226562 1237.00097656 c 128,-1,113
 444.091796875 1239.97167969 444.091796875 1239.97167969 440.62890625 1243.14746094 c 128,-1,114
 437.166015625 1246.32324219 437.166015625 1246.32324219 433.803710938 1249.70605469 c 0,115,116
 406.829101562 1276.85351562 406.829101562 1276.85351562 393.2421875 1310.19921875 c 128,-1,117
 379.666992188 1343.51171875 379.666992188 1343.51171875 379.666992188 1382.45996094 c 0,118,119
 379.666992188 1385.69042969 379.666992188 1385.69042969 379.760742188 1388.88183594 c 128,-1,120
 379.854492188 1392.07421875 379.854492188 1392.07421875 380.041992188 1395.23242188 c 128,-1,121
 380.229492188 1398.38964844 380.229492188 1398.38964844 380.51171875 1401.51269531 c 1,122,-1
 381.168945312 1407.72070312 l 2,123,124
 381.670898438 1411.83691406 381.670898438 1411.83691406 382.33984375 1415.88183594 c 128,-1,125
 383.008789062 1419.92675781 383.008789062 1419.92675781 383.846679688 1423.90722656 c 128,-1,126
 384.68359375 1427.88867188 384.68359375 1427.88867188 385.688476562 1431.796875 c 0,127,128
 388.706054688 1443.53417969 388.706054688 1443.53417969 393.236328125 1454.62304688 c 128,-1,129
 397.767578125 1465.71484375 397.767578125 1465.71484375 403.796875 1476.12304688 c 0,130,131
 406.809570312 1481.32324219 406.809570312 1481.32324219 410.1953125 1486.34960938 c 128,-1,132
 413.581054688 1491.37695312 413.581054688 1491.37695312 417.338867188 1496.23046875 c 0,133,134
 424.837890625 1505.91210938 424.837890625 1505.91210938 433.8125 1514.890625 c 0,135,136
 487.95703125 1569.03613281 487.95703125 1569.03613281 566.2421875 1569.03613281 c 128,-1,137
 644.528320312 1569.03613281 644.528320312 1569.03613281 698.673828125 1514.88964844 c 0,138,139
 712.125 1501.43554688 712.125 1501.43554688 722.291015625 1486.34570312 c 128,-1,140
 732.44921875 1471.26660156 732.44921875 1471.26660156 739.244140625 1454.63574219 c 0,141,142
 740.943359375 1450.47363281 740.943359375 1450.47363281 742.431640625 1446.21777344 c 128,-1,143
 743.919921875 1441.9609375 743.919921875 1441.9609375 745.19140625 1437.62207031 c 128,-1,144
 746.463867188 1433.28222656 746.463867188 1433.28222656 747.525390625 1428.85253906 c 128,-1,145
 748.5859375 1424.42285156 748.5859375 1424.42285156 749.432617188 1419.90917969 c 128,-1,146
 750.279296875 1415.39550781 750.279296875 1415.39550781 750.915039062 1410.796875 c 128,-1,147
 751.549804688 1406.19824219 751.549804688 1406.19824219 751.97265625 1401.515625 c 128,-1,148
 752.395507812 1396.83203125 752.395507812 1396.83203125 752.607421875 1392.06933594 c 128,-1,149
 752.818359375 1387.30664062 752.818359375 1387.30664062 752.818359375 1382.45996094 c 0,80,81
EndSplineSet
EndChar

StartChar: uni0653
Encoding: 1619 1619 54
Width: 11
VWidth: 2551
GlyphClass: 4
Flags: W
AnchorPoint: "Anchor-10" 397.919 1465.33 mark 0
AnchorPoint: "Anchor-9" 397.919 1465.33 mark 0
AnchorPoint: "Anchor-1" 392.604 1781.32 basemark 0
AnchorPoint: "Anchor-1" 397.919 1465.33 mark 0
LayerCount: 2
Fore
SplineSet
318.891601562 1724.04980469 m 2,0,-1
 702.453125 1724.04980469 l 1,1,-1
 720.323242188 1724.04980469 l 1,2,-1
 720.453125 1706.18066406 l 1,3,-1
 721.666015625 1538.98046875 l 1,4,-1
 721.796875 1520.84960938 l 1,5,-1
 703.666015625 1520.84960938 l 1,6,-1
 328.95703125 1520.84960938 l 2,7,8
 282.822265625 1520.91796875 282.822265625 1520.91796875 248.354492188 1506.24511719 c 128,-1,9
 213.885742188 1491.57128906 213.885742188 1491.57128906 191.306640625 1462.14648438 c 2,10,-1
 175.2109375 1441.17089844 l 1,11,-1
 161.801757812 1423.69628906 l 1,12,-1
 147.34765625 1440.31738281 l 1,13,-1
 47.2685546875 1555.40625 l 1,14,-1
 38.3203125 1565.69726562 l 1,15,-1
 45.8046875 1577.09667969 l 1,16,-1
 54.9619140625 1591.04394531 l 2,17,18
 98.4033203125 1657.18554688 98.4033203125 1657.18554688 164.989257812 1690.60351562 c 0,19,20
 198.299804688 1707.32128906 198.299804688 1707.32128906 236.767578125 1715.68554688 c 128,-1,21
 275.235351562 1724.04980469 275.235351562 1724.04980469 318.891601562 1724.04980469 c 2,0,-1
EndSplineSet
EndChar

StartChar: uni0657
Encoding: 1623 1623 57
Width: 11
VWidth: 2551
GlyphClass: 4
Flags: W
AnchorPoint: "Anchor-10" 648 1575.87 mark 0
AnchorPoint: "Anchor-9" 648 1575.87 mark 0
AnchorPoint: "Anchor-1" 648 2228.92 basemark 0
AnchorPoint: "Anchor-1" 648 1575.87 mark 0
LayerCount: 2
Fore
SplineSet
375.703125 1985.13085938 m 1,0,-1
 485.008789062 1977.50195312 l 1,1,-1
 486.114257812 1977.42480469 l 1,2,-1
 486.765625 1978.32226562 l 2,3,4
 534.696289062 2044.3203125 534.696289062 2044.3203125 599.318359375 2083.65136719 c 0,5,6
 644.692382812 2111.55273438 644.692382812 2111.55273438 687.463867188 2133.07421875 c 128,-1,7
 730.235351562 2154.59570312 730.235351562 2154.59570312 770.359375 2169.71875 c 128,-1,8
 810.482421875 2184.84179688 810.482421875 2184.84179688 847.966796875 2193.59082031 c 128,-1,9
 885.451171875 2202.33886719 885.451171875 2202.33886719 920.30859375 2204.71875 c 2,10,-1
 928.853515625 2205.30175781 l 1,11,-1
 928.853515625 2196.73730469 l 1,12,-1
 928.853515625 2127.40039062 l 1,13,-1
 928.853515625 2119.82910156 l 1,14,-1
 921.293945312 2119.41210938 l 2,15,16
 773.35546875 2111.25878906 773.35546875 2111.25878906 641.291992188 2007.70410156 c 0,17,18
 629.373046875 1998.375 629.373046875 1998.375 618.483398438 1988.52148438 c 0,19,20
 613.038085938 1983.59375 613.038085938 1983.59375 607.850585938 1978.53710938 c 128,-1,21
 602.6640625 1973.48046875 602.6640625 1973.48046875 597.734375 1968.29296875 c 2,22,-1
 584.93359375 1954.81738281 l 1,23,-1
 582.5 1952.25488281 l 1,24,-1
 585.94921875 1951.48828125 l 1,25,-1
 604.08984375 1947.45214844 l 2,26,27
 607.56640625 1946.68066406 607.56640625 1946.68066406 618.106445312 1941.77929688 c 128,-1,28
 628.646484375 1936.87792969 628.646484375 1936.87792969 645.245117188 1928.23828125 c 0,29,30
 662.489257812 1919.26171875 662.489257812 1919.26171875 677.453125 1906.07324219 c 128,-1,31
 692.416992188 1892.88378906 692.416992188 1892.88378906 705.120117188 1875.45019531 c 0,32,33
 718.041015625 1857.71777344 718.041015625 1857.71777344 724.485351562 1838.20703125 c 128,-1,34
 730.9296875 1818.69628906 730.9296875 1818.69628906 730.9296875 1797.32324219 c 0,35,36
 730.9296875 1755.34667969 730.9296875 1755.34667969 718.661132812 1730.61035156 c 0,37,38
 677.525390625 1647.66992188 677.525390625 1647.66992188 577.603515625 1647.66992188 c 0,39,40
 569.333984375 1647.66992188 569.333984375 1647.66992188 561.466796875 1648.31933594 c 128,-1,41
 553.599609375 1648.96875 553.599609375 1648.96875 546.141601562 1650.26757812 c 128,-1,42
 538.682617188 1651.56542969 538.682617188 1651.56542969 531.631835938 1653.50878906 c 128,-1,43
 524.580078125 1655.45214844 524.580078125 1655.45214844 517.92578125 1658.04199219 c 0,44,45
 509.057617188 1661.49414062 509.057617188 1661.49414062 500.95703125 1666.06835938 c 128,-1,46
 492.85546875 1670.64160156 492.85546875 1670.64160156 485.514648438 1676.34179688 c 128,-1,47
 478.173828125 1682.04101562 478.173828125 1682.04101562 471.584960938 1688.87304688 c 0,48,49
 451.791015625 1709.39746094 451.791015625 1709.39746094 439.260742188 1739.72851562 c 0,50,51
 426.422851562 1770.8046875 426.422851562 1770.8046875 426.422851562 1804.69433594 c 0,52,53
 426.422851562 1821.58007812 426.422851562 1821.58007812 429.802734375 1840.74902344 c 0,54,55
 431.495117188 1850.3515625 431.495117188 1850.3515625 434.025390625 1860.56640625 c 128,-1,56
 436.555664062 1870.78125 436.555664062 1870.78125 439.923828125 1881.60546875 c 2,57,-1
 443.915039062 1894.43359375 l 1,58,-1
 444.673828125 1896.87304688 l 1,59,-1
 442.123046875 1897.02441406 l 1,60,-1
 428.704101562 1897.81640625 l 2,61,62
 416.600585938 1898.52832031 416.600585938 1898.52832031 403.177734375 1899.00195312 c 128,-1,63
 389.752929688 1899.47460938 389.752929688 1899.47460938 375.01953125 1899.70898438 c 2,64,-1
 367.146484375 1899.83398438 l 1,65,-1
 367.146484375 1907.70800781 l 1,66,-1
 367.146484375 1977.15039062 l 1,67,-1
 367.146484375 1985.72851562 l 1,68,-1
 375.703125 1985.13085938 l 1,0,-1
531.713867188 1880.85253906 m 1,69,-1
 521.9609375 1858.09863281 l 2,70,71
 516.920898438 1846.34472656 516.920898438 1846.34472656 514.4140625 1831.87597656 c 128,-1,72
 511.908203125 1817.40820312 511.908203125 1817.40820312 511.908203125 1800.21191406 c 0,73,74
 511.908203125 1789.12207031 511.908203125 1789.12207031 514.241210938 1780.01953125 c 0,75,76
 515.4140625 1775.44628906 515.4140625 1775.44628906 517.142578125 1771.36035156 c 128,-1,77
 518.872070312 1767.2734375 518.872070312 1767.2734375 521.16015625 1763.68359375 c 128,-1,78
 523.444335938 1760.09960938 523.444335938 1760.09960938 526.319335938 1756.87988281 c 128,-1,79
 529.1953125 1753.66113281 529.1953125 1753.66113281 532.650390625 1750.81445312 c 0,80,81
 543.338867188 1742.01074219 543.338867188 1742.01074219 554.823242188 1737.58300781 c 128,-1,82
 566.30859375 1733.15429688 566.30859375 1733.15429688 578.560546875 1733.15429688 c 0,83,84
 629.838867188 1734.62695312 629.838867188 1734.62695312 640.8515625 1775.19726562 c 0,85,86
 641.721679688 1778.40039062 641.721679688 1778.40039062 642.299804688 1781.47558594 c 128,-1,87
 642.877929688 1784.5546875 642.877929688 1784.5546875 643.15625 1787.40136719 c 2,88,-1
 643.435546875 1792.97167969 l 2,89,90
 643.435546875 1848.36523438 643.435546875 1848.36523438 543.17578125 1879.19433594 c 2,91,-1
 534.140625 1881.9765625 l 1,92,-1
 532.422851562 1882.50488281 l 1,93,-1
 531.713867188 1880.85253906 l 1,69,-1
EndSplineSet
EndChar

StartChar: uni065A
Encoding: 1626 1626 58
Width: 1295
VWidth: 2551
GlyphClass: 4
Flags: W
AnchorPoint: "Anchor-10" 648 1488.29 mark 0
AnchorPoint: "Anchor-9" 648 1488.29 mark 0
AnchorPoint: "Anchor-1" 645.488 2053.43 basemark 0
AnchorPoint: "Anchor-1" 648 1488.29 mark 0
LayerCount: 2
Fore
SplineSet
562.7421875 1587.69628906 m 1,0,-1
 348.529296875 1945.81835938 l 1,1,-1
 341.287109375 1957.92480469 l 1,2,-1
 355.39453125 1957.92480469 l 1,3,-1
 471.013671875 1957.92480469 l 1,4,-1
 475.294921875 1957.92480469 l 1,5,-1
 477.669921875 1954.36230469 l 1,6,-1
 646.3359375 1701.36035156 l 1,7,-1
 648 1698.86425781 l 1,8,-1
 649.6640625 1701.36035156 l 1,9,-1
 818.327148438 1954.36230469 l 1,10,-1
 820.702148438 1957.92480469 l 1,11,-1
 824.983398438 1957.92480469 l 1,12,-1
 940.604492188 1957.92480469 l 1,13,-1
 954.711914062 1957.92480469 l 1,14,-1
 947.469726562 1945.81835938 l 1,15,-1
 733.25390625 1587.69628906 l 1,16,-1
 730.92578125 1583.80273438 l 1,17,-1
 726.388671875 1583.80273438 l 1,18,-1
 569.607421875 1583.80273438 l 1,19,-1
 565.0703125 1583.80273438 l 1,20,-1
 562.7421875 1587.69628906 l 1,0,-1
EndSplineSet
EndChar

StartChar: afii57392
Encoding: 1632 1632 59
Width: 936
VWidth: 2586
GlyphClass: 2
Flags: W
LayerCount: 2
Fore
SplineSet
145.262695312 535.380859375 m 0,0,1
 147.8515625 669.951171875 147.8515625 669.951171875 240.774414062 762.875976562 c 0,2,3
 286.942382812 809.04296875 286.942382812 809.04296875 344.26953125 832.811523438 c 128,-1,4
 401.595703125 856.581054688 401.595703125 856.581054688 468.26953125 857.22265625 c 0,5,6
 535.333984375 856.577148438 535.333984375 856.577148438 592.272460938 832.959960938 c 128,-1,7
 649.356445312 809.283203125 649.356445312 809.283203125 695.764648438 762.875976562 c 0,8,9
 718.862304688 739.778320312 718.862304688 739.778320312 736.350585938 713.994140625 c 128,-1,10
 753.974609375 688.012695312 753.974609375 688.012695312 765.848632812 659.384765625 c 128,-1,11
 777.70703125 630.795898438 777.70703125 630.795898438 783.77734375 599.698242188 c 0,12,13
 785.813476562 589.266601562 785.813476562 589.266601562 787.1796875 578.794921875 c 128,-1,14
 788.544921875 568.323242188 788.544921875 568.323242188 789.2734375 557.534179688 c 128,-1,15
 790.001953125 546.74609375 790.001953125 546.74609375 790.111328125 535.380859375 c 0,16,17
 789.469726562 468.690429688 789.469726562 468.690429688 765.706054688 411.376953125 c 128,-1,18
 741.94140625 354.063476562 741.94140625 354.063476562 695.764648438 307.885742188 c 0,19,20
 689.200195312 301.321289062 689.200195312 301.321289062 682.3984375 295.197265625 c 128,-1,21
 675.59765625 289.072265625 675.59765625 289.072265625 668.543945312 283.376953125 c 128,-1,22
 661.490234375 277.681640625 661.490234375 277.681640625 654.212890625 272.440429688 c 128,-1,23
 646.935546875 267.200195312 646.935546875 267.200195312 639.409179688 262.401367188 c 128,-1,24
 631.883789062 257.602539062 631.883789062 257.602539062 624.147460938 253.272460938 c 128,-1,25
 616.411132812 248.942382812 616.411132812 248.942382812 608.430664062 245.068359375 c 128,-1,26
 600.450195312 241.193359375 600.450195312 241.193359375 592.2734375 237.801757812 c 0,27,28
 577.916992188 231.846679688 577.916992188 231.846679688 563.009765625 227.366210938 c 128,-1,29
 548.102539062 222.884765625 548.102539062 222.884765625 532.6171875 219.869140625 c 128,-1,30
 517.131835938 216.853515625 517.131835938 216.853515625 501.080078125 215.27734375 c 128,-1,31
 485.028320312 213.700195312 485.028320312 213.700195312 468.26953125 213.5390625 c 0,32,33
 333.829101562 214.833007812 333.829101562 214.833007812 240.774414062 307.88671875 c 0,34,35
 194.774414062 353.887695312 194.774414062 353.887695312 170.657226562 411.442382812 c 128,-1,36
 146.540039062 468.997070312 146.540039062 468.997070312 145.262695312 535.380859375 c 0,0,1
358.71875 536.366210938 m 4,37,38
 359 528 359 528 359.83984375 520.440429688 c 4,39,40
 361 513 361 513 362.654296875 506.254882812 c 4,41,42
 364 500 364 500 367.18359375 493.140625 c 4,43,44
 375 474 375 474 391.52734375 457.986328125 c 4,45,46
 423 426 423 426 469.1328125 425.783203125 c 4,47,48
 515 426 515 426 546.72265625 457.984375 c 4,49,50
 579 490 579 490 578.926757812 535.200195312 c 4,51,52
 579 545 579 545 577.369140625 553.407226562 c 4,53,54
 576 562 576 562 573.39453125 570.037109375 c 4,55,56
 572 574 572 574 570.529296875 577.815429688 c 4,57,58
 569 582 569 582 567.05859375 585.317382812 c 4,59,60
 565 589 565 589 562.95703125 592.599609375 c 132,-1,61
 561 596 561 596 558.201171875 599.672851562 c 4,62,63
 556 603 556 603 552.7578125 606.53125 c 4,64,65
 550 610 550 610 546.717773438 613.1875 c 4,66,67
 530 630 530 630 510.78125 637.559570312 c 4,68,69
 492 645 492 645 469.512695312 645.385742188 c 4,70,71
 423 644 423 644 391.525390625 613.1796875 c 4,72,73
 358 579 358 579 358.71875 536.366210938 c 4,37,38
EndSplineSet
EndChar

StartChar: afii57393
Encoding: 1633 1633 60
Width: 702
VWidth: 2586
GlyphClass: 2
Flags: W
LayerCount: 2
Fore
SplineSet
467.849609375 3.9091796875 m 1,0,-1
 296.870117188 3.9091796875 l 1,1,-1
 261.870117188 3.9091796875 l 1,2,-1
 261.870117188 38.9091796875 l 1,3,-1
 261.870117188 355.0078125 l 6,4,5
 261.999909359 818.676195726 261.999909359 818.676195726 141.946289062 1220.66601562 c 6,6,-1
 132.063476562 1253.7578125 l 5,7,-1
 165.01953125 1264.08105469 l 5,8,-1
 327.203125 1314.88574219 l 5,9,-1
 361.028320312 1325.48144531 l 5,10,-1
 371.1953125 1291.52636719 l 6,11,12
 502.849609375 852.501504509 502.849609375 852.501504509 502.849609375 354 c 6,13,-1
 502.849609375 38.9091796875 l 1,14,-1
 502.849609375 3.9091796875 l 1,15,-1
 467.849609375 3.9091796875 l 1,0,-1
EndSplineSet
EndChar

StartChar: afii57394
Encoding: 1634 1634 61
Width: 1138
VWidth: 2586
GlyphClass: 2
Flags: W
LayerCount: 2
Fore
SplineSet
501.8515625 274.9140625 m 6,0,-1
 501.864257812 38.91015625 l 1,1,-1
 501.865234375 3.9091796875 l 1,2,-1
 466.864257812 3.9091796875 l 1,3,-1
 296.094726562 3.9091796875 l 1,4,-1
 261.096679688 3.9091796875 l 1,5,-1
 261.094726562 38.9072265625 l 1,6,-1
 261.076171875 274.88671875 l 6,7,8
 261.000004421 817.968475323 261.000004421 817.968475323 142.796875 1221.29101562 c 6,9,-1
 133.090820312 1254.40917969 l 5,10,-1
 166.068359375 1264.58007812 l 5,11,-1
 329.208007812 1314.89746094 l 5,12,-1
 365.360351562 1326.04785156 l 5,13,-1
 373.668945312 1289.13867188 l 5,14,-1
 417.229492188 1095.63769531 l 6,15,16
 427 1050 427 1050 447.784179688 1015.67773438 c 4,17,18
 468 981 468 981 498.743164062 955.815429688 c 4,19,20
 557 907 557 907 655.4609375 906.381835938 c 4,21,22
 731 906 731 906 767.530273438 931.944335938 c 132,-1,23
 804 958 804 958 813.318359375 1014.50292969 c 4,24,25
 821.280273438 1067.87892947 821.280273438 1067.87892947 821.280273438 1187.87792969 c 6,26,-1
 821.280273438 1282.68945312 l 5,27,-1
 821.280273438 1317.69042969 l 5,28,-1
 856.280273438 1317.69042969 l 5,29,-1
 1020.61132812 1317.6875 l 5,30,-1
 1055.61035156 1317.68652344 l 5,31,-1
 1055.61035156 1282.6875 l 5,32,-1
 1055.61035156 1192.04296875 l 6,33,34
 1056 1160 1056 1160 1055.4296875 1142.87988281 c 4,35,36
 1055 1120 1055 1120 1054.61914062 1098.55664062 c 4,37,38
 1054 1077 1054 1077 1053.14550781 1058.83105469 c 4,39,40
 1052 1040 1052 1040 1050.98242188 1023.7890625 c 4,41,42
 1050 1007 1050 1007 1048.09570312 993.16796875 c 4,43,44
 1046 979 1046 979 1044.45898438 967.03125 c 4,45,46
 1036 916 1036 916 1018.99902344 873.6796875 c 4,47,48
 1002 831 1002 831 977.075195312 796.640625 c 4,49,50
 952 762 952 762 919.254882812 736.294921875 c 4,51,52
 886 710 886 710 846.157226562 692.752929688 c 4,53,54
 806 675 806 675 758.34765625 666.4140625 c 4,55,56
 711 658 711 658 656.442382812 657.407226562 c 4,57,58
 561 657 561 657 485.104492188 687.586914062 c 5,59,60
 502 536 502 536 501.8515625 274.9140625 c 6,0,-1
EndSplineSet
EndChar

StartChar: afii57395
Encoding: 1635 1635 62
Width: 1405
VWidth: 2586
GlyphClass: 2
Flags: W
LayerCount: 2
Fore
SplineSet
417.310546875 1085.26757812 m 6,0,1
 438.444819249 986.586990896 438.444819249 986.586990896 480.655273438 941.958007812 c 4,2,3
 523 898 523 898 587.99609375 899.143554688 c 4,4,5
 630 900 630 900 651.760742188 932.557617188 c 4,6,7
 673.23791229 965.363404487 673.23791229 965.363404487 673.405273438 1047.49609375 c 6,8,-1
 673.801757812 1242.07128906 l 5,9,-1
 673.873046875 1277 l 5,10,-1
 708.801757812 1277 l 5,11,-1
 872.076171875 1277 l 5,12,-1
 907.189453125 1277 l 5,13,-1
 907.076171875 1241.88671875 l 5,14,-1
 906.4140625 1037.38574219 l 6,15,16
 906 961 906 961 932.475585938 930.186523438 c 4,17,18
 959 899 959 899 1017.7421875 899.254882812 c 4,19,20
 1060 899 1060 899 1080.34082031 927.965820312 c 4,21,22
 1100.61902275 956.46457884 1100.61902275 956.46457884 1100.40429688 1031.671875 c 6,23,-1
 1099.69140625 1281.36035156 l 5,24,-1
 1099.59179688 1316.45996094 l 5,25,-1
 1134.69140625 1316.45996094 l 5,26,-1
 1297.08984375 1316.45996094 l 5,27,-1
 1331.91503906 1316.45996094 l 5,28,-1
 1332.08984375 1281.63476562 l 5,29,-1
 1333.0078125 1098.234375 l 6,30,31
 1334 886 1334 886 1256.89550781 771.669921875 c 4,32,33
 1180 657 1180 657 1024.71875 656.75 c 4,34,35
 952 657 952 657 894.299804688 680.252929688 c 4,36,37
 837 704 837 704 798.569335938 750.841796875 c 5,38,39
 727 660 727 660 607.717773438 659.9140625 c 4,40,41
 585 660 585 660 563.727539062 662.370117188 c 4,42,43
 542 665 542 665 522.71484375 669.62109375 c 4,44,45
 503 674 503 674 485.788085938 681.497070312 c 5,46,47
 491 628 491 628 495.647460938 557.104492188 c 4,48,49
 501.841319236 465.350646345 501.841319236 465.350646345 501.8515625 274.922851562 c 6,50,-1
 501.864257812 38.91015625 l 1,51,-1
 501.865234375 3.9091796875 l 1,52,-1
 466.864257812 3.9091796875 l 1,53,-1
 296.094726562 3.9091796875 l 1,54,-1
 261.096679688 3.9091796875 l 1,55,-1
 261.094726562 38.9072265625 l 1,56,-1
 261.076171875 274.88671875 l 6,57,58
 261.000004421 817.968475323 261.000004421 817.968475323 142.796875 1221.29101562 c 6,59,-1
 133.090820312 1254.40917969 l 5,60,-1
 166.068359375 1264.58007812 l 5,61,-1
 329.186523438 1314.890625 l 5,62,-1
 365.719726562 1326.15820312 l 5,63,-1
 373.725585938 1288.77539062 l 5,64,-1
 417.310546875 1085.26757812 l 6,0,1
EndSplineSet
EndChar

StartChar: afii57396
Encoding: 1636 1636 63
Width: 966
VWidth: 2591
GlyphClass: 2
Flags: W
LayerCount: 2
Fore
SplineSet
107.434570312 318.243164062 m 0,0,1
 108.96875 518.815429688 108.96875 518.815429688 400.587890625 676.926757812 c 2,2,-1
 403.826171875 678.681640625 l 1,3,-1
 411.923828125 683.0703125 l 1,4,-1
 403.833007812 687.470703125 l 1,5,-1
 400.59765625 689.23046875 l 2,6,7
 273.350585938 758.439453125 273.350585938 758.439453125 210.090820312 833.692382812 c 128,-1,8
 146.831054688 908.9453125 146.831054688 908.9453125 146.670898438 989.981445312 c 0,9,10
 146.993164062 1293.04980469 146.993164062 1293.04980469 603.879882812 1294.72753906 c 2,11,-1
 743.171875 1295.23925781 l 1,12,-1
 776.006835938 1295.359375 l 1,13,-1
 776.291015625 1262.52539062 l 1,14,-1
 777.837890625 1084.1171875 l 1,15,-1
 778.125976562 1050.99902344 l 1,16,-1
 745.006835938 1050.83203125 l 1,17,-1
 607.165039062 1050.13671875 l 2,18,19
 583.04296875 1049.99121094 583.04296875 1049.99121094 562.104492188 1048.75390625 c 128,-1,20
 541.165039062 1047.51660156 541.165039062 1047.51660156 523.369140625 1045.18066406 c 0,21,22
 413.428710938 1030.74609375 413.428710938 1030.74609375 421.065429688 973.045898438 c 0,23,24
 432.673828125 891.786132812 432.673828125 891.786132812 745.067382812 796.734375 c 2,25,-1
 767.365234375 789.94921875 l 1,26,-1
 765.942382812 766.0390625 l 1,27,-1
 755.942382812 598.0390625 l 1,28,-1
 754.609375 575.658203125 l 1,29,-1
 733.311523438 568.653320312 l 2,30,31
 553.180664062 509.442382812 553.180664062 509.442382812 468.09765625 462.1171875 c 0,32,33
 379.983398438 413.107421875 379.983398438 413.107421875 380.208984375 356.295898438 c 0,34,35
 378.916015625 250.147460938 378.916015625 250.147460938 619.999023438 250.150390625 c 2,36,-1
 858.108398438 250.153320312 l 1,37,-1
 891.231445312 250.154296875 l 1,38,-1
 891.109375 217.03125 l 1,39,-1
 890.447265625 38.025390625 l 1,40,-1
 890.326171875 5.146484375 l 1,41,-1
 857.446289062 5.1474609375 l 1,42,-1
 620.009765625 5.150390625 l 2,43,44
 615.508789062 5.1494140625 615.508789062 5.1494140625 611.047851562 5.171875 c 128,-1,45
 606.586914062 5.1943359375 606.586914062 5.1943359375 602.1640625 5.2412109375 c 0,46,47
 104.134765625 10.4619140625 104.134765625 10.4619140625 107.434570312 318.243164062 c 0,0,1
EndSplineSet
EndChar

StartChar: afii57397
Encoding: 1637 1637 64
Width: 1172
VWidth: 2586
GlyphClass: 2
Flags: W
LayerCount: 2
Fore
SplineSet
572.176757812 978.27734375 m 6,0,1
 298.984375 660.096679688 298.984375 660.096679688 298.793945312 401.5234375 c 4,2,3
 298.87890625 325.706054688 298.87890625 325.706054688 370.359375 285.572265625 c 4,4,5
 440.435546875 246.227539062 440.435546875 246.227539062 598.879882812 246.440429688 c 4,6,7
 741.307617188 246.709960938 741.307617188 246.709960938 803.55859375 283.349609375 c 4,8,9
 867.099609375 320.749023438 867.099609375 320.749023438 867.169921875 391.711914062 c 4,10,11
 867.147460938 432.161132812 867.147460938 432.161132812 861.239257812 473.05078125 c 132,-1,12
 855.331054688 513.939453125 855.331054688 513.939453125 843.556640625 555.216796875 c 132,-1,13
 831.783203125 596.493164062 831.783203125 596.493164062 814.138671875 638.209960938 c 132,-1,14
 796.494140625 679.927734375 796.494140625 679.927734375 773.014648438 722.03125 c 132,-1,15
 749.53515625 764.133789062 749.53515625 764.133789062 720.19921875 806.678710938 c 132,-1,16
 690.864257812 849.223632812 690.864257812 849.223632812 655.724609375 892.153320312 c 132,-1,17
 620.584960938 935.08203125 620.584960938 935.08203125 579.60546875 978.454101562 c 6,18,-1
 575.79296875 982.489257812 l 5,19,-1
 572.176757812 978.27734375 l 6,0,1
353.728515625 1194.41503906 m 5,20,-1
 449.625976562 1342.63085938 l 5,21,-1
 466.647460938 1368.93847656 l 5,22,-1
 492.189453125 1350.7890625 l 6,23,24
 1098.98242188 919.64453125 1098.98242188 919.64453125 1099.62890625 410.1171875 c 4,25,26
 1099.82617188 207.05859375 1099.82617188 207.05859375 972.33984375 103.624023438 c 4,27,28
 844.385742188 -0.19140625 844.385742188 -0.19140625 602.040039062 0.6708984375 c 4,29,30
 344.760742188 1.3544921875 344.760742188 1.3544921875 208.400390625 102.404296875 c 4,31,32
 73.1884765625 203.931640625 73.1884765625 203.931640625 72.4404296875 401.072265625 c 4,33,34
 72.001953125 740.94921875 72.001953125 740.94921875 390.086914062 1126.87695312 c 6,35,-1
 393.508789062 1131.02832031 l 5,36,-1
 389.118164062 1134.13769531 l 5,37,-1
 361.581054688 1153.63378906 l 5,38,-1
 338.098632812 1170.25878906 l 5,39,-1
 353.728515625 1194.41503906 l 5,20,-1
EndSplineSet
EndChar

StartChar: afii57398
Encoding: 1638 1638 65
Width: 1196
VWidth: 2586
GlyphClass: 2
Flags: W
LayerCount: 2
Fore
SplineSet
113.4921875 1316.12402344 m 5,0,-1
 642.967773438 1316.68652344 l 6,1,2
 817 1317 817 1317 907.889648438 1218.15625 c 4,3,4
 999 1119 999 1119 999 934 c 6,5,-1
 999 38.9091796875 l 1,6,-1
 999 3.9091796875 l 1,7,-1
 964 3.9091796875 l 1,8,-1
 795.5703125 3.9091796875 l 1,9,-1
 760.5703125 3.9091796875 l 1,10,-1
 760.5703125 38.9091796875 l 1,11,-1
 760.571289062 930.04296875 l 6,12,13
 760.973373708 975.02149446 760.973373708 975.02149446 748.528320312 1001.36425781 c 4,14,15
 735 1030 735 1030 709.943359375 1040.17773438 c 4,16,17
 676.865385385 1052.41992188 676.865385385 1052.41992188 639 1052.41992188 c 6,18,-1
 113.526367188 1052.41992188 l 5,19,-1
 78.5263671875 1052.41992188 l 5,20,-1
 78.5263671875 1087.41992188 l 5,21,-1
 78.5263671875 1281.12402344 l 5,22,-1
 78.5263671875 1316.08984375 l 5,23,-1
 113.4921875 1316.12402344 l 5,0,-1
EndSplineSet
EndChar

StartChar: afii57399
Encoding: 1639 1639 66
Width: 1201
VWidth: 2586
GlyphClass: 2
Flags: W
LayerCount: 2
Fore
SplineSet
600.106445312 490.596679688 m 5,0,1
 706.191786544 871.68895825 706.191786544 871.68895825 908.169921875 1305.04589844 c 6,2,-1
 923.633789062 1338.22460938 l 5,3,-1
 956.086914062 1321.28808594 l 5,4,-1
 1113.71386719 1239.02636719 l 5,5,-1
 1144.94921875 1222.72558594 l 5,6,-1
 1128.44140625 1191.59960938 l 6,7,8
 800.380815957 573.717243921 800.380815957 573.717243921 707.771484375 33 c 2,9,-1
 702.7890625 3.9091796875 l 1,10,-1
 673.274414062 3.9091796875 l 1,11,-1
 527.690429688 3.9091796875 l 1,12,-1
 498.174804688 3.9091796875 l 1,13,-1
 493.192382812 33.001953125 l 2,14,15
 401.180902565 571.940400187 401.180902565 571.940400187 72.5244140625 1191.59765625 c 6,16,-1
 56.0146484375 1222.72558594 l 5,17,-1
 87.2509765625 1239.02636719 l 5,18,-1
 244.877929688 1321.28808594 l 5,19,-1
 277.329101562 1338.22363281 l 5,20,-1
 292.793945312 1305.046875 l 6,21,22
 495 871 495 871 600.106445312 490.596679688 c 5,0,1
EndSplineSet
EndChar

StartChar: afii57400
Encoding: 1640 1640 67
Width: 1201
VWidth: 2586
GlyphClass: 2
Flags: W
LayerCount: 2
Fore
SplineSet
600.8671875 819.334960938 m 1,0,1
 494.807101717 438.306999999 494.807101717 438.306999999 292.794921875 4.8642578125 c 2,2,-1
 277.331054688 -28.3154296875 l 1,3,-1
 244.877929688 -11.37890625 l 1,4,-1
 87.2509765625 70.8828125 l 1,5,-1
 56.0166015625 87.1826171875 l 1,6,-1
 72.5234375 118.309570312 l 2,7,8
 400.593635125 736.23460579 400.593635125 736.23460579 493.192382812 1276.90820312 c 6,9,-1
 498.174804688 1306 l 5,10,-1
 527.690429688 1306 l 5,11,-1
 673.275390625 1306 l 5,12,-1
 702.7890625 1306 l 5,13,-1
 707.772460938 1276.91015625 l 6,14,15
 799.822206874 738.040820511 799.822206874 738.040820511 1128.44238281 118.307617188 c 2,16,-1
 1144.94726562 87.181640625 l 1,17,-1
 1113.71386719 70.8828125 l 1,18,-1
 956.086914062 -11.3779296875 l 1,19,-1
 923.631835938 -28.3154296875 l 1,20,-1
 908.168945312 4.8671875 l 2,21,22
 706 439 706 439 600.8671875 819.334960938 c 1,0,1
EndSplineSet
EndChar

StartChar: afii57401
Encoding: 1641 1641 68
Width: 1147
VWidth: 2586
GlyphClass: 2
Flags: W
LayerCount: 2
Fore
SplineSet
708.274414062 274.959960938 m 5,0,-1
 707.5625 564.094726562 l 5,1,2
 615 524 615 524 501.341796875 524.34375 c 4,3,4
 294 525 294 525 190.05078125 646.24609375 c 4,5,6
 144 701 144 701 120.494140625 762.690429688 c 4,7,8
 97 825 97 825 97.05859375 892.545898438 c 4,9,10
 97 1078 97 1078 197.694335938 1187.46289062 c 4,11,12
 240 1233 240 1233 291.774414062 1263.94238281 c 4,13,14
 344 1295 344 1295 404.791015625 1309.82128906 c 4,15,16
 466 1325 466 1325 535 1325 c 4,17,18
 713 1325 713 1325 813.4765625 1221.81542969 c 4,19,20
 915.183437742 1117.7895792 915.183437742 1117.7895792 931.841796875 923.0625 c 4,21,22
 941 821 941 821 944.926757812 658.83984375 c 4,23,24
 949.25390625 486.911685597 949.25390625 486.911685597 949.25390625 274 c 6,25,-1
 949.25390625 38.9091796875 l 1,26,-1
 949.25390625 3.9091796875 l 1,27,-1
 914.25390625 3.9091796875 l 1,28,-1
 743.274414062 3.9091796875 l 1,29,-1
 708.274414062 3.9091796875 l 1,30,-1
 708.274414062 38.9091796875 l 1,31,-1
 708.274414062 274.959960938 l 5,0,-1
513.999023438 761.966796875 m 4,32,33
 574 762 574 762 618.811523438 777.473632812 c 4,34,35
 664 793 664 793 694.875976562 822.686523438 c 5,36,37
 693 883 693 883 680.538085938 965.112304688 c 4,38,39
 677 985 677 985 671.467773438 1001.5078125 c 132,-1,40
 666 1018 666 1018 657.751953125 1030.03222656 c 4,41,42
 650 1042 650 1042 639.665039062 1051.56835938 c 4,43,44
 604 1084 604 1084 534.473632812 1083.76757812 c 4,45,46
 417 1084 417 1084 366.234375 1010.37109375 c 4,47,48
 332 962 332 962 332.166992188 894.354492188 c 4,49,50
 332 860 332 860 341.91015625 836.361328125 c 4,51,52
 351 812 351 812 372.764648438 795.2578125 c 4,53,54
 394 778 394 778 428.9765625 770.125 c 4,55,56
 464 762 464 762 513.999023438 761.966796875 c 4,32,33
EndSplineSet
EndChar

StartChar: afii57381
Encoding: 1642 1642 69
Width: 1291
VWidth: 2591
GlyphClass: 2
Flags: W
LayerCount: 2
Fore
SplineSet
762.73741134 296.348307661 m 0,0,1
 762.73741134 299.042412688 762.73741134 299.042412688 762.780999131 301.480987146 c 128,-1,2
 762.824586922 303.919561604 762.824586922 303.919561604 762.930025605 306.484441694 c 128,-1,3
 763.035464288 309.049321784 763.035464288 309.049321784 763.203745333 311.471078533 c 128,-1,4
 763.375965044 313.944635662 763.375965044 313.944635662 763.611092414 316.392281825 c 128,-1,5
 763.846219784 318.839927989 763.846219784 318.839927989 764.144077321 321.260587359 c 128,-1,6
 764.441934858 323.681246729 764.441934858 323.681246729 764.802739218 326.077317119 c 0,7,8
 765.883079527 333.257118319 765.883079527 333.257118319 767.529409045 340.206811338 c 0,9,10
 768.352132527 343.679795074 768.352132527 343.679795074 769.316296823 347.096084222 c 128,-1,11
 770.280461118 350.51237337 770.280461118 350.51237337 771.386195931 353.872707628 c 0,12,13
 773.597265007 360.592158874 773.597265007 360.592158874 776.372814353 367.086129398 c 0,14,15
 777.761317214 370.333709639 777.761317214 370.333709639 779.291899319 373.52686551 c 128,-1,16
 780.822481423 376.720021381 780.822481423 376.720021381 782.495528554 379.85941444 c 0,17,18
 785.842957381 386.140704802 785.842957381 386.140704802 789.759342678 392.201754692 c 0,19,20
 791.718771335 395.234667282 791.718771335 395.234667282 793.822064522 398.215008054 c 128,-1,21
 795.92535771 401.195348826 795.92535771 401.195348826 798.17195019 404.12205001 c 128,-1,22
 800.420809069 407.051084057 800.420809069 407.051084057 802.813769705 409.927446505 c 128,-1,23
 805.20673034 412.803808953 805.20673034 412.803808953 807.74316138 415.626457615 c 0,24,25
 812.824111948 421.279694712 812.824111948 421.279694712 818.504291286 426.739526396 c 0,26,27
 873.952035458 480.716250686 873.952035458 480.716250686 950.876274397 480.545910626 c 0,28,29
 975.881433681 480.601122261 975.881433681 480.601122261 999.410710221 474.461726636 c 0,30,31
 1011.16909562 471.394239066 1011.16909562 471.394239066 1022.32470674 466.855944438 c 0,32,33
 1026.04286226 465.343205858 1026.04286226 465.343205858 1029.69469859 463.666855719 c 128,-1,34
 1033.34653492 461.99050558 1033.34653492 461.99050558 1036.93396009 460.149558734 c 128,-1,35
 1040.52138527 458.308611887 1040.52138527 458.308611887 1044.04387719 456.303232823 c 0,36,37
 1065.19293494 444.263191485 1065.19293494 444.263191485 1083.24535818 426.713177789 c 0,38,39
 1139.4090436 372.649939884 1139.4090436 372.649939884 1138.98429668 296.348480913 c 0,40,41
 1139.40904014 220.871474507 1139.40904014 220.871474507 1083.36216655 166.095929859 c 0,42,43
 1055.44074497 138.755270026 1055.44074497 138.755270026 1022.41993765 125.31137403 c 128,-1,44
 989.399130333 111.867478033 989.399130333 111.867478033 950.860368706 112.14857037 c 0,45,46
 873.951862371 111.588145897 873.951862371 111.588145897 818.350838128 166.104476327 c 0,47,48
 762.239502489 220.872357356 762.239502489 220.872357356 762.73741134 296.348307661 c 0,0,1
152.406386226 1102.64880525 m 0,49,50
 152.011028106 1178.88639588 152.011028106 1178.88639588 208.159369004 1233.03955535 c 0,51,52
 264.0170234 1286.99658381 264.0170234 1286.99658381 340.48011086 1286.85966735 c 0,53,54
 417.959322625 1286.02177633 417.959322625 1286.02177633 472.910077465 1233.03072711 c 0,55,56
 486.731244009 1219.69516204 486.731244009 1219.69516204 497.102192416 1204.92482279 c 128,-1,57
 507.473140823 1190.15448355 507.473140823 1190.15448355 514.435210605 1173.87028418 c 128,-1,58
 521.397280387 1157.58608481 521.397280387 1157.58608481 524.945686827 1139.78613086 c 128,-1,59
 528.494093267 1121.98617692 528.494093267 1121.98617692 528.653776509 1102.59456855 c 0,60,61
 528.990921666 1077.63822936 528.990921666 1077.63822936 522.702284787 1054.65505209 c 0,62,63
 520.591205897 1047.10527221 520.591205897 1047.10527221 517.827802689 1039.75847728 c 128,-1,64
 515.064399481 1032.41168234 515.064399481 1032.41168234 511.657945301 1025.2904204 c 128,-1,65
 508.251491122 1018.16915846 508.251491122 1018.16915846 504.209461393 1011.28816679 c 0,66,67
 492.042037569 991.118709271 492.042037569 991.118709271 473.093264166 972.426167711 c 0,68,69
 417.960324183 918.986302252 417.960324183 918.986302252 340.499887082 918.461827568 c 0,70,71
 264.016467664 918.01194748 264.016467664 918.01194748 208.039902909 972.398204069 c 0,72,73
 180.197314104 999.882419144 180.197314104 999.882419144 166.005799733 1032.39589198 c 128,-1,74
 152.010810011 1065.00250151 152.010810011 1065.00250151 152.406386226 1102.64880525 c 0,49,50
905.108872988 1345.87105616 m 5,75,-1
 1060.42044558 1267.5028673 l 5,76,-1
 1090.57187293 1252.28908449 l 5,77,-1
 370.990176407 2.37573095469 l 1,78,-1
 341.93870409 17.7355845703 l 1,79,-1
 188.574464714 98.826395135 l 1,80,-1
 159.292311454 114.30938856 l 1,81,-1
 876.315913734 1360.39995734 l 5,82,-1
 905.108872988 1345.87105616 l 5,75,-1
EndSplineSet
EndChar

StartChar: uni066B
Encoding: 1643 1643 70
Width: 667
VWidth: 2551
GlyphClass: 2
Flags: W
LayerCount: 2
Fore
SplineSet
38.9482421875 -204.85546875 m 1,0,-1
 438.0078125 581.62109375 l 1,1,-1
 445.946289062 597.267578125 l 1,2,-1
 461.791015625 589.731445312 l 1,3,-1
 584.731445312 531.254882812 l 1,4,-1
 601.327148438 523.361328125 l 1,5,-1
 593.090820312 506.93359375 l 1,6,-1
 197.9375 -281.315429688 l 1,7,-1
 190.041015625 -297.068359375 l 1,8,-1
 174.124023438 -289.5078125 l 1,9,-1
 47.27734375 -229.258789062 l 1,10,-1
 30.587890625 -221.33203125 l 1,11,-1
 38.9482421875 -204.85546875 l 1,0,-1
EndSplineSet
EndChar

StartChar: uni066C
Encoding: 1644 1644 71
Width: 592
VWidth: 2302
GlyphClass: 2
Flags: W
LayerCount: 2
Fore
SplineSet
299.39453125 277.99609375 m 0,0,1
 317.21875 277.590820312 317.21875 277.590820312 333.17578125 275.178710938 c 128,-1,2
 349.131835938 272.766601562 349.131835938 272.766601562 363.200195312 268.353515625 c 128,-1,3
 377.267578125 263.94140625 377.267578125 263.94140625 389.463867188 257.547851562 c 128,-1,4
 401.66015625 251.154296875 401.66015625 251.154296875 412.015625 242.770507812 c 0,5,6
 453.3984375 209.263671875 453.3984375 209.263671875 459.090820312 146.446289062 c 0,7,8
 463.663085938 95.3076171875 463.663085938 95.3076171875 458.20703125 43.677734375 c 128,-1,9
 452.751953125 -7.953125 452.751953125 -7.953125 437.259765625 -60.109375 c 0,10,11
 378.936523438 -257.989257812 378.936523438 -257.989257812 177.435546875 -349.392578125 c 2,12,-1
 166.583007812 -354.315429688 l 1,13,-1
 157.8125 -346.247070312 l 1,14,-1
 107.8125 -300.247070312 l 1,15,-1
 89.50390625 -283.40234375 l 1,16,-1
 111.23046875 -271.28125 l 2,17,18
 195.728515625 -224.139648438 195.728515625 -224.139648438 244.883789062 -162.0234375 c 128,-1,19
 294.0390625 -99.90625 294.0390625 -99.90625 307.7265625 -23.251953125 c 2,20,-1
 308.192382812 -20.6123046875 l 1,21,-1
 305.81640625 -20.60546875 l 2,22,23
 293.18359375 -20.5634765625 293.18359375 -20.5634765625 286.624023438 -19.990234375 c 0,24,25
 213.447265625 -15.9150390625 213.447265625 -15.9150390625 174.625976562 20.5830078125 c 128,-1,26
 135.918945312 56.9736328125 135.918945312 56.9736328125 137.076171875 122.286132812 c 0,27,28
 138.125 199.0390625 138.125 199.0390625 180.150390625 239.330078125 c 128,-1,29
 222.181640625 279.626953125 222.181640625 279.626953125 299.39453125 277.99609375 c 0,0,1
EndSplineSet
EndChar

StartChar: afii63167
Encoding: 1645 1645 72
Width: 1411
VWidth: 2551
GlyphClass: 2
Flags: W
LayerCount: 2
Fore
SplineSet
198.916992188 906.817382812 m 1,0,-1
 583.680664062 906.817382812 l 1,1,-1
 585.12890625 906.817382812 l 1,2,-1
 585.581054688 908.193359375 l 1,3,-1
 705.771484375 1274.12109375 l 1,4,-1
 825.956054688 908.193359375 l 1,5,-1
 826.408203125 906.817382812 l 1,6,-1
 827.856445312 906.817382812 l 1,7,-1
 1212.62207031 906.817382812 l 1,8,-1
 901.762695312 679.5703125 l 1,9,-1
 900.592773438 678.71484375 l 1,10,-1
 901.041992188 677.336914062 l 1,11,-1
 1019.94921875 312.037109375 l 1,12,-1
 706.943359375 538.21875 l 1,13,-1
 705.771484375 539.065429688 l 1,14,-1
 704.600585938 538.21875 l 1,15,-1
 391.588867188 312.037109375 l 1,16,-1
 510.497070312 677.336914062 l 1,17,-1
 510.946289062 678.71484375 l 1,18,-1
 509.776367188 679.5703125 l 1,19,-1
 198.916992188 906.817382812 l 1,0,-1
EndSplineSet
EndChar

StartChar: uni066E
Encoding: 1646 1646 73
Width: 1901
VWidth: 2586
GlyphClass: 2
Flags: W
AnchorPoint: "Anchor-10" 879.751 1262.53 basechar 0
AnchorPoint: "Anchor-7" 879.751 -181.707 basechar 0
LayerCount: 2
Fore
SplineSet
536.549804688 250 m 2,0,-1
 1373.10546875 250 l 2,1,2
 1484.9140625 250.004882812 1484.9140625 250.004882812 1536.29882812 304.220703125 c 128,-1,3
 1587.68261719 358.435546875 1587.68261719 358.435546875 1587.68261719 478.366210938 c 2,4,-1
 1587.68261719 674.75 l 1,5,-1
 1587.68261719 709.75 l 1,6,-1
 1622.68261719 709.75 l 1,7,-1
 1797.44042969 709.75 l 1,8,-1
 1832.44042969 709.75 l 1,9,-1
 1832.44042969 674.75 l 1,10,-1
 1832.44042969 480.827148438 l 2,11,12
 1832.28710938 324.690429688 1832.28710938 324.690429688 1779.35058594 217.346679688 c 128,-1,13
 1726.4140625 110.002929688 1726.4140625 110.002929688 1622.30273438 55.009765625 c 128,-1,14
 1518.19140625 0.017578125 1518.19140625 0.017578125 1366.46484375 0 c 2,15,-1
 533.759765625 -0.0966796875 l 2,16,17
 305.365234375 -0.0458984375 305.365234375 -0.0458984375 186.296875 121.932617188 c 128,-1,18
 67.228515625 243.911132812 67.228515625 243.911132812 67.2275390625 476.977539062 c 2,19,-1
 67.2265625 677.66015625 l 1,20,-1
 67.2265625 712.66015625 l 1,21,-1
 102.2265625 712.66015625 l 1,22,-1
 276.984375 712.66015625 l 1,23,-1
 311.984375 712.66015625 l 1,24,-1
 311.984375 677.66015625 l 1,25,-1
 311.984375 477.54296875 l 2,26,27
 311.991210938 358.4921875 311.991210938 358.4921875 365.624023438 304.24609375 c 128,-1,28
 419.2578125 250 419.2578125 250 536.549804688 250 c 2,0,-1
EndSplineSet
Substitution2: "'init' Initial Forms in Arabic lookup 13 subtable" uni066E.init
Substitution2: "'medi' Medial Forms in Arabic lookup 11 subtable" uni066E.medi
Substitution2: "'fina' Terminal Forms in Arabic lookup 9 subtable" uni066E.fina
EndChar

StartChar: uni066F
Encoding: 1647 1647 74
Width: 1434
VWidth: 2586
GlyphClass: 2
Flags: W
AnchorPoint: "Anchor-10" 353.676 1194.52 basechar 0
AnchorPoint: "Anchor-7" 425.271 -680.467 basechar 0
LayerCount: 2
Fore
SplineSet
1363.96777344 392.9921875 m 2,0,-1
 1366.15039062 -31.3056640625 l 2,1,2
 1367.14941406 -240.809570312 1367.14941406 -240.809570312 1218.69824219 -346.405273438 c 128,-1,3
 1070.24707031 -452 1070.24707031 -452 789.385742188 -452 c 2,4,-1
 691.127929688 -452 l 2,5,6
 254.653320312 -450.598632812 254.653320312 -450.598632812 122.133789062 -151.193359375 c 0,7,8
 68.666015625 -29.2353515625 68.666015625 -29.2353515625 68.12109375 136.875976562 c 2,9,-1
 68.0009765625 476.995117188 l 1,10,-1
 67.98828125 511.875976562 l 1,11,-1
 102.869140625 512.0078125 l 1,12,-1
 277.74609375 512.666992188 l 1,13,-1
 312.877929688 512.798828125 l 1,14,-1
 312.877929688 477.666992188 l 1,15,-1
 312.877929688 138.103515625 l 2,16,17
 312.934570312 -34.3916015625 312.934570312 -34.3916015625 404.791015625 -116.163085938 c 128,-1,18
 496.646484375 -197.934570312 496.646484375 -197.934570312 693.151367188 -196.712890625 c 2,19,-1
 787.58203125 -196.125976562 l 2,20,21
 967.084960938 -195.100585938 967.084960938 -195.100585938 1046.5078125 -151.729492188 c 128,-1,22
 1125.93066406 -108.358398438 1125.93066406 -108.358398438 1125.20996094 -28.2216796875 c 2,23,-1
 1125.20996094 2.98046875 l 1,24,-1
 997.344726562 2.98046875 l 2,25,26
 810.55859375 2.9912109375 810.55859375 2.9912109375 712.1015625 99.646484375 c 128,-1,27
 613.645507812 196.302734375 613.645507812 196.302734375 614.383789062 379.711914062 c 0,28,29
 615.041015625 577.658203125 615.041015625 577.658203125 710.953125 684.811523438 c 0,30,31
 810.090820312 796.959960938 810.090820312 796.959960938 995.759765625 797.463867188 c 0,32,33
 1159.36035156 798.047851562 1159.36035156 798.047851562 1258.51171875 701.534179688 c 0,34,35
 1362.9296875 600.010742188 1362.9296875 600.010742188 1363.96777344 392.9921875 c 2,0,-1
851.166992188 381.095703125 m 0,36,37
 851.096679688 311.87890625 851.096679688 311.87890625 884.318359375 281.393554688 c 128,-1,38
 917.541015625 250.908203125 917.541015625 250.908203125 996.321289062 250.874023438 c 2,39,-1
 1124.9296875 250.819335938 l 1,40,-1
 1124.56640625 386.782226562 l 2,41,42
 1124.30859375 479.137695312 1124.30859375 479.137695312 1092.51269531 517.849609375 c 128,-1,43
 1060.71679688 556.560546875 1060.71679688 556.560546875 992.021484375 556.248046875 c 0,44,45
 918.489257812 556.143554688 918.489257812 556.143554688 884.790039062 515.87109375 c 128,-1,46
 851.090820312 475.598632812 851.090820312 475.598632812 851.166992188 381.095703125 c 0,36,37
EndSplineSet
Substitution2: "'init' Initial Forms in Arabic lookup 13 subtable" uni066F.init
Substitution2: "'medi' Medial Forms in Arabic lookup 11 subtable" uni066F.medi
Substitution2: "'fina' Terminal Forms in Arabic lookup 9 subtable" uni066F.fina
EndChar

StartChar: uni0670
Encoding: 1648 1648 75
Width: 11
VWidth: 2551
GlyphClass: 4
Flags: W
AnchorPoint: "Anchor-10" 648 1488.29 mark 0
AnchorPoint: "Anchor-9" 648 1488.29 mark 0
AnchorPoint: "Anchor-1" 648 1984.6 basemark 0
AnchorPoint: "Anchor-1" 648 1488.29 mark 0
LayerCount: 2
Fore
SplineSet
601.571289062 1555.38378906 m 1,0,-1
 601.571289062 1917.51757812 l 1,1,-1
 601.571289062 1925.51757812 l 1,2,-1
 609.571289062 1925.51757812 l 1,3,-1
 686.427734375 1925.51757812 l 1,4,-1
 694.427734375 1925.51757812 l 1,5,-1
 694.427734375 1917.51757812 l 1,6,-1
 694.427734375 1555.38378906 l 1,7,-1
 694.427734375 1547.38378906 l 1,8,-1
 686.427734375 1547.38378906 l 1,9,-1
 609.571289062 1547.38378906 l 1,10,-1
 601.571289062 1547.38378906 l 1,11,-1
 601.571289062 1555.38378906 l 1,0,-1
EndSplineSet
EndChar

StartChar: uni0674
Encoding: 1652 1652 76
Width: 759
VWidth: 2551
GlyphClass: 2
Flags: W
LayerCount: 2
Fore
SplineSet
159.70703125 1782.32421875 m 1,0,-1
 246.987304688 1802.46484375 l 1,1,-1
 250.977539062 1803.38574219 l 1,2,-1
 247.797851562 1805.96679688 l 2,3,4
 186.001953125 1856.12304688 186.001953125 1856.12304688 186.018554688 1947.76757812 c 0,5,6
 185.999023438 2072.6640625 185.999023438 2072.6640625 290.84375 2132.01367188 c 0,7,8
 301.978515625 2138.15625 301.978515625 2138.15625 313.704101562 2143.09667969 c 128,-1,9
 325.4296875 2148.03710938 325.4296875 2148.03710938 337.751953125 2151.77636719 c 128,-1,10
 350.073242188 2155.515625 350.073242188 2155.515625 362.984375 2158.04980469 c 128,-1,11
 375.89453125 2160.58398438 375.89453125 2160.58398438 389.401367188 2161.9140625 c 128,-1,12
 402.908203125 2163.24414062 402.908203125 2163.24414062 417 2163.36621094 c 0,13,14
 499.294921875 2162.98925781 499.294921875 2162.98925781 563.5234375 2123.18457031 c 2,15,-1
 567.309570312 2120.83886719 l 1,16,-1
 567.309570312 2116.38476562 l 1,17,-1
 567.309570312 2001.42871094 l 1,18,-1
 567.309570312 1987.65136719 l 1,19,-1
 555.34375 1994.48046875 l 2,20,21
 508.884765625 2020.99609375 508.884765625 2020.99609375 441.8515625 2020.87792969 c 0,22,23
 413.983398438 2020.66699219 413.983398438 2020.66699219 393.532226562 2015.73828125 c 128,-1,24
 373.081054688 2010.81054688 373.081054688 2010.81054688 359.984375 2001.03320312 c 0,25,26
 333.697265625 1981.40820312 333.697265625 1981.40820312 333.44140625 1942.02539062 c 0,27,28
 333.307617188 1920.15625 333.307617188 1920.15625 341.798828125 1903.16113281 c 0,29,30
 344.63671875 1897.48144531 344.63671875 1897.48144531 348.540039062 1892.25488281 c 128,-1,31
 352.444335938 1887.02832031 352.444335938 1887.02832031 357.381835938 1882.28320312 c 128,-1,32
 362.318359375 1877.53710938 362.318359375 1877.53710938 368.299804688 1873.25097656 c 0,33,34
 386.158203125 1860.453125 386.158203125 1860.453125 413.927734375 1851.69433594 c 0,35,-1
 414.85546875 1851.62890625 l 1,36,-1
 584.376953125 1879.66308594 l 1,37,-1
 593.682617188 1881.20214844 l 1,38,-1
 593.682617188 1871.77050781 l 1,39,-1
 593.682617188 1750.89746094 l 1,40,-1
 593.682617188 1744.49414062 l 1,41,-1
 587.434570312 1743.09179688 l 1,42,-1
 163.2578125 1647.86328125 l 1,43,-1
 153.505859375 1645.67382812 l 1,44,-1
 153.505859375 1655.66894531 l 1,45,-1
 153.505859375 1774.52929688 l 1,46,-1
 153.505859375 1780.89355469 l 1,47,-1
 159.70703125 1782.32421875 l 1,0,-1
EndSplineSet
EndChar

StartChar: uni06A1
Encoding: 1697 1697 80
Width: 1886
VWidth: 2586
GlyphClass: 2
Flags: W
AnchorPoint: "Anchor-10" 504.245 1240.49 basechar 0
AnchorPoint: "Anchor-7" 521.19 -152.02 basechar 0
LayerCount: 2
Fore
SplineSet
1288.49121094 -0 m 2,0,-1
 533.759765625 -0.0966796875 l 2,1,2
 305 -0 305 -0 186.296875 121.932617188 c 0,3,4
 67.2286739173 243.766015442 67.2286739173 243.766015442 67.2275390625 476.977539062 c 2,5,-1
 67.2265625 677.66015625 l 1,6,-1
 67.2265625 712.66015625 l 1,7,-1
 102.2265625 712.66015625 l 1,8,-1
 276.984375 712.66015625 l 1,9,-1
 311.984375 712.66015625 l 1,10,-1
 311.984375 677.66015625 l 1,11,-1
 311.984375 477.54296875 l 2,12,13
 312 358 312 358 365.624023438 304.24609375 c 0,14,15
 419 250 419 250 536.549804688 250 c 2,16,-1
 1291.0234375 250 l 2,17,18
 1578 250 1578 250 1584.87988281 359.68359375 c 5,19,20
 1554 357 1554 357 1525.31542969 355.907226562 c 4,21,22
 1497 355 1497 355 1468.11035156 354.33984375 c 4,23,24
 1280 354 1280 354 1178.48144531 429.530273437 c 128,-1,25
 1077 505 1077 505 1076.89746094 661.306640625 c 0,26,27
 1077 706 1077 706 1082.81152344 746.706054688 c 0,28,29
 1089 787 1089 787 1100.65917969 822.541992188 c 0,30,31
 1125 895 1125 895 1174.21875 945.9453125 c 0,32,33
 1275 1050 1275 1050 1452.24902344 1050.38964844 c 0,34,35
 1630 1050 1630 1050 1724.59570312 957.2734375 c 0,36,37
 1818.87367904 864.124807778 1818.87367904 864.124807778 1818.79882812 688.643554688 c 2,38,-1
 1818.66308594 370.408203125 l 2,39,40
 1819 185 1819 185 1681.90429688 92.70703125 c 0,41,42
 1545 0 1545 0 1288.49121094 -0 c 2,0,-1
1585.93554688 691.454101562 m 2,43,44
 1585.87597656 734.004882812 1585.87597656 734.004882812 1573.08203125 759.51171875 c 128,-1,45
 1560.28808594 785.018554688 1560.28808594 785.018554688 1531.45214844 797.297851562 c 128,-1,46
 1502.6171875 809.578125 1502.6171875 809.578125 1454.03808594 809.401367188 c 0,47,48
 1432.98144531 809.3125 1432.98144531 809.3125 1415.44140625 806.43359375 c 128,-1,49
 1397.90234375 803.555664062 1397.90234375 803.555664062 1383.97558594 798.200195312 c 0,50,51
 1358.10058594 788.25 1358.10058594 788.25 1342.70410156 769.120117188 c 0,52,53
 1311.96191406 730.436523438 1311.96191406 730.436523438 1311.76855469 671.962890625 c 0,54,55
 1311.84863281 630.966796875 1311.84863281 630.966796875 1348.15625 609.166015625 c 128,-1,56
 1384.46289062 587.366210938 1384.46289062 587.366210938 1475.79199219 587.682617188 c 0,57,58
 1531.42675781 587.923828125 1531.42675781 587.923828125 1586.07128906 593.80078125 c 1,59,-1
 1585.93554688 691.454101562 l 2,43,44
EndSplineSet
Substitution2: "'init' Initial Forms in Arabic lookup 13 subtable" uni06A1.init
Substitution2: "'medi' Medial Forms in Arabic lookup 11 subtable" uni06A1.medi
Substitution2: "'fina' Terminal Forms in Arabic lookup 9 subtable" uni06A1.fina
EndChar

StartChar: uni06A9
Encoding: 1705 1705 81
Width: 1855
VWidth: 2586
GlyphClass: 2
Flags: W
AnchorPoint: "Anchor-10" 599.382 1388.15 basechar 0
AnchorPoint: "Anchor-7" 849.692 -197.794 basechar 0
LayerCount: 2
Fore
SplineSet
536.547851562 250 m 2,0,-1
 1260.25488281 250.096679688 l 2,1,2
 1377.45117188 250.051757812 1377.45117188 250.051757812 1426.23632812 276.236328125 c 128,-1,3
 1475.02148438 302.421875 1475.02148438 302.421875 1475.03222656 348.845703125 c 0,4,5
 1475.0234375 364.568359375 1475.0234375 364.568359375 1448.85058594 407.8046875 c 128,-1,6
 1422.67871094 451.041992188 1422.67871094 451.041992188 1372.15820312 508.657226562 c 2,7,-1
 1051.50097656 874.352539062 l 2,8,9
 994.846679688 939.010742188 994.846679688 939.010742188 995.948242188 1033.84765625 c 0,10,11
 996.563476562 1103.68359375 996.563476562 1103.68359375 1032.921875 1152.93554688 c 128,-1,12
 1069.28027344 1202.18652344 1069.28027344 1202.18652344 1136.27929688 1224.24804688 c 2,13,-1
 1760.87792969 1429.91503906 l 1,14,-1
 1806.82421875 1445.04394531 l 1,15,-1
 1806.82421875 1396.67089844 l 1,16,-1
 1806.82421875 1216.49316406 l 1,17,-1
 1806.82421875 1191.10644531 l 1,18,-1
 1782.69238281 1183.22363281 l 1,19,-1
 1262.296875 1013.23144531 l 1,20,-1
 1539.1171875 697.306640625 l 2,21,22
 1709.85058594 502.329101562 1709.85058594 502.329101562 1711.66113281 343.455078125 c 0,23,24
 1712.19238281 294.442382812 1712.19238281 294.442382812 1702.55859375 252.022460938 c 128,-1,25
 1692.92578125 209.602539062 1692.92578125 209.602539062 1673.67871094 174.771484375 c 128,-1,26
 1654.43164062 139.939453125 1654.43164062 139.939453125 1625.80371094 111.793945312 c 128,-1,27
 1597.17578125 83.6484375 1597.17578125 83.6484375 1559.77929688 62.828125 c 128,-1,28
 1522.38378906 42.0087890625 1522.38378906 42.0087890625 1476.38476562 27.990234375 c 128,-1,29
 1430.38574219 13.97265625 1430.38574219 13.97265625 1376.46582031 7.017578125 c 128,-1,30
 1322.54589844 0.0625 1322.54589844 0.0625 1260.8046875 0.001953125 c 2,31,-1
 1259.80371094 0.0009765625 l 1,32,-1
 1258.75585938 0 l 1,33,-1
 533.759765625 -0.0966796875 l 2,34,35
 305.365234375 -0.0458984375 305.365234375 -0.0458984375 186.296875 121.932617188 c 128,-1,36
 67.228515625 243.911132812 67.228515625 243.911132812 67.2275390625 476.977539062 c 2,37,-1
 67.2265625 677.66015625 l 1,38,-1
 67.2265625 712.66015625 l 1,39,-1
 102.2265625 712.66015625 l 1,40,-1
 276.984375 712.66015625 l 1,41,-1
 311.984375 712.66015625 l 1,42,-1
 311.984375 677.66015625 l 1,43,-1
 311.984375 477.54296875 l 2,44,45
 311.991210938 358.491210938 311.991210938 358.491210938 365.623046875 304.24609375 c 128,-1,46
 419.255859375 250 419.255859375 250 536.547851562 250 c 2,0,-1
EndSplineSet
Substitution2: "'init' Initial Forms in Arabic lookup 13 subtable" uniFB90
Substitution2: "'medi' Medial Forms in Arabic lookup 11 subtable" uniFB91
Substitution2: "'fina' Terminal Forms in Arabic lookup 9 subtable" uniFB8F
EndChar

StartChar: afii57514
Encoding: 1722 1722 83
Width: 1442
VWidth: 2586
GlyphClass: 2
Flags: W
AnchorPoint: "Anchor-10" 597.158 958.159 basechar 0
AnchorPoint: "Anchor-7" 701.132 -673.307 basechar 0
LayerCount: 2
Fore
SplineSet
1362.5625 86.142578125 m 2,0,1
 1358.70410156 -90.447265625 1358.70410156 -90.447265625 1287.12304688 -210.508789062 c 128,-1,2
 1215.54101562 -330.5703125 1215.54101562 -330.5703125 1080.13574219 -390.754882812 c 128,-1,3
 944.73046875 -450.940429688 944.73046875 -450.940429688 748.819335938 -450.940429688 c 2,4,-1
 694.10546875 -450.940429688 l 2,5,6
 257.08203125 -450.984375 257.08203125 -450.984375 123.282226562 -154.694335938 c 0,7,8
 68.37109375 -31.935546875 68.37109375 -31.935546875 68.12109375 136.264648438 c 2,9,-1
 68.0009765625 476.987304688 l 1,10,-1
 67.98828125 511.993164062 l 1,11,-1
 102.994140625 512 l 1,12,-1
 279.87109375 512.033203125 l 1,13,-1
 314.877929688 512.040039062 l 1,14,-1
 314.877929688 477.033203125 l 1,15,-1
 314.877929688 137.459960938 l 2,16,17
 314.934570312 -34.8984375 314.934570312 -34.8984375 407.095703125 -117.26953125 c 128,-1,18
 499.255859375 -199.639648438 499.255859375 -199.639648438 696.272460938 -199.639648438 c 2,19,-1
 747.4140625 -199.639648438 l 2,20,21
 946.309570312 -199.8125 946.309570312 -199.8125 1037.77832031 -130.380859375 c 128,-1,22
 1129.24609375 -60.9482421875 1129.24609375 -60.9482421875 1129.16210938 81.5380859375 c 2,23,-1
 1128.81542969 665.798828125 l 1,24,-1
 1128.79492188 700.801757812 l 1,25,-1
 1163.79785156 700.819335938 l 1,26,-1
 1340.20605469 700.91015625 l 1,27,-1
 1375.99707031 700.928710938 l 1,28,-1
 1375.21484375 665.145507812 l 1,29,-1
 1362.5625 86.142578125 l 2,0,1
EndSplineSet
Substitution2: "'init' Initial Forms in Arabic lookup 13 subtable" uni06BA.init
Substitution2: "'medi' Medial Forms in Arabic lookup 11 subtable" uni06BA.medi
Substitution2: "'fina' Terminal Forms in Arabic lookup 9 subtable" uniFB9F
EndChar

StartChar: uni06F4
Encoding: 1780 1780 90
Width: 1156
VWidth: 2586
GlyphClass: 2
Flags: W
LayerCount: 2
Fore
SplineSet
487.212890625 638.720703125 m 5,0,1
 502 475 502 475 501.8515625 274.922851562 c 6,2,-1
 501.864257812 38.91015625 l 1,3,-1
 501.865234375 3.9091796875 l 1,4,-1
 466.864257812 3.9091796875 l 1,5,-1
 296.094726562 3.9091796875 l 1,6,-1
 261.096679688 3.9091796875 l 1,7,-1
 261.094726562 38.9072265625 l 1,8,-1
 261.076171875 274.88671875 l 2,9,10
 261.000033044 815.76525994 261.000033044 815.76525994 142.780273438 1221.33984375 c 2,11,-1
 133.13671875 1254.42382812 l 1,12,-1
 166.06640625 1264.58007812 l 1,13,-1
 329.159179688 1314.88183594 l 1,14,-1
 366.173828125 1326.29785156 l 1,15,-1
 373.791015625 1288.31933594 l 2,16,17
 419 1065 419 1065 434 969 c 0,18,19
 440.038817006 930.754158965 440.038817006 930.754158965 457 922 c 2,20,-1
 488 906 l 9,21,-1
 488 922 l 2,22,23
 488 1317 488 1317 819 1317 c 0,24,25
 922.658720997 1317 922.658720997 1317 1026.21484375 1273.73046875 c 2,26,-1
 1050.07519531 1263.76074219 l 1,27,-1
 1047.5546875 1238.02441406 l 1,28,-1
 1033.0859375 1090.26464844 l 1,29,-1
 1028.84570312 1046.95605469 l 1,30,31
 935 1086 935 1086 854.358398438 1085.49414062 c 0,32,33
 772 1085 772 1085 723.329101562 1035.265625 c 0,34,35
 670 981 670 981 670 881 c 0,36,37
 670 819 670 819 826.640625 817.7265625 c 0,38,39
 952.800230557 817.001148668 952.800230557 817.001148668 1040.90820312 844.701171875 c 2,40,-1
 1085.70019531 858.783203125 l 1,41,-1
 1086.40136719 811.834960938 l 1,42,-1
 1088.828125 649.34375 l 1,43,-1
 1089.23535156 622.096679688 l 1,44,-1
 1062.91992188 615.021484375 l 2,45,46
 936 581 936 581 814.971679688 581.387695312 c 0,47,48
 634 581 634 581 487.212890625 638.720703125 c 5,0,1
EndSplineSet
PairPos2: "'kern' Horizontal Kerning lookup 15-4" uni06F5 dx=-40 dy=0 dh=-40 dv=0 dx=0 dy=0 dh=0 dv=0
EndChar

StartChar: uni06F5
Encoding: 1781 1781 91
Width: 1258
VWidth: 2591
GlyphClass: 2
Flags: W
LayerCount: 2
Fore
SplineSet
391.454101562 253.59765625 m 0,0,1
 514.908203125 252.969726562 514.908203125 252.969726562 533.573242188 454.555664062 c 2,2,-1
 536.34765625 484.513671875 l 1,3,-1
 720.962890625 484.513671875 l 1,4,-1
 722.286132812 452.8828125 l 2,5,6
 726.604492188 353.12109375 726.604492188 353.12109375 763.618164062 301.709960938 c 128,-1,7
 800.631835938 250.297851562 800.631835938 250.297851562 870.203125 249.509765625 c 0,8,9
 960.044921875 247.870117188 960.044921875 247.870117188 959.334960938 359.625976562 c 0,10,11
 958.994140625 519.561523438 958.994140625 519.561523438 633.637695312 897.756835938 c 2,12,-1
 629.819335938 902.196289062 l 1,13,-1
 626.033203125 897.728515625 l 2,14,15
 299.330078125 512.2578125 299.330078125 512.2578125 296.395507812 353.091796875 c 0,16,17
 294.565239236 254.038457288 294.565239236 254.038457288 391.454101562 253.59765625 c 0,0,1
384.774414062 -0.1123046875 m 0,18,19
 67.0009765625 -0.0029296875 67.0009765625 -0.0029296875 67.068359375 331.862304688 c 0,20,21
 67 600.426757812 67 600.426757812 464.365234375 1071.11914062 c 2,22,-1
 467.14453125 1074.41113281 l 1,23,-1
 464.299804688 1077.64648438 l 2,24,25
 460.979492188 1081.42285156 460.979492188 1081.42285156 436.860351562 1106.77636719 c 2,26,-1
 416.22265625 1128.46972656 l 1,27,-1
 584.409179688 1322.84960938 l 1,28,29
 1190.01269531 702.391601562 1190.01269531 702.391601562 1190.99902344 350.2890625 c 0,30,31
 1191.98052994 8.09337191185e-05 1191.98052994 8.09337191185e-05 867.366210938 0.021484375 c 4,32,33
 706.751185938 1.58633620796e-07 706.751185938 1.58633620796e-07 622.717773438 126.000976562 c 1,34,35
 539.60713684 0.494928254988 539.60713684 0.494928254988 384.774414062 -0.1123046875 c 0,18,19
EndSplineSet
PairPos2: "'kern' Horizontal Kerning lookup 15-4" uni06F7 dx=-100 dy=0 dh=-100 dv=0 dx=0 dy=0 dh=0 dv=0
PairPos2: "'kern' Horizontal Kerning lookup 15-4" uni06F6 dx=-30 dy=0 dh=-30 dv=0 dx=0 dy=0 dh=0 dv=0
PairPos2: "'kern' Horizontal Kerning lookup 15-4" uni06F4 dx=-30 dy=0 dh=-30 dv=0 dx=0 dy=0 dh=0 dv=0
PairPos2: "'kern' Horizontal Kerning lookup 15-4" uni06F3 dx=-100 dy=0 dh=-100 dv=0 dx=0 dy=0 dh=0 dv=0
PairPos2: "'kern' Horizontal Kerning lookup 15-4" uni06F2 dx=-70 dy=0 dh=-70 dv=0 dx=0 dy=0 dh=0 dv=0
EndChar

StartChar: uni06F6
Encoding: 1782 1782 92
Width: 1000
VWidth: 2591
GlyphClass: 2
Flags: W
LayerCount: 2
Fore
SplineSet
99.8466796875 904.375976562 m 4,0,1
 100 1069 100 1069 204.544111799 1184.8731736 c 0,2,3
 318 1311 318 1311 506 1311 c 0,4,5
 637.558281236 1311 637.558281236 1311 732.574549402 1258.12507529 c 2,6,-1
 749.645408548 1248.62543476 l 1,7,-1
 748.200868121 1020.56128041 l 1,8,9
 640 1075 640 1075 539.970655961 1075.30660955 c 0,10,11
 451 1075 451 1075 395.051534522 1030.40795325 c 0,12,13
 381 1019 381 1019 370.151321827 1005.86723421 c 0,14,15
 359 993 359 993 352.40574243 977.213561475 c 0,16,17
 345 962 345 962 341.853157786 944.57069835 c 0,18,19
 338 927 338 927 338.49664792 908.033413254 c 0,20,21
 339 868 339 868 356.439453125 833.361328125 c 4,22,23
 374 799 374 799 409.209960938 780.630859375 c 4,24,25
 468 750 468 750 540.051757812 750.451171875 c 4,26,27
 595 751 595 751 630.943359375 776.455078125 c 4,28,29
 671 805 671 805 711.407226562 833.481445312 c 4,30,31
 751 862 751 862 790.913085938 889.63671875 c 6,32,-1
 820.639648438 910.711914062 l 5,33,-1
 948.12109375 686.91015625 l 5,34,35
 879 641 879 641 805.3984375 564.006835938 c 4,36,37
 731 487 731 487 650.411132812 378.880859375 c 4,38,39
 516 198 516 198 373.09448232 -45.6939425374 c 1,40,-1
 155.2645921 57.7065411094 l 1,41,42
 277 261 277 261 456.508789062 525.736328125 c 5,43,44
 100 587 100 587 99.8466796875 904.375976562 c 4,0,1
EndSplineSet
PairPos2: "'kern' Horizontal Kerning lookup 15-4" uni06F8 dx=-30 dy=0 dh=-30 dv=0 dx=0 dy=0 dh=0 dv=0
PairPos2: "'kern' Horizontal Kerning lookup 15-4" uni06F7 dx=-30 dy=0 dh=-30 dv=0 dx=0 dy=0 dh=0 dv=0
PairPos2: "'kern' Horizontal Kerning lookup 15-4" uni06F5 dx=-70 dy=0 dh=-70 dv=0 dx=0 dy=0 dh=0 dv=0
EndChar

StartChar: uniFB8F
Encoding: 64399 64399 107
Width: 2022
VWidth: 2586
GlyphClass: 2
Flags: W
AnchorPoint: "Anchor-7" 849.692 -197.794 basechar 0
AnchorPoint: "Anchor-10" 599.382 1388.15 basechar 0
LayerCount: 2
Fore
SplineSet
1259.14550781 0.3837890625 m 2,0,-1
 533.759765625 -0.0966796875 l 2,1,2
 305.365234375 -0.0458984375 305.365234375 -0.0458984375 186.296875 121.932617188 c 128,-1,3
 67.228515625 243.911132812 67.228515625 243.911132812 67.2275390625 476.977539062 c 2,4,-1
 67.2265625 677.66015625 l 1,5,-1
 67.2265625 712.66015625 l 1,6,-1
 102.2265625 712.66015625 l 1,7,-1
 276.984375 712.66015625 l 1,8,-1
 311.984375 712.66015625 l 1,9,-1
 311.984375 677.66015625 l 1,10,-1
 311.984375 477.544921875 l 2,11,12
 311.998046875 361.357421875 311.998046875 361.357421875 366.962890625 305.624023438 c 0,13,14
 393.522460938 278.618164062 393.522460938 278.618164062 435.388671875 264.438476562 c 128,-1,15
 477.25390625 250.258789062 477.25390625 250.258789062 536.583007812 250.200195312 c 2,16,-1
 1260.64355469 249.48046875 l 2,17,18
 1375.62988281 249.254882812 1375.62988281 249.254882812 1424.73828125 275.805664062 c 128,-1,19
 1473.84765625 302.357421875 1473.84765625 302.357421875 1475.40429688 350.37109375 c 0,20,21
 1475.85839844 364.255859375 1475.85839844 364.255859375 1449.66699219 407.587890625 c 128,-1,22
 1423.47460938 450.920898438 1423.47460938 450.920898438 1372.51171875 509.041015625 c 2,23,-1
 1051.82617188 874.76953125 l 2,24,25
 1023.86425781 906.890625 1023.86425781 906.890625 1009.99707031 947.147460938 c 128,-1,26
 996.129882812 987.403320312 996.129882812 987.403320312 996.30078125 1034.18554688 c 0,27,28
 996.959960938 1080.78417969 996.959960938 1080.78417969 1013.43554688 1118.53710938 c 128,-1,29
 1029.91113281 1156.29003906 1029.91113281 1156.29003906 1061.10839844 1183.16308594 c 128,-1,30
 1092.30566406 1210.03613281 1092.30566406 1210.03613281 1136.6328125 1224.63183594 c 2,31,-1
 1761.23144531 1430.29882812 l 1,32,-1
 1807.17773438 1445.42773438 l 1,33,-1
 1807.17773438 1397.0546875 l 1,34,-1
 1807.17773438 1216.87695312 l 1,35,-1
 1807.17773438 1191.49023438 l 1,36,-1
 1783.04589844 1183.60742188 l 1,37,-1
 1262.22265625 1013.47558594 l 1,38,-1
 1797.12304688 392.61328125 l 2,39,40
 1917.91015625 252.176757812 1917.91015625 252.176757812 2004.87695312 250.473632812 c 2,41,-1
 2029.06933594 250 l 2,42,43
 2049.57519531 250 2049.57519531 250 2062.45019531 239.658203125 c 128,-1,44
 2075.32519531 229.317382812 2075.32519531 229.317382812 2080.02929688 208.889648438 c 128,-1,45
 2084.73339844 188.4609375 2084.73339844 188.4609375 2085.80175781 174.89453125 c 128,-1,46
 2086.86914062 161.328125 2086.86914062 161.328125 2086.76660156 138.638671875 c 0,47,48
 2086.74609375 134.119140625 2086.74609375 134.119140625 2086.74609375 132 c 2,49,-1
 2086.74609375 121.045898438 l 2,50,51
 2086.75292969 118.565429688 2086.75292969 118.565429688 2086.79980469 113.25 c 0,52,53
 2086.93261719 98.0439453125 2086.93261719 98.0439453125 2086.67773438 89.3505859375 c 128,-1,54
 2086.421875 80.6572265625 2086.421875 80.6572265625 2085.09277344 65.02734375 c 128,-1,55
 2083.76269531 49.3974609375 2083.76269531 49.3974609375 2080.00195312 39.908203125 c 128,-1,56
 2076.24121094 30.4189453125 2076.24121094 30.4189453125 2070.17675781 20.1474609375 c 128,-1,57
 2064.11230469 9.876953125 2064.11230469 9.876953125 2053.51953125 4.9384765625 c 128,-1,58
 2042.92675781 0 2042.92675781 0 2028.74609375 0 c 2,59,-1
 2014.12792969 0 l 2,60,61
 1817.28320312 0 1817.28320312 0 1669.97167969 172.333984375 c 1,62,63
 1655.36132812 146.874023438 1655.36132812 146.874023438 1636.07226562 125.212890625 c 128,-1,64
 1616.78320312 103.551757812 1616.78320312 103.551757812 1593.43652344 86.0400390625 c 128,-1,65
 1570.09082031 68.529296875 1570.09082031 68.529296875 1542.26269531 54.6142578125 c 128,-1,66
 1514.43359375 40.7001953125 1514.43359375 40.7001953125 1482.98632812 30.5791015625 c 128,-1,67
 1451.5390625 20.4580078125 1451.5390625 20.4580078125 1415.79003906 13.7412109375 c 128,-1,68
 1380.04101562 7.0234375 1380.04101562 7.0234375 1341.11035156 3.7431640625 c 128,-1,69
 1302.18066406 0.462890625 1302.18066406 0.462890625 1259.14550781 0.3837890625 c 2,0,-1
EndSplineSet
EndChar

StartChar: uniFB9F
Encoding: 64415 64415 115
Width: 1590
VWidth: 2586
GlyphClass: 2
Flags: W
AnchorPoint: "Anchor-7" 691 -632.5 basechar 0
AnchorPoint: "Anchor-10" 644.402 840.573 basechar 0
LayerCount: 2
Fore
SplineSet
1594.9765625 0 m 2,0,-1
 1557.31738281 0 l 2,1,2
 1434.08886719 0 1434.08886719 0 1361.51855469 43.3203125 c 1,3,4
 1349.0546875 -201.62890625 1349.0546875 -201.62890625 1192.66601562 -326.28515625 c 128,-1,5
 1036.27636719 -450.940429688 1036.27636719 -450.940429688 748.819335938 -450.940429688 c 2,6,-1
 694.10546875 -450.940429688 l 2,7,8
 257.08203125 -450.984375 257.08203125 -450.984375 123.282226562 -154.694335938 c 0,9,10
 68.37109375 -31.935546875 68.37109375 -31.935546875 68.12109375 136.264648438 c 2,11,-1
 68.0009765625 476.987304688 l 1,12,-1
 67.98828125 511.993164062 l 1,13,-1
 102.994140625 512 l 1,14,-1
 279.87109375 512.033203125 l 1,15,-1
 314.877929688 512.040039062 l 1,16,-1
 314.877929688 477.033203125 l 1,17,-1
 314.877929688 137.459960938 l 2,18,19
 314.934570312 -34.8984375 314.934570312 -34.8984375 407.095703125 -117.26953125 c 128,-1,20
 499.255859375 -199.639648438 499.255859375 -199.639648438 696.272460938 -199.639648438 c 2,21,-1
 747.4140625 -199.639648438 l 2,22,23
 946.309570312 -199.8125 946.309570312 -199.8125 1037.77832031 -130.380859375 c 128,-1,24
 1129.24609375 -60.9482421875 1129.24609375 -60.9482421875 1129.16210938 81.5380859375 c 2,25,-1
 1128.81542969 665.798828125 l 1,26,-1
 1128.79492188 700.801757812 l 1,27,-1
 1163.79785156 700.819335938 l 1,28,-1
 1340.25 700.91015625 l 1,29,-1
 1375.26757812 700.927734375 l 1,30,-1
 1375.26757812 665.91015625 l 1,31,-1
 1375.26757812 452.27734375 l 2,32,33
 1375.20605469 398.573242188 1375.20605469 398.573242188 1387.703125 359.288085938 c 0,34,35
 1399.40625 322.493164062 1399.40625 322.493164062 1422.12792969 298.635742188 c 0,36,37
 1444.60742188 275.033203125 1444.60742188 275.033203125 1479.1015625 262.922851562 c 0,38,39
 1515.91308594 250 1515.91308594 250 1566.40722656 250 c 2,40,-1
 1594.9765625 250 l 2,41,42
 1615.62695312 250 1615.62695312 250 1628.58105469 239.724609375 c 128,-1,43
 1641.53613281 229.44921875 1641.53613281 229.44921875 1646.26171875 209.116210938 c 128,-1,44
 1650.98730469 188.784179688 1650.98730469 188.784179688 1652.05273438 175.260742188 c 128,-1,45
 1653.11914062 161.737304688 1653.11914062 161.737304688 1653.00195312 139.061523438 c 0,46,47
 1652.9765625 134.249023438 1652.9765625 134.249023438 1652.9765625 132 c 2,48,-1
 1652.9765625 121.008789062 l 2,49,50
 1652.98925781 72.7900390625 1652.98925781 72.7900390625 1645.59570312 46.765625 c 0,51,52
 1642.57128906 36.1201171875 1642.57128906 36.1201171875 1638.42871094 27.474609375 c 128,-1,53
 1634.28613281 18.8291015625 1634.28613281 18.8291015625 1622.6015625 9.4150390625 c 128,-1,54
 1610.91699219 0 1610.91699219 0 1594.9765625 0 c 2,0,-1
EndSplineSet
EndChar

StartChar: uniFBE8
Encoding: 64488 64488 118
Width: 707
VWidth: 2586
GlyphClass: 2
Flags: W
AnchorPoint: "Anchor-10" 399.938 1253.35 basechar 0
AnchorPoint: "Anchor-7" 417.497 -109.32 basechar 0
LayerCount: 2
Fore
SplineSet
-5.02734375 0 m 2,0,1
 -50.1142578125 0 -50.1142578125 0 -71.5693359375 34.9072265625 c 128,-1,2
 -93.0234375 69.8154296875 -93.0234375 69.8154296875 -93.0234375 121 c 2,3,-1
 -93.0234375 132.008789062 l 2,4,5
 -93.009765625 181.852539062 -93.009765625 181.852539062 -71.3193359375 215.904296875 c 128,-1,6
 -49.62890625 249.956054688 -49.62890625 249.956054688 -5.056640625 250 c 2,7,-1
 227.598632812 250.23046875 l 2,8,9
 316.803710938 250.127929688 316.803710938 250.127929688 355.684570312 287.171875 c 128,-1,10
 394.56640625 324.21484375 394.56640625 324.21484375 394.56640625 407.623046875 c 2,11,-1
 394.56640625 701.689453125 l 1,12,-1
 394.56640625 736.689453125 l 1,13,-1
 429.56640625 736.689453125 l 1,14,-1
 604.322265625 736.689453125 l 1,15,-1
 639.322265625 736.689453125 l 1,16,-1
 639.322265625 701.689453125 l 1,17,-1
 639.322265625 407.459960938 l 2,18,19
 639.151367188 208.700195312 639.151367188 208.700195312 533.876953125 104.2890625 c 128,-1,20
 428.6015625 -0.123046875 428.6015625 -0.123046875 228.6796875 -0.06640625 c 2,21,-1
 -5.02734375 0 l 2,0,1
EndSplineSet
EndChar

StartChar: uniFBE9
Encoding: 64489 64489 119
Width: 857
VWidth: 2586
GlyphClass: 2
Flags: W
AnchorPoint: "Anchor-10" 369.939 1159.45 basechar 0
AnchorPoint: "Anchor-7" 368.812 -114.016 basechar 0
LayerCount: 2
Fore
SplineSet
862.2265625 0 m 2,0,-1
 841.33203125 0 l 2,1,2
 632.583007812 0 632.583007812 0 530.635742188 115.571289062 c 1,3,4
 414.016601562 0 414.016601562 0 176.1484375 0 c 2,5,-1
 -5.0234375 0 l 2,6,7
 -50.1103515625 0 -50.1103515625 0 -71.5673828125 34.908203125 c 128,-1,8
 -93.0234375 69.81640625 -93.0234375 69.81640625 -93.0234375 121 c 2,9,-1
 -93.0234375 132.008789062 l 2,10,11
 -93.0087890625 184.359375 -93.0087890625 184.359375 -74.1328125 213.526367188 c 0,12,13
 -50.525390625 250 -50.525390625 250 -5.0234375 250 c 2,14,-1
 181.162109375 250 l 2,15,16
 260.88671875 250 260.88671875 250 309.93359375 268.221679688 c 128,-1,17
 358.981445312 286.442382812 358.981445312 286.442382812 380.326171875 321.129882812 c 128,-1,18
 401.671875 355.817382812 401.671875 355.817382812 401.671875 410.358398438 c 2,19,-1
 401.671875 668.372070312 l 1,20,-1
 401.671875 703.372070312 l 1,21,-1
 436.671875 703.372070312 l 1,22,-1
 613.15625 703.372070312 l 1,23,-1
 648.15625 703.372070312 l 1,24,-1
 648.15625 668.372070312 l 1,25,-1
 648.15625 410.354492188 l 2,26,27
 648.088867188 326.8515625 648.088867188 326.8515625 692.755859375 288.42578125 c 128,-1,28
 737.423828125 250 737.423828125 250 840.405273438 250 c 2,29,-1
 862.2265625 250 l 2,30,31
 882.876953125 250 882.876953125 250 895.831054688 239.724609375 c 128,-1,32
 908.786132812 229.44921875 908.786132812 229.44921875 913.51171875 209.116210938 c 128,-1,33
 918.237304688 188.784179688 918.237304688 188.784179688 919.302734375 175.260742188 c 128,-1,34
 920.369140625 161.737304688 920.369140625 161.737304688 920.251953125 139.061523438 c 0,35,36
 920.2265625 134.249023438 920.2265625 134.249023438 920.2265625 132 c 2,37,-1
 920.2265625 120.959960938 l 2,38,39
 920.219726562 118.23828125 920.219726562 118.23828125 920.24609375 112.370117188 c 0,40,41
 920.303710938 99.4404296875 920.303710938 99.4404296875 920.193359375 92.1796875 c 128,-1,42
 920.083007812 84.9189453125 920.083007812 84.9189453125 919.036132812 71.388671875 c 128,-1,43
 917.990234375 57.859375 917.990234375 57.859375 915.947265625 49.6181640625 c 128,-1,44
 913.905273438 41.376953125 913.905273438 41.376953125 909.663085938 30.841796875 c 128,-1,45
 905.420898438 20.3076171875 905.420898438 20.3076171875 899.384765625 14.3896484375 c 128,-1,46
 893.34765625 8.4716796875 893.34765625 8.4716796875 883.848632812 4.2353515625 c 128,-1,47
 874.348632812 0 874.348632812 0 862.2265625 0 c 2,0,-1
EndSplineSet
EndChar

StartChar: uniFE73
Encoding: 65139 65139 127
Width: 683
VWidth: 2586
GlyphClass: 2
Flags: W
AnchorPoint: "Anchor-10" 252.404 1523.29 basechar 0
AnchorPoint: "Anchor-7" 252.404 -109.32 basechar 0
LayerCount: 2
Fore
SplineSet
375.298828125 433.405273438 m 2,0,1
 375.66796875 400.237304688 375.66796875 400.237304688 389.375 369.9375 c 128,-1,2
 403.083007812 339.63671875 403.083007812 339.63671875 431.591796875 310.890625 c 0,3,4
 445.1328125 297.350585938 445.1328125 297.350585938 462.517578125 287.01171875 c 128,-1,5
 479.903320312 276.672851562 479.903320312 276.672851562 501.590820312 269.557617188 c 0,6,7
 546.869140625 254.700195312 546.869140625 254.700195312 609.067382812 254.700195312 c 2,8,-1
 675.61328125 254.700195312 l 1,9,-1
 710.61328125 254.700195312 l 1,10,-1
 710.61328125 219.700195312 l 1,11,-1
 710.61328125 43.9091796875 l 1,12,-1
 710.61328125 8.9091796875 l 1,13,-1
 675.61328125 8.9091796875 l 1,14,-1
 539.997070312 8.9091796875 l 2,15,16
 358.618164062 8.9091796875 358.618164062 8.9091796875 244.064453125 123.463867188 c 128,-1,17
 129.509765625 238.017578125 129.509765625 238.017578125 129.509765625 418.141601562 c 2,18,-1
 129.509765625 444.498046875 l 1,19,-1
 129.509765625 479.498046875 l 1,20,-1
 164.509765625 479.498046875 l 1,21,-1
 340.298828125 479.498046875 l 1,22,-1
 375.298828125 479.498046875 l 1,23,-1
 375.298828125 444.498046875 l 1,24,-1
 375.298828125 433.405273438 l 2,0,1
EndSplineSet
EndChar

StartChar: uniFE8E
Encoding: 65166 65166 153
Width: 557
VWidth: 2586
GlyphClass: 2
Flags: W
AnchorPoint: "Anchor-10" 246.923 1476.04 basechar 0
AnchorPoint: "Anchor-7" 273.009 -211.554 basechar 0
LayerCount: 2
Fore
SplineSet
562.901367188 0 m 2,0,-1
 487.231445312 0 l 2,1,2
 310 0 310 0 217.814453125 105.888671875 c 0,3,4
 125.69140625 212.356646384 125.69140625 212.356646384 125.69140625 410.251953125 c 2,5,-1
 125.69140625 1298.18847656 l 5,6,-1
 125.69140625 1333.18847656 l 5,7,-1
 160.69140625 1333.18847656 l 5,8,-1
 330 1333.18847656 l 5,9,-1
 365 1333.18847656 l 5,10,-1
 365 1298.18847656 l 5,11,-1
 365 409.139648438 l 2,12,13
 365 350 365 350 378.826171875 315.286132812 c 0,14,15
 393 280 393 280 419.538085938 265.049804688 c 128,-1,16
 446 250 446 250 490.014648438 250 c 2,17,-1
 562.901367188 250 l 2,18,19
 584 250 584 250 596.505859375 239.724609375 c 0,20,21
 609 229 609 229 614.186523438 209.116210938 c 0,22,23
 619 189 619 189 619.977539062 175.260742188 c 0,24,25
 621 162 621 162 620.926757812 139.061523438 c 0,26,27
 621 134 621 134 620.901367188 132 c 2,28,-1
 620.901367188 121.037109375 l 2,29,30
 621 72 621 72 613.543945312 46.708984375 c 0,31,32
 601 0 601 0 562.901367188 0 c 2,0,-1
EndSplineSet
EndChar

StartChar: uniFEA2
Encoding: 65186 65186 173
Width: 1359
VWidth: 2586
GlyphClass: 2
Flags: W
AnchorPoint: "Anchor-7" 471.334 -800.653 basechar 0
AnchorPoint: "Anchor-10" 631.761 1308.94 basechar 0
LayerCount: 2
Fore
SplineSet
828.014648438 517.2421875 m 1,0,-1
 789.20703125 539.61328125 l 2,1,2
 738.40625 568.932617188 738.40625 568.932617188 690.380859375 585.627929688 c 128,-1,3
 642.356445312 602.32421875 642.356445312 602.32421875 596.681640625 606.635742188 c 128,-1,4
 551.006835938 610.946289062 551.006835938 610.946289062 507.16796875 602.7578125 c 128,-1,5
 463.329101562 594.5703125 463.329101562 594.5703125 421.33203125 574.290039062 c 128,-1,6
 379.3359375 554.010742188 379.3359375 554.010742188 338.234375 521.35546875 c 2,7,-1
 266.71484375 464.532226562 l 1,8,-1
 240.803710938 443.9453125 l 1,9,-1
 218.799804688 468.6640625 l 1,10,-1
 103.782226562 597.875976562 l 1,11,-1
 79.8837890625 624.724609375 l 1,12,-1
 107.357421875 647.900390625 l 1,13,-1
 168.418945312 699.409179688 l 2,14,15
 332.677734375 838.208984375 332.677734375 838.208984375 508.116210938 856.643554688 c 128,-1,16
 683.5546875 875.078125 683.5546875 875.078125 863.185546875 771.784179688 c 2,17,-1
 1052.12792969 662.817382812 l 2,18,19
 1101.04980469 634.858398438 1101.04980469 634.858398438 1143.77246094 617.080078125 c 128,-1,20
 1186.49609375 599.301757812 1186.49609375 599.301757812 1221.875 591.815429688 c 2,21,-1
 1249.62890625 585.942382812 l 1,22,-1
 1249.62890625 557.573242188 l 1,23,-1
 1249.62988281 379.018554688 l 1,24,-1
 1249.62988281 347.1328125 l 1,25,-1
 1217.88183594 344.169921875 l 2,26,27
 1189.91113281 341.559570312 1189.91113281 341.559570312 1163.38964844 338.259765625 c 128,-1,28
 1136.8671875 334.959960938 1136.8671875 334.959960938 1114.37597656 331.338867188 c 1,29,30
 1135.77441406 250 1135.77441406 250 1313.16308594 250 c 2,31,-1
 1363.9765625 250 l 2,32,33
 1384.62695312 250 1384.62695312 250 1397.58105469 239.724609375 c 128,-1,34
 1410.53613281 229.44921875 1410.53613281 229.44921875 1415.26171875 209.116210938 c 128,-1,35
 1419.98730469 188.784179688 1419.98730469 188.784179688 1421.05273438 175.260742188 c 128,-1,36
 1422.11914062 161.737304688 1422.11914062 161.737304688 1422.00195312 139.061523438 c 0,37,38
 1421.9765625 134.249023438 1421.9765625 134.249023438 1421.9765625 132 c 2,39,-1
 1421.9765625 121.008789062 l 2,40,41
 1421.97753906 118.41015625 1421.97753906 118.41015625 1422.01464844 112.825195312 c 0,42,43
 1422.11523438 97.6259765625 1422.11523438 97.6259765625 1421.84375 88.9521484375 c 128,-1,44
 1421.57128906 80.2783203125 1421.57128906 80.2783203125 1420.21484375 64.7041015625 c 128,-1,45
 1418.85839844 49.1298828125 1418.85839844 49.1298828125 1415.09472656 39.6904296875 c 128,-1,46
 1411.33203125 30.251953125 1411.33203125 30.251953125 1405.27050781 20.033203125 c 128,-1,47
 1399.20996094 9.814453125 1399.20996094 9.814453125 1388.65332031 4.9072265625 c 128,-1,48
 1378.09765625 0 1378.09765625 0 1363.9765625 0 c 2,49,-1
 1311.75683594 0 l 2,50,51
 1124.47949219 0 1124.47949219 0 1019.34765625 77.62109375 c 0,52,53
 971.353515625 113.176757812 971.353515625 113.176757812 940.579101562 164.44921875 c 128,-1,54
 909.803710938 215.72265625 909.803710938 215.72265625 896.740234375 280.1640625 c 1,55,56
 605.39453125 230.85546875 605.39453125 230.85546875 457.349609375 125.25390625 c 0,57,58
 308.96875 19.9033203125 308.96875 19.9033203125 308.6875 -144.8828125 c 0,59,60
 307.932617188 -296.6328125 307.932617188 -296.6328125 427.247070312 -372.982421875 c 128,-1,61
 546.5625 -449.331054688 546.5625 -449.331054688 804.455078125 -449.172851562 c 2,62,-1
 1216.30859375 -448.919921875 l 1,63,-1
 1251.33007812 -448.8984375 l 1,64,-1
 1251.33007812 -483.919921875 l 1,65,-1
 1251.33007812 -660.470703125 l 1,66,-1
 1251.33007812 -695.543945312 l 1,67,-1
 1216.25683594 -695.470703125 l 1,68,-1
 792.3984375 -694.58203125 l 2,69,70
 388.931640625 -693.979492188 388.931640625 -693.979492188 218.194335938 -530.6328125 c 0,71,72
 63.7861328125 -381.659179688 63.7861328125 -381.659179688 67.1123046875 -150.228515625 c 0,73,74
 70.060546875 112.893554688 70.060546875 112.893554688 263.65625 280.059570312 c 128,-1,75
 457.251953125 447.225585938 457.251953125 447.225585938 828.014648438 517.2421875 c 1,0,-1
EndSplineSet
EndChar

StartChar: uniFEA3
Encoding: 65187 65187 174
Width: 1282
VWidth: 2586
GlyphClass: 2
Flags: W
AnchorPoint: "Anchor-10" 470.912 1272.39 basechar 0
AnchorPoint: "Anchor-7" 425.185 -216.728 basechar 0
LayerCount: 2
Fore
SplineSet
-5.0234375 0 m 2,0,1
 -50.1103515625 0 -50.1103515625 0 -71.5673828125 34.908203125 c 128,-1,2
 -93.0234375 69.81640625 -93.0234375 69.81640625 -93.0234375 121 c 2,3,-1
 -93.0234375 132.018554688 l 2,4,5
 -92.994140625 184.33203125 -92.994140625 184.33203125 -73.9833984375 213.7578125 c 0,6,7
 -49.6640625 250 -49.6640625 250 -5.0234375 250 c 2,8,-1
 300 250 l 2,9,10
 400.565429688 250 400.565429688 250 492.807617188 272.043945312 c 128,-1,11
 585.05078125 294.086914062 585.05078125 294.086914062 669.739257812 338.258789062 c 2,12,-1
 894.532226562 455.5078125 l 1,13,-1
 756.458007812 535.4453125 l 2,14,15
 629.353515625 608.540039062 629.353515625 608.540039062 518.9453125 603.772460938 c 128,-1,16
 408.538085938 599.00390625 408.538085938 599.00390625 305.528320312 517.162109375 c 2,17,-1
 234.008789062 460.338867188 l 1,18,-1
 208.09765625 439.751953125 l 1,19,-1
 186.09375 464.470703125 l 1,20,-1
 71.076171875 593.682617188 l 1,21,-1
 47.177734375 620.530273438 l 1,22,-1
 74.6513671875 643.70703125 l 1,23,-1
 135.733398438 695.234375 l 2,24,25
 300.12890625 833.9375 300.12890625 833.9375 475.552734375 852.37109375 c 128,-1,26
 650.977539062 870.803710938 650.977539062 870.803710938 830.479492188 767.590820312 c 2,27,-1
 1019.47949219 658.590820312 l 2,28,29
 1115.66210938 603.100585938 1115.66210938 603.100585938 1189.1328125 587.627929688 c 2,30,-1
 1216.91992188 581.775390625 l 1,31,-1
 1216.91992188 553.37890625 l 1,32,-1
 1216.91992188 374.193359375 l 1,33,-1
 1216.91992188 353.369140625 l 1,34,-1
 1198.61914062 343.43359375 l 1,35,-1
 790.776367188 122.015625 l 2,36,37
 566.918945312 0 566.918945312 0 302 0 c 2,38,-1
 -5.0234375 0 l 2,0,1
EndSplineSet
EndChar

StartChar: uniFEA4
Encoding: 65188 65188 175
Width: 1329
VWidth: 2586
GlyphClass: 2
Flags: W
AnchorPoint: "Anchor-7" 425.185 -216.728 basechar 0
AnchorPoint: "Anchor-10" 470.912 1272.39 basechar 0
LayerCount: 2
Fore
SplineSet
880.474609375 170.8828125 m 1,0,-1
 790.801757812 122.029296875 l 2,1,2
 566.918945312 0 566.918945312 0 302 0 c 2,3,-1
 -5.0234375 0 l 2,4,5
 -50.1103515625 0 -50.1103515625 0 -71.5673828125 34.908203125 c 128,-1,6
 -93.0234375 69.81640625 -93.0234375 69.81640625 -93.0234375 121 c 2,7,-1
 -93.0234375 132.018554688 l 2,8,9
 -92.994140625 184.33203125 -92.994140625 184.33203125 -73.9833984375 213.7578125 c 0,10,11
 -49.6640625 250 -49.6640625 250 -5.0234375 250 c 2,12,-1
 300 250 l 2,13,14
 400.565429688 250 400.565429688 250 492.807617188 272.043945312 c 128,-1,15
 585.05078125 294.086914062 585.05078125 294.086914062 669.739257812 338.258789062 c 2,16,-1
 894.532226562 455.5078125 l 1,17,-1
 756.458007812 535.4453125 l 2,18,19
 629.353515625 608.540039062 629.353515625 608.540039062 518.9453125 603.772460938 c 128,-1,20
 408.538085938 599.00390625 408.538085938 599.00390625 305.528320312 517.162109375 c 2,21,-1
 234.008789062 460.338867188 l 1,22,-1
 208.09765625 439.751953125 l 1,23,-1
 186.09375 464.470703125 l 1,24,-1
 71.076171875 593.682617188 l 1,25,-1
 47.177734375 620.530273438 l 1,26,-1
 74.6513671875 643.70703125 l 1,27,-1
 135.733398438 695.234375 l 2,28,29
 300.12890625 833.938476562 300.12890625 833.938476562 475.553710938 852.37109375 c 128,-1,30
 650.977539062 870.803710938 650.977539062 870.803710938 830.479492188 767.590820312 c 2,31,-1
 1019.50195312 658.577148438 l 2,32,33
 1051.20507812 640.23828125 1051.20507812 640.23828125 1080.97070312 626.155273438 c 128,-1,34
 1110.73632812 612.071289062 1110.73632812 612.071289062 1137.68164062 602.51953125 c 128,-1,35
 1164.62597656 592.967773438 1164.62597656 592.967773438 1189.36816406 587.58203125 c 2,36,-1
 1216.92285156 581.583007812 l 1,37,-1
 1216.92285156 553.381835938 l 1,38,-1
 1216.91992188 374.192382812 l 1,39,-1
 1216.91992188 353.311523438 l 1,40,-1
 1198.54492188 343.393554688 l 1,41,-1
 1087.76464844 283.598632812 l 1,42,43
 1139.83691406 250 1139.83691406 250 1213.06835938 250 c 2,44,-1
 1333.9765625 250 l 2,45,46
 1354.62695312 250 1354.62695312 250 1367.58105469 239.724609375 c 128,-1,47
 1380.53613281 229.44921875 1380.53613281 229.44921875 1385.26171875 209.116210938 c 128,-1,48
 1389.98730469 188.784179688 1389.98730469 188.784179688 1391.05273438 175.260742188 c 128,-1,49
 1392.11914062 161.737304688 1392.11914062 161.737304688 1392.00195312 139.061523438 c 0,50,51
 1391.9765625 134.249023438 1391.9765625 134.249023438 1391.9765625 132 c 2,52,-1
 1391.9765625 121.018554688 l 2,53,54
 1392.00292969 73.1982421875 1392.00292969 73.1982421875 1384.63964844 46.9228515625 c 0,55,56
 1371.59960938 0 1371.59960938 0 1333.9765625 0 c 2,57,-1
 1216.07324219 0 l 2,58,59
 1107.42480469 0 1107.42480469 0 1022.43164062 43.2060546875 c 128,-1,60
 937.439453125 86.4111328125 937.439453125 86.4111328125 880.474609375 170.8828125 c 1,0,-1
EndSplineSet
EndChar

StartChar: uniFEAA
Encoding: 65194 65194 181
Width: 1204
VWidth: 2586
GlyphClass: 2
Flags: W
AnchorPoint: "Anchor-7" 428.382 -209.53 basechar 0
AnchorPoint: "Anchor-10" 403.659 1333.16 basechar 0
LayerCount: 2
Fore
SplineSet
1208.9765625 0 m 2,0,-1
 1193.35644531 0 l 2,1,2
 1012.79296875 0 1012.79296875 0 876.094726562 146.220703125 c 1,3,4
 779.7265625 0.34375 779.7265625 0.34375 482.64453125 -0 c 2,5,-1
 103.899414062 0 l 1,6,-1
 68.8994140625 0 l 1,7,-1
 68.8994140625 35 l 1,8,-1
 68.8994140625 215 l 1,9,-1
 68.8994140625 250 l 1,10,-1
 103.899414062 250 l 1,11,-1
 469.596679688 250 l 2,12,13
 478.59375 250 478.59375 250 487.247070312 250.150390625 c 128,-1,14
 495.900390625 250.299804688 495.900390625 250.299804688 504.205078125 250.599609375 c 0,15,16
 559.413085938 252.588867188 559.413085938 252.588867188 598.095703125 260.36328125 c 128,-1,17
 636.778320312 268.138671875 636.778320312 268.138671875 657.0625 280.615234375 c 128,-1,18
 677.34765625 293.091796875 677.34765625 293.091796875 685.759765625 307.1953125 c 128,-1,19
 694.171875 321.299804688 694.171875 321.299804688 693.532226562 338.821289062 c 0,20,21
 692.551757812 366.919921875 692.551757812 366.919921875 670.8046875 406.670898438 c 0,22,23
 659.056640625 428.145507812 659.056640625 428.145507812 641.083007812 453.025390625 c 128,-1,24
 623.109375 477.905273438 623.109375 477.905273438 599.143554688 505.624023438 c 2,25,-1
 325.962890625 821.5703125 l 1,26,-1
 305.619140625 845.09765625 l 1,27,-1
 326.594726562 868.064453125 l 1,28,-1
 449.672851562 1002.82910156 l 1,29,-1
 476.7734375 1032.50390625 l 1,30,-1
 502.4453125 1001.58398438 l 1,31,-1
 1038.38574219 356.083984375 l 2,32,33
 1126.49023438 250 1126.49023438 250 1200.41015625 250 c 2,34,-1
 1208.9765625 250 l 2,35,36
 1229.62695312 250 1229.62695312 250 1242.58105469 239.724609375 c 128,-1,37
 1255.53613281 229.44921875 1255.53613281 229.44921875 1260.26171875 209.116210938 c 128,-1,38
 1264.98730469 188.784179688 1264.98730469 188.784179688 1266.05273438 175.260742188 c 128,-1,39
 1267.11914062 161.737304688 1267.11914062 161.737304688 1267.00195312 139.061523438 c 0,40,41
 1266.9765625 134.249023438 1266.9765625 134.249023438 1266.9765625 132 c 2,42,-1
 1266.9765625 121.008789062 l 2,43,44
 1266.98925781 72.7900390625 1266.98925781 72.7900390625 1259.59570312 46.765625 c 0,45,46
 1256.57128906 36.1201171875 1256.57128906 36.1201171875 1252.42871094 27.474609375 c 128,-1,47
 1248.28613281 18.8291015625 1248.28613281 18.8291015625 1236.6015625 9.4150390625 c 128,-1,48
 1224.91699219 0 1224.91699219 0 1208.9765625 0 c 2,0,-1
EndSplineSet
EndChar

StartChar: uniFEAE
Encoding: 65198 65198 185
Width: 883
VWidth: 2586
GlyphClass: 2
Flags: W
AnchorPoint: "Anchor-10" 450.527 988.269 basechar 0
AnchorPoint: "Anchor-7" 297.433 -634.366 basechar 0
LayerCount: 2
Fore
SplineSet
888.022460938 0 m 2,0,-1
 871.923828125 0 l 2,1,2
 781.767578125 0 781.767578125 0 723.27734375 21.5107421875 c 0,3,4
 705.485351562 28.1845703125 705.485351562 28.1845703125 690.56640625 36.734375 c 1,5,6
 671.14453125 -210.326171875 671.14453125 -210.326171875 519.568359375 -336.465820312 c 128,-1,7
 367.991210938 -462.60546875 367.991210938 -462.60546875 95.330078125 -462.412109375 c 2,8,-1
 23.873046875 -462.361328125 l 1,9,-1
 -11.103515625 -462.336914062 l 1,10,-1
 -11.1025390625 -427.360351562 l 1,11,-1
 -11.099609375 -248.197265625 l 1,12,-1
 -11.0986328125 -213.163085938 l 1,13,-1
 23.935546875 -213.198242188 l 1,14,-1
 90.6357421875 -213.265625 l 2,15,16
 275.650390625 -213.611328125 275.650390625 -213.611328125 362.1171875 -133.787109375 c 128,-1,17
 448.584960938 -53.9638671875 448.584960938 -53.9638671875 448.584960938 114.499023438 c 2,18,-1
 448.584960938 639.638671875 l 1,19,-1
 448.584960938 674.431640625 l 1,20,-1
 483.377929688 674.637695312 l 1,21,-1
 657.002929688 675.666992188 l 1,22,-1
 692.209960938 675.875976562 l 1,23,-1
 692.209960938 640.66796875 l 1,24,-1
 692.209960938 418.143554688 l 2,25,26
 692.118164062 329.559570312 692.118164062 329.559570312 734.150390625 289.780273438 c 128,-1,27
 776.18359375 250 776.18359375 250 871.923828125 250 c 2,28,-1
 888.022460938 250 l 2,29,30
 908.672851562 250 908.672851562 250 921.626953125 239.724609375 c 128,-1,31
 934.58203125 229.44921875 934.58203125 229.44921875 939.307617188 209.116210938 c 128,-1,32
 944.033203125 188.784179688 944.033203125 188.784179688 945.098632812 175.260742188 c 128,-1,33
 946.165039062 161.737304688 946.165039062 161.737304688 946.047851562 139.061523438 c 0,34,35
 946.022460938 134.249023438 946.022460938 134.249023438 946.022460938 132 c 2,36,-1
 946.022460938 120.9921875 l 2,37,38
 946.205078125 116.075195312 946.205078125 116.075195312 946.14453125 107.915039062 c 128,-1,39
 946.083984375 99.7548828125 946.083984375 99.7548828125 943.494140625 78.896484375 c 128,-1,40
 940.904296875 58.037109375 940.904296875 58.037109375 935.627929688 42.095703125 c 128,-1,41
 930.3515625 26.1533203125 930.3515625 26.1533203125 917.952148438 13.0771484375 c 128,-1,42
 905.552734375 0 905.552734375 0 888.022460938 0 c 2,0,-1
EndSplineSet
PairPos2: "'kern' Horizontal Kerning lookup 15-2" uniFBFE dx=60 dy=0 dh=60 dv=0 dx=0 dy=0 dh=0 dv=0
PairPos2: "'kern' Horizontal Kerning lookup 15-2" uniFEF3 dx=60 dy=0 dh=60 dv=0 dx=0 dy=0 dh=0 dv=0
PairPos2: "'kern' Horizontal Kerning lookup 15-1" uniFEFB dx=-100 dy=0 dh=-100 dv=0 dx=0 dy=0 dh=0 dv=0
PairPos2: "'kern' Horizontal Kerning lookup 15-1" uniFEDF dx=-100 dy=0 dh=-100 dv=0 dx=0 dy=0 dh=0 dv=0
PairPos2: "'kern' Horizontal Kerning lookup 15-1" uni062F dx=-100 dy=0 dh=-100 dv=0 dx=0 dy=0 dh=0 dv=0
PairPos2: "'kern' Horizontal Kerning lookup 15-2" uniFB90 dx=-142 dy=0 dh=-142 dv=0 dx=0 dy=0 dh=0 dv=0
PairPos2: "'kern' Horizontal Kerning lookup 15-2" uniFB8E dx=-142 dy=0 dh=-142 dv=0 dx=0 dy=0 dh=0 dv=0
PairPos2: "'kern' Horizontal Kerning lookup 15-2" uni06A9 dx=-142 dy=0 dh=-142 dv=0 dx=0 dy=0 dh=0 dv=0
PairPos2: "'kern' Horizontal Kerning lookup 15-2" uniFEEB dx=-100 dy=0 dh=-100 dv=0 dx=0 dy=0 dh=0 dv=0
PairPos2: "'kern' Horizontal Kerning lookup 15-2" uni0647 dx=-100 dy=0 dh=-100 dv=0 dx=0 dy=0 dh=0 dv=0
PairPos2: "'kern' Horizontal Kerning lookup 15-2" uniFEE7 dx=-100 dy=0 dh=-100 dv=0 dx=0 dy=0 dh=0 dv=0
PairPos2: "'kern' Horizontal Kerning lookup 15-2" uniFEE3 dx=-100 dy=0 dh=-100 dv=0 dx=0 dy=0 dh=0 dv=0
PairPos2: "'kern' Horizontal Kerning lookup 15-2" uni0645 dx=-100 dy=0 dh=-100 dv=0 dx=0 dy=0 dh=0 dv=0
PairPos2: "'kern' Horizontal Kerning lookup 15-2" uniFEDB dx=-142 dy=0 dh=-142 dv=0 dx=0 dy=0 dh=0 dv=0
PairPos2: "'kern' Horizontal Kerning lookup 15-2" uni0643 dx=-100 dy=0 dh=-100 dv=0 dx=0 dy=0 dh=0 dv=0
PairPos2: "'kern' Horizontal Kerning lookup 15-2" uniFED7 dx=-100 dy=0 dh=-100 dv=0 dx=0 dy=0 dh=0 dv=0
PairPos2: "'kern' Horizontal Kerning lookup 15-2" uniFED3 dx=-100 dy=0 dh=-100 dv=0 dx=0 dy=0 dh=0 dv=0
PairPos2: "'kern' Horizontal Kerning lookup 15-2" uni0641 dx=-100 dy=0 dh=-100 dv=0 dx=0 dy=0 dh=0 dv=0
PairPos2: "'kern' Horizontal Kerning lookup 15-2" uniFECF dx=-100 dy=0 dh=-100 dv=0 dx=0 dy=0 dh=0 dv=0
PairPos2: "'kern' Horizontal Kerning lookup 15-2" uniFECB dx=-100 dy=0 dh=-100 dv=0 dx=0 dy=0 dh=0 dv=0
PairPos2: "'kern' Horizontal Kerning lookup 15-2" uniFEC7 dx=-100 dy=0 dh=-100 dv=0 dx=0 dy=0 dh=0 dv=0
PairPos2: "'kern' Horizontal Kerning lookup 15-2" uni0638 dx=-100 dy=0 dh=-100 dv=0 dx=0 dy=0 dh=0 dv=0
PairPos2: "'kern' Horizontal Kerning lookup 15-2" uniFEC3 dx=-100 dy=0 dh=-100 dv=0 dx=0 dy=0 dh=0 dv=0
PairPos2: "'kern' Horizontal Kerning lookup 15-2" uni0637 dx=-100 dy=0 dh=-100 dv=0 dx=0 dy=0 dh=0 dv=0
PairPos2: "'kern' Horizontal Kerning lookup 15-2" uniFEBF dx=-100 dy=0 dh=-100 dv=0 dx=0 dy=0 dh=0 dv=0
PairPos2: "'kern' Horizontal Kerning lookup 15-2" uni0636 dx=-100 dy=0 dh=-100 dv=0 dx=0 dy=0 dh=0 dv=0
PairPos2: "'kern' Horizontal Kerning lookup 15-2" uniFEBB dx=-100 dy=0 dh=-100 dv=0 dx=0 dy=0 dh=0 dv=0
PairPos2: "'kern' Horizontal Kerning lookup 15-2" uni0635 dx=-100 dy=0 dh=-100 dv=0 dx=0 dy=0 dh=0 dv=0
PairPos2: "'kern' Horizontal Kerning lookup 15-2" uniFEB7 dx=-100 dy=0 dh=-100 dv=0 dx=0 dy=0 dh=0 dv=0
PairPos2: "'kern' Horizontal Kerning lookup 15-2" uni0634 dx=-100 dy=0 dh=-100 dv=0 dx=0 dy=0 dh=0 dv=0
PairPos2: "'kern' Horizontal Kerning lookup 15-2" uniFEB3 dx=-100 dy=0 dh=-100 dv=0 dx=0 dy=0 dh=0 dv=0
PairPos2: "'kern' Horizontal Kerning lookup 15-2" uni0633 dx=-100 dy=0 dh=-100 dv=0 dx=0 dy=0 dh=0 dv=0
PairPos2: "'kern' Horizontal Kerning lookup 15-2" uniFEA7 dx=-100 dy=0 dh=-100 dv=0 dx=0 dy=0 dh=0 dv=0
PairPos2: "'kern' Horizontal Kerning lookup 15-2" uniFEA3 dx=-100 dy=0 dh=-100 dv=0 dx=0 dy=0 dh=0 dv=0
PairPos2: "'kern' Horizontal Kerning lookup 15-2" uniFE9F dx=-100 dy=0 dh=-100 dv=0 dx=0 dy=0 dh=0 dv=0
PairPos2: "'kern' Horizontal Kerning lookup 15-2" uniFE9B dx=-100 dy=0 dh=-100 dv=0 dx=0 dy=0 dh=0 dv=0
PairPos2: "'kern' Horizontal Kerning lookup 15-2" uni062B dx=-100 dy=0 dh=-100 dv=0 dx=0 dy=0 dh=0 dv=0
PairPos2: "'kern' Horizontal Kerning lookup 15-2" uniFE97 dx=-100 dy=0 dh=-100 dv=0 dx=0 dy=0 dh=0 dv=0
PairPos2: "'kern' Horizontal Kerning lookup 15-2" uni062A dx=-100 dy=0 dh=-100 dv=0 dx=0 dy=0 dh=0 dv=0
PairPos2: "'kern' Horizontal Kerning lookup 15-2" uni0629 dx=-100 dy=0 dh=-100 dv=0 dx=0 dy=0 dh=0 dv=0
PairPos2: "'kern' Horizontal Kerning lookup 15-2" uniFE91 dx=-47 dy=0 dh=-47 dv=0 dx=0 dy=0 dh=0 dv=0
PairPos2: "'kern' Horizontal Kerning lookup 15-2" uni0628 dx=-100 dy=0 dh=-100 dv=0 dx=0 dy=0 dh=0 dv=0
PairPos2: "'kern' Horizontal Kerning lookup 15-2" uni0627 dx=-160 dy=0 dh=-160 dv=0 dx=0 dy=0 dh=0 dv=0
PairPos2: "'kern' Horizontal Kerning lookup 15-2" uni0622 dx=-160 dy=0 dh=-160 dv=0 dx=0 dy=0 dh=0 dv=0
PairPos2: "'kern' Horizontal Kerning lookup 15-2" uni0621 dx=-100 dy=0 dh=-100 dv=0 dx=0 dy=0 dh=0 dv=0
PairPos2: "'kern' Horizontal Kerning lookup 15-2" uniFB94 dx=-142 dy=0 dh=-142 dv=0 dx=0 dy=0 dh=0 dv=0
PairPos2: "'kern' Horizontal Kerning lookup 15-2" uniFB92 dx=-142 dy=0 dh=-142 dv=0 dx=0 dy=0 dh=0 dv=0
PairPos2: "'kern' Horizontal Kerning lookup 15-2" afii57509 dx=-142 dy=0 dh=-142 dv=0 dx=0 dy=0 dh=0 dv=0
PairPos2: "'kern' Horizontal Kerning lookup 15-2" uniFB7C dx=-100 dy=0 dh=-100 dv=0 dx=0 dy=0 dh=0 dv=0
PairPos2: "'kern' Horizontal Kerning lookup 15-2" afii57506 dx=-100 dy=0 dh=-100 dv=0 dx=0 dy=0 dh=0 dv=0
PairPos2: "'kern' Horizontal Kerning lookup 15-2" afii57440 dx=-100 dy=0 dh=-100 dv=0 dx=0 dy=0 dh=0 dv=0
EndChar

StartChar: uniFEB2
Encoding: 65202 65202 189
Width: 2632
VWidth: 2586
GlyphClass: 2
Flags: W
AnchorPoint: "Anchor-10" 1778.4 1098.57 basechar 0
AnchorPoint: "Anchor-7" 691 -632.5 basechar 0
LayerCount: 2
Fore
SplineSet
1914.80957031 408.790039062 m 2,0,1
 1915.25585938 322.732421875 1915.25585938 322.732421875 1947.02832031 286.067382812 c 128,-1,2
 1978.80078125 249.40234375 1978.80078125 249.40234375 2048.57421875 248.965820312 c 0,3,4
 2116.36621094 248.563476562 2116.36621094 248.563476562 2147.05859375 284.723632812 c 128,-1,5
 2177.75195312 320.883789062 2177.75195312 320.883789062 2177.66210938 407.640625 c 2,6,-1
 2177.390625 668.584960938 l 1,7,-1
 2177.35449219 703.62109375 l 1,8,-1
 2212.390625 703.62109375 l 1,9,-1
 2385.51367188 703.62109375 l 1,10,-1
 2420.37597656 703.62109375 l 1,11,-1
 2420.51367188 668.758789062 l 1,12,-1
 2421.53027344 410.5859375 l 2,13,14
 2421.734375 326.682617188 2421.734375 326.682617188 2465.54492188 288.30859375 c 128,-1,15
 2509.35644531 249.93359375 2509.35644531 249.93359375 2609.88574219 249.93359375 c 2,16,-1
 2637.27636719 249.93359375 l 2,17,18
 2652.83691406 249.975585938 2652.83691406 249.975585938 2664.4453125 240.94140625 c 128,-1,19
 2676.0546875 231.908203125 2676.0546875 231.908203125 2680.42675781 223.271484375 c 128,-1,20
 2684.79980469 214.633789062 2684.79980469 214.633789062 2687.84570312 204.284179688 c 0,21,22
 2695.31738281 178.888671875 2695.31738281 178.888671875 2695.31738281 131.93359375 c 2,23,-1
 2695.31738281 120.876953125 l 2,24,25
 2695.30761719 118.111328125 2695.30761719 118.111328125 2695.32910156 112.141601562 c 0,26,27
 2695.38574219 96.958984375 2695.38574219 96.958984375 2695.08984375 88.3154296875 c 128,-1,28
 2694.79394531 79.671875 2694.79394531 79.671875 2693.39941406 64.177734375 c 128,-1,29
 2692.00488281 48.6845703125 2692.00488281 48.6845703125 2688.23730469 39.31640625 c 128,-1,30
 2684.47070312 29.94921875 2684.47070312 29.94921875 2678.41503906 19.8046875 c 128,-1,31
 2672.36035156 9.6591796875 2672.36035156 9.6591796875 2661.85644531 4.796875 c 128,-1,32
 2651.35351562 -0.06640625 2651.35351562 -0.06640625 2637.31738281 -0.06640625 c 2,33,-1
 2617.30371094 -0.06640625 l 2,34,35
 2415.30664062 -0.0048828125 2415.30664062 -0.0048828125 2312.04101562 111.374023438 c 1,36,37
 2231.90429688 -0.494140625 2231.90429688 -0.494140625 2056.47460938 -1.06640625 c 0,38,39
 1885.23535156 -1.0048828125 1885.23535156 -1.0048828125 1799.57324219 109.2734375 c 1,40,41
 1714.84863281 -2.833984375 1714.84863281 -2.833984375 1533.05957031 -1.0654296875 c 0,42,43
 1435.33007812 -0.2333984375 1435.33007812 -0.2333984375 1361.65917969 46.2099609375 c 1,44,45
 1350.00976562 -200.129882812 1350.00976562 -200.129882812 1193.58007812 -325.53515625 c 128,-1,46
 1037.15039062 -450.940429688 1037.15039062 -450.940429688 748.819335938 -450.940429688 c 2,47,-1
 694.10546875 -450.940429688 l 2,48,49
 257.08203125 -450.984375 257.08203125 -450.984375 123.282226562 -154.694335938 c 0,50,51
 68.37109375 -31.935546875 68.37109375 -31.935546875 68.12109375 136.264648438 c 2,52,-1
 68.0009765625 476.987304688 l 1,53,-1
 67.98828125 511.993164062 l 1,54,-1
 102.994140625 512 l 1,55,-1
 279.87109375 512.033203125 l 1,56,-1
 314.877929688 512.040039062 l 1,57,-1
 314.877929688 477.033203125 l 1,58,-1
 314.877929688 137.459960938 l 2,59,60
 314.934570312 -34.8984375 314.934570312 -34.8984375 407.095703125 -117.26953125 c 128,-1,61
 499.255859375 -199.639648438 499.255859375 -199.639648438 696.272460938 -199.639648438 c 2,62,-1
 747.4140625 -199.639648438 l 2,63,64
 946.309570312 -199.8125 946.309570312 -199.8125 1037.77832031 -130.380859375 c 128,-1,65
 1129.24609375 -60.9482421875 1129.24609375 -60.9482421875 1129.16210938 81.5380859375 c 2,66,-1
 1128.81542969 665.798828125 l 1,67,-1
 1128.79492188 700.801757812 l 1,68,-1
 1163.79785156 700.819335938 l 1,69,-1
 1340.25 700.91015625 l 1,70,-1
 1375.26757812 700.927734375 l 1,71,-1
 1375.26757812 665.91015625 l 1,72,-1
 1375.26757812 432.276367188 l 2,73,74
 1375.20605469 382.861328125 1375.20605469 382.861328125 1384.48730469 348.20703125 c 128,-1,75
 1393.76757812 313.552734375 1393.76757812 313.552734375 1413.58105469 291.51953125 c 128,-1,76
 1433.39355469 269.486328125 1433.39355469 269.486328125 1462.89550781 259.326171875 c 128,-1,77
 1492.39746094 249.165039062 1492.39746094 249.165039062 1534.16699219 248.932617188 c 0,78,79
 1580.9765625 248.669921875 1580.9765625 248.669921875 1609.73925781 263.841796875 c 128,-1,80
 1638.50097656 279.012695312 1638.50097656 279.012695312 1652.97753906 313.858398438 c 128,-1,81
 1667.453125 348.703125 1667.453125 348.703125 1667.61328125 406.765625 c 2,82,-1
 1668.33398438 667.717773438 l 1,83,-1
 1668.43066406 702.62109375 l 1,84,-1
 1703.33398438 702.62109375 l 1,85,-1
 1878.46777344 702.62109375 l 1,86,-1
 1913.28710938 702.62109375 l 1,87,-1
 1913.46777344 667.802734375 l 1,88,-1
 1914.80957031 408.790039062 l 2,0,1
EndSplineSet
EndChar

